SplineFontDB: 3.2
FontName: Kurukkal
FullName: Kurukkal
FamilyName: Kurukkal
Weight: Book
Copyright: Sivasri S.Kunchithapatha Kurukkal, K.Harihara Sarma, K.I.Skandadasan. 136/28, George R De Silva Mawatha, Colombo 13. Sri Lanka. TP 0094 11 2436328,Mobile 0094 777887179. email skandaki@sltnet.lk  kiskanda@yahoo.com
Version: 1.0 Mon Jan 22 14:00:09 2001
ItalicAngle: 0
UnderlinePosition: -325
UnderlineWidth: 50
Ascent: 800
Descent: 200
InvalidEm: 0
sfntRevision: 0x00010000
LayerCount: 2
Layer: 0 1 "Back" 1
Layer: 1 1 "Fore" 0
XUID: [1021 991 -255768882 6837968]
StyleMap: 0x0040
FSType: 1
OS2Version: 0
OS2_WeightWidthSlopeOnly: 0
OS2_UseTypoMetrics: 0
CreationTime: -872656817
ModificationTime: 1623613865
PfmFamily: 81
TTFWeight: 400
TTFWidth: 5
LineGap: 0
VLineGap: 0
Panose: 0 0 0 0 0 0 0 0 0 0
OS2TypoAscent: 1000
OS2TypoAOffset: 0
OS2TypoDescent: 500
OS2TypoDOffset: 0
OS2TypoLinegap: 0
OS2WinAscent: 1190
OS2WinAOffset: 0
OS2WinDescent: 1716
OS2WinDOffset: 0
HheadAscent: 1000
HheadAOffset: 0
HheadDescent: -500
HheadDOffset: 0
OS2SubXSize: 700
OS2SubYSize: 650
OS2SubXOff: 0
OS2SubYOff: 143
OS2SupXSize: 700
OS2SupYSize: 650
OS2SupXOff: 0
OS2SupYOff: 453
OS2StrikeYSize: 50
OS2StrikeYPos: 259
OS2Vendor: 'Alts'
OS2UnicodeRanges: 00000000.00000000.00000000.00000000
Lookup: 4 0 0 "'akhn' Akhand lookup 0" { "'akhn' Akhand lookup 0-1"  } ['akhn' ('DFLT' <'dflt' > 'deva' <'dflt' > 'gran' <'dflt' > 'taml' <'dflt' > ) ]
Lookup: 4 0 0 "Repha" { "Repha-1"  } []
Lookup: 6 0 0 "'rphf' Reph Form lookup 2" { "'rphf' Reph Form lookup 2-1"  "'rphf' Reph Form lookup 2-2"  } ['rphf' ('DFLT' <'dflt' > 'deva' <'dflt' > 'gran' <'dflt' > 'taml' <'dflt' > ) ]
Lookup: 4 0 0 "'rkrf' Rakar Forms lookup 3" { "'rkrf' Rakar Forms lookup 3-1"  } ['rkrf' ('DFLT' <'dflt' > 'deva' <'dflt' > 'gran' <'dflt' > 'taml' <'dflt' > ) ]
Lookup: 4 0 0 "'pstf' Post Base Forms lookup 4" { "'pstf' Post Base Forms lookup 4-1"  } ['pstf' ('DFLT' <'dflt' > 'deva' <'dflt' > 'gran' <'dflt' > 'taml' <'dflt' > ) ]

StartChar: .notdef
Encoding: 1114112 -1 0
Width: 1000
Flags: W
LayerCount: 2
Fore
SplineSet
62 0 m 1,0,-1
 62 1000 l 1,1,-1
 938 1000 l 1,2,-1
 938 0 l 1,3,-1
 62 0 l 1,0,-1
876 62 m 1,4,-1
 876 938 l 1,5,-1
 124 938 l 1,6,-1
 124 62 l 1,7,-1
 876 62 l 1,4,-1
EndSplineSet
EndChar

StartChar: u11301
Encoding: 70401 70401 2
Width: 18
Flags: W
LayerCount: 2
Fore
SplineSet
-275 850 m 1,0,-1
 -271 824 l 2,1,2
 -271 798 -271 798 -286.5 775.5 c 128,-1,3
 -302 753 -302 753 -330 744 c 1,4,-1
 -356 740 l 1,5,6
 -383 740 -383 740 -405.5 755.5 c 128,-1,7
 -428 771 -428 771 -437 800 c 1,8,-1
 -440 824 l 2,9,10
 -440 851 -440 851 -423 874 c 0,11,12
 -409 897 -409 897 -381 906 c 1,13,-1
 -356 910 l 1,14,15
 -328 910 -328 910 -306 894.5 c 128,-1,16
 -284 879 -284 879 -275 850 c 1,0,-1
-3 900 m 1,17,18
 -9 839 -9 839 -26 802 c 0,19,20
 -41 764 -41 764 -81 717 c 0,21,22
 -132 654 -132 654 -211 618.5 c 128,-1,23
 -290 583 -290 583 -371 583 c 0,24,25
 -440 583 -440 583 -498 608.5 c 128,-1,26
 -556 634 -556 634 -594.5 684.5 c 128,-1,27
 -633 735 -633 735 -647 782 c 0,28,29
 -660 831 -660 831 -660 897 c 1,30,-1
 -621 903 l 1,31,32
 -621 870 -621 870 -619.5 858 c 128,-1,33
 -618 846 -618 846 -613 830 c 0,34,35
 -607 802 -607 802 -585 765 c 0,36,37
 -540 688 -540 688 -511 667 c 0,38,39
 -488 652 -488 652 -449.5 644 c 128,-1,40
 -411 636 -411 636 -354 636 c 0,41,42
 -237 636 -237 636 -159 710 c 0,43,44
 -94 770 -94 770 -48 888 c 0,45,46
 -41 906 -41 906 -30 908 c 1,47,-1
 -17 903 l 1,48,-1
 -3 900 l 1,17,18
-308 838 m 2,49,50
 -317 872 -317 872 -353 872 c 1,51,-1
 -366 870 l 2,52,53
 -400 861 -400 861 -400 825 c 1,54,-1
 -398 812 l 2,55,56
 -389 778 -389 778 -352 778 c 1,57,-1
 -339 780 l 2,58,59
 -306 789 -306 789 -306 826 c 1,60,-1
 -308 838 l 2,49,50
EndSplineSet
EndChar

StartChar: uni1CF4
Encoding: 7412 7412 3
Width: 9
Flags: W
LayerCount: 2
Fore
SplineSet
-588 854 m 1,0,-1
 -592 845 l 1,1,-1
 -589 810 l 1,2,-1
 -582 774 l 2,3,4
 -579 759 -579 759 -554 725 c 0,5,6
 -532 696 -532 696 -512 676 c 1,7,8
 -497 670 -497 670 -474.5 663.5 c 128,-1,9
 -452 657 -452 657 -425 650 c 0,10,11
 -368 638 -368 638 -328 638 c 0,12,13
 -308 638 -308 638 -288 642 c 128,-1,14
 -268 646 -268 646 -232 658 c 0,15,16
 -170 679 -170 679 -146 696 c 0,17,18
 -129 707 -129 707 -111 726 c 2,19,-1
 -78 768 l 2,20,21
 -72 778 -72 778 -67 797 c 0,22,23
 -64 814 -64 814 -64 856 c 1,24,-1
 -18 862 l 1,25,-1
 -18 848 l 2,26,27
 -18 809 -18 809 -22 788 c 0,28,29
 -25 764 -25 764 -42 744 c 2,30,-1
 -69 703 l 2,31,32
 -84 684 -84 684 -113 664 c 1,33,-1
 -171 636 l 1,34,-1
 -250 605 l 1,35,36
 -313 587 -313 587 -361 587 c 1,37,-1
 -470 604 l 2,38,39
 -504 613 -504 613 -531 628.5 c 128,-1,40
 -558 644 -558 644 -581 664 c 0,41,42
 -622 700 -622 700 -638 751 c 1,43,-1
 -654 862 l 1,44,-1
 -589 862 l 1,45,-1
 -588 854 l 1,0,-1
EndSplineSet
EndChar

StartChar: uniE10D
Encoding: 57613 57613 4
Width: 713
Flags: W
LayerCount: 2
Fore
SplineSet
663 -42 m 1,0,-1
 648 -77 l 1,1,-1
 513 -77 l 1,2,-1
 476 -242 l 1,3,-1
 403 -242 l 1,4,-1
 436 -77 l 1,5,-1
 281 -77 l 2,6,7
 273 -77 273 -77 253 -65 c 1,8,-1
 243 -37 l 1,9,10
 243 -23 243 -23 254 -8 c 0,11,12
 265 4 265 4 294 12 c 0,13,14
 366 24 366 24 382 35 c 1,15,16
 411 45 411 45 423 62 c 1,17,-1
 447 117 l 1,18,-1
 449 131 l 2,19,20
 449 145 449 145 444 161.5 c 128,-1,21
 439 178 439 178 431 186 c 0,22,23
 412 202 412 202 387 202 c 0,24,25
 365 202 365 202 353 194 c 0,26,27
 341 188 341 188 334 166 c 2,28,-1
 315 81 l 1,29,-1
 255 84 l 1,30,-1
 305 338 l 1,31,-1
 166 338 l 1,32,-1
 88 -22 l 1,33,-1
 43 -22 l 1,34,-1
 134 391 l 1,35,-1
 458 391 l 1,36,-1
 447 338 l 1,37,-1
 371 338 l 1,38,-1
 347 244 l 1,39,40
 371 253 371 253 397 253 c 0,41,42
 442 253 442 253 475 226 c 0,43,44
 489 216 489 216 499.5 193 c 128,-1,45
 510 170 510 170 510 148 c 2,46,-1
 507 123 l 1,47,48
 493 71 493 71 481 54 c 0,49,50
 470 35 470 35 435 9 c 1,51,-1
 410 3 l 1,52,-1
 354 -8 l 2,53,54
 333 -11 333 -11 332 -25 c 0,55,56
 333 -32 333 -32 334 -34 c 2,57,-1
 339 -42 l 1,58,-1
 663 -42 l 1,0,-1
EndSplineSet
Ligature2: "'akhn' Akhand lookup 0-1" u11328 u1134D u11326
EndChar

StartChar: uniE112
Encoding: 57618 57618 5
Width: 790
Flags: W
LayerCount: 2
Fore
SplineSet
743 391 m 1,0,-1
 652 -20 l 1,1,-1
 229 -20 l 1,2,-1
 244 32 l 1,3,-1
 395 32 l 1,4,5
 419 47 419 47 435 76 c 0,6,7
 444 91 444 91 447 105 c 2,8,-1
 451 135 l 1,9,-1
 449 159 l 2,10,11
 449 171 449 171 428.5 186 c 128,-1,12
 408 201 408 201 382 201 c 0,13,14
 366 201 366 201 354 193 c 0,15,16
 348 191 348 191 334 166 c 1,17,-1
 314 78 l 1,18,-1
 250 78 l 1,19,-1
 305 338 l 1,20,-1
 166 338 l 1,21,-1
 88 -22 l 1,22,-1
 43 -22 l 1,23,-1
 134 391 l 1,24,-1
 458 391 l 1,25,-1
 447 338 l 1,26,-1
 371 338 l 1,27,-1
 347 244 l 1,28,-1
 371 252 l 1,29,-1
 408 256 l 1,30,31
 448 256 448 256 484 220 c 1,32,33
 508 188 508 188 508 139 c 0,34,35
 508 117 508 117 499 86.5 c 128,-1,36
 490 56 490 56 471 32 c 1,37,-1
 591 32 l 1,38,-1
 673 391 l 1,39,-1
 743 391 l 1,0,-1
EndSplineSet
Ligature2: "'akhn' Akhand lookup 0-1" u11328 u1134D u11335
EndChar

StartChar: uniE115
Encoding: 57621 57621 6
Width: 1090
Flags: W
LayerCount: 2
Fore
SplineSet
879 303 m 0,0,1
 879 336 879 336 851.5 364.5 c 128,-1,2
 824 393 824 393 789 393 c 0,3,4
 777 393 777 393 762 387 c 0,5,6
 693 354 693 354 693 295 c 1,7,-1
 696 273 l 1,8,9
 705 241 705 241 732 214 c 0,10,11
 760 189 760 189 786 189 c 1,12,-1
 801 192 l 1,13,14
 829 202 829 202 854 235 c 128,-1,15
 879 268 879 268 879 303 c 0,0,1
910 36 m 1,16,-1
 824 106 l 1,17,-1
 788 38 l 1,18,-1
 910 36 l 1,16,-1
290 144 m 0,19,20
 290 161 290 161 276 182 c 0,21,22
 264 203 264 203 245 207 c 0,23,24
 212 210 212 210 184 183 c 0,25,26
 158 155 158 155 158 123 c 0,27,28
 158 92 158 92 168.5 68.5 c 128,-1,29
 179 45 179 45 203 45 c 0,30,31
 224 45 224 45 256 63 c 1,32,33
 290 91 290 91 290 144 c 0,19,20
912 243 m 0,34,35
 903 229 903 229 900 225 c 0,36,37
 894 217 894 217 876 196 c 2,38,-1
 840 156 l 1,39,-1
 980 44 l 1,40,-1
 1002 14 l 2,41,42
 1008 5 1008 5 994.5 -3.5 c 128,-1,43
 981 -12 981 -12 966 -12 c 2,44,-1
 771 -9 l 1,45,-1
 660 -234 l 1,46,-1
 1098 -234 l 1,47,-1
 1080 -279 l 1,48,-1
 863 -278 l 1,49,-1
 837 -415 l 1,50,-1
 783 -414 l 1,51,-1
 813 -276 l 1,52,-1
 579 -276 l 1,53,-1
 714 -12 l 1,54,-1
 325 -14 l 1,55,-1
 345 39 l 1,56,57
 356 39 356 39 371 55 c 0,58,59
 383 70 383 70 399 99 c 2,60,-1
 433 164 l 2,61,62
 437 175 437 175 439 185 c 128,-1,63
 441 195 441 195 441 210 c 0,64,65
 441 226 441 226 440 241 c 128,-1,66
 439 256 439 256 436 268 c 0,67,68
 433 290 433 290 419 312.5 c 128,-1,69
 405 335 405 335 369 354 c 0,70,71
 351 363 351 363 334 368 c 128,-1,72
 317 373 317 373 298 373 c 0,73,74
 198 373 198 373 139 314 c 0,75,76
 113 288 113 288 96 253 c 0,77,78
 82 220 82 220 82 180 c 0,79,80
 82 148 82 148 94 115 c 128,-1,81
 106 82 106 82 118 68 c 1,82,-1
 114 86 l 1,83,-1
 113 109 l 2,84,85
 113 168 113 168 150.5 211 c 128,-1,86
 188 254 188 254 251 254 c 0,87,88
 293 254 293 254 321 226 c 128,-1,89
 349 198 349 198 349 143 c 0,90,91
 349 63 349 63 296 20 c 0,92,93
 253 -14 253 -14 201 -14 c 0,94,95
 117 -14 117 -14 74 53 c 0,96,97
 60 77 60 77 49 111 c 0,98,99
 40 144 40 144 40 178 c 0,100,101
 40 281 40 281 124 359 c 1,102,103
 200 420 200 420 292 420 c 0,104,105
 345 420 345 420 398 390 c 0,106,107
 442 363 442 363 465 327 c 0,108,109
 479 303 479 303 483.5 274 c 128,-1,110
 488 245 488 245 488 198 c 0,111,112
 488 171 488 171 479 150 c 2,113,-1
 461 111 l 2,114,115
 454 95 454 95 451 90 c 128,-1,116
 448 85 448 85 441 75 c 0,117,118
 428 54 428 54 411 36 c 1,119,-1
 729 36 l 1,120,-1
 780 141 l 1,121,122
 750 146 750 146 720 165.5 c 128,-1,123
 690 185 690 185 678 207 c 2,124,-1
 654 247 l 2,125,126
 639 273 639 273 639 291 c 0,127,128
 639 325 639 325 664 371 c 0,129,130
 681 404 681 404 706.5 417 c 128,-1,131
 732 430 732 430 753 436 c 0,132,133
 776 441 776 441 795 441 c 0,134,135
 830 441 830 441 853 430 c 128,-1,136
 876 419 876 419 888 402 c 2,137,-1
 915 344 l 2,138,139
 926 314 926 314 926 292 c 2,140,-1
 923 267 l 2,141,142
 919 254 919 254 912 243 c 0,34,35
EndSplineSet
Ligature2: "'akhn' Akhand lookup 0-1" u11337 u1134D u1131F
EndChar

StartChar: uniE117
Encoding: 57623 57623 7
Width: 1094
Flags: W
LayerCount: 2
Fore
SplineSet
1077 401 m 1,0,-1
 990 -14 l 1,1,-1
 -12 -18 l 1,2,-1
 -24 30 l 1,3,-1
 528 39 l 2,4,5
 583 39 583 39 618.5 65.5 c 128,-1,6
 654 92 654 92 669 140 c 1,7,-1
 671 161 l 2,8,9
 671 183 671 183 657 200 c 0,10,11
 645 218 645 218 626 225 c 1,12,-1
 604 227 l 2,13,14
 583 227 583 227 577 212 c 2,15,-1
 543 58 l 1,16,-1
 480 58 l 1,17,-1
 539 345 l 1,18,-1
 433 345 l 1,19,-1
 380 58 l 1,20,-1
 317 58 l 1,21,-1
 343 230 l 1,22,-1
 344 244 l 2,23,24
 344 275 344 275 317 317 c 1,25,26
 284 359 284 359 228 359 c 0,27,28
 143 359 143 359 95.5 318 c 128,-1,29
 48 277 48 277 48 213 c 0,30,31
 48 174 48 174 72 133 c 1,32,-1
 70 158 l 2,33,34
 70 208 70 208 102 243 c 128,-1,35
 134 278 134 278 189 278 c 0,36,37
 225 278 225 278 249 254 c 128,-1,38
 273 230 273 230 273 186 c 0,39,40
 273 128 273 128 228 86 c 1,41,42
 191 58 191 58 144 58 c 0,43,44
 72 58 72 58 36 112 c 0,45,46
 7 155 7 155 7 213 c 0,47,48
 7 300 7 300 78 356 c 0,49,50
 140 403 140 403 220 403 c 1,51,-1
 270 400 l 2,52,53
 299 397 299 397 309 389 c 0,54,55
 342 375 342 375 364 345 c 1,56,-1
 374 403 l 1,57,-1
 737 403 l 1,58,-1
 733 345 l 1,59,-1
 603 345 l 1,60,-1
 587 272 l 1,61,-1
 618 278 l 1,62,63
 674 278 674 278 709 243 c 128,-1,64
 744 208 744 208 744 158 c 2,65,-1
 744 147 l 1,66,-1
 742 135 l 2,67,68
 730 73 730 73 687 39 c 1,69,-1
 919 39 l 1,70,-1
 995 401 l 1,71,-1
 1077 401 l 1,0,-1
220 187 m 0,72,73
 220 199 220 199 208 214 c 128,-1,74
 196 229 196 229 183 232 c 0,75,76
 154 237 154 237 131.5 215 c 128,-1,77
 109 193 109 193 109 168 c 0,78,79
 109 150 109 150 118 129 c 0,80,81
 128 110 128 110 148 110 c 0,82,83
 173 110 173 110 190 124 c 0,84,85
 220 145 220 145 220 187 c 0,72,73
EndSplineSet
EndChar

StartChar: uniE280
Encoding: 57984 57984 8
Width: 354
Flags: W
LayerCount: 2
Fore
SplineSet
279 -15 m 0,0,1
 259 -38 259 -38 239 -49.5 c 128,-1,2
 219 -61 219 -61 194 -61 c 0,3,4
 165 -61 165 -61 127 -46 c 0,5,6
 96 -31 96 -31 44 6 c 1,7,-1
 44 82 l 1,8,9
 76 56 76 56 120 30 c 1,10,11
 166 11 166 11 183 11 c 0,12,13
 202 11 202 11 214 19 c 0,14,15
 219 22 219 22 237 41 c 0,16,17
 252 62 252 62 252 91 c 0,18,19
 252 122 252 122 232 145 c 128,-1,20
 212 168 212 168 172 168 c 1,21,-1
 129 159 l 1,22,-1
 133 187 l 1,23,24
 146 197 146 197 158 210 c 2,25,-1
 177 234 l 2,26,27
 194 254 194 254 194 273 c 0,28,29
 194 290 194 290 181 300.5 c 128,-1,30
 168 311 168 311 150 311 c 0,31,32
 131 311 131 311 113 300 c 0,33,34
 95 291 95 291 80 264 c 1,35,-1
 65 316 l 1,36,37
 80 346 80 346 102.5 359.5 c 128,-1,38
 125 373 125 373 153 373 c 0,39,40
 193 373 193 373 225.5 345.5 c 128,-1,41
 258 318 258 318 258 279 c 0,42,43
 258 254 258 254 250 243 c 0,44,45
 244 226 244 226 225 207 c 1,46,47
 264 201 264 201 289 164 c 1,48,-1
 302 137 l 2,49,50
 306 125 306 125 309 109 c 128,-1,51
 312 93 312 93 312 78 c 0,52,53
 312 55 312 55 300.5 25.5 c 128,-1,54
 289 -4 289 -4 279 -15 c 0,0,1
EndSplineSet
EndChar

StartChar: uni0952
Encoding: 2386 2386 9
Width: 24
Flags: W
LayerCount: 2
Fore
SplineSet
-823 -299 m 1,0,-1
 -807 -228 l 1,1,-1
 -338 -228 l 1,2,-1
 -353 -299 l 1,3,-1
 -823 -299 l 1,0,-1
EndSplineSet
EndChar

StartChar: u1135E
Encoding: 70494 70494 10
Width: 717
Flags: W
LayerCount: 2
Fore
SplineSet
409 286 m 1,0,-1
 413 260 l 2,1,2
 413 234 413 234 397.5 211.5 c 128,-1,3
 382 189 382 189 354 180 c 1,4,-1
 328 176 l 1,5,6
 300 176 300 176 278 191.5 c 128,-1,7
 256 207 256 207 247 236 c 1,8,-1
 244 260 l 2,9,10
 244 287 244 287 260 310 c 128,-1,11
 276 333 276 333 303 342 c 1,12,-1
 328 346 l 1,13,14
 355 346 355 346 377.5 330.5 c 128,-1,15
 400 315 400 315 409 286 c 1,0,-1
681 336 m 1,16,17
 675 275 675 275 658 238 c 0,18,19
 643 200 643 200 603 153 c 0,20,21
 552 90 552 90 473 54.5 c 128,-1,22
 394 19 394 19 313 19 c 0,23,24
 244 19 244 19 186 44.5 c 128,-1,25
 128 70 128 70 89 121 c 128,-1,26
 50 172 50 172 37 219.5 c 128,-1,27
 24 267 24 267 24 333 c 1,28,-1
 63 339 l 1,29,30
 63 294 63 294 70.5 265 c 128,-1,31
 78 236 78 236 99 201 c 0,32,33
 144 124 144 124 173 103 c 0,34,35
 196 88 196 88 234.5 80 c 128,-1,36
 273 72 273 72 330 72 c 0,37,38
 447 72 447 72 525 146 c 0,39,40
 590 206 590 206 636 324 c 0,41,42
 643 342 643 342 654 344 c 1,43,-1
 681 336 l 1,16,17
376 274 m 2,44,45
 367 308 367 308 331 308 c 1,46,-1
 318 306 l 2,47,48
 284 297 284 297 284 261 c 1,49,-1
 286 248 l 2,50,51
 295 214 295 214 332 214 c 1,52,-1
 345 216 l 2,53,54
 378 225 378 225 378 262 c 1,55,-1
 376 274 l 2,44,45
EndSplineSet
EndChar

StartChar: uniE402
Encoding: 58370 58370 11
Width: 498
Flags: W
LayerCount: 2
Fore
SplineSet
453 324 m 2,0,1
 458 317 458 317 464 288 c 2,2,-1
 468 234 l 2,3,4
 468 211 468 211 465 196.5 c 128,-1,5
 462 182 462 182 454 164 c 0,6,7
 451 158 451 158 438 132 c 2,8,-1
 405 65 l 2,9,10
 381 17 381 17 341 -5 c 1,11,12
 361 -20 361 -20 375 -43 c 0,13,14
 390 -64 390 -64 390 -86 c 2,15,-1
 387 -105 l 1,16,17
 378 -135 378 -135 344 -160 c 0,18,19
 310 -183 310 -183 265 -183 c 0,20,21
 226 -183 226 -183 187 -153 c 0,22,23
 150 -122 150 -122 150 -88 c 0,24,25
 150 -67 150 -67 152 -60.5 c 128,-1,26
 154 -54 154 -54 160 -47 c 0,27,28
 172 -27 172 -27 195 -10 c 1,29,30
 122 11 122 11 77 95 c 1,31,-1
 51 160 l 2,32,33
 36 205 36 205 36 242 c 2,34,-1
 39 276 l 1,35,-1
 54 369 l 1,36,-1
 90 498 l 1,37,-1
 117 579 l 1,38,-1
 183 567 l 1,39,-1
 153 468 l 1,40,-1
 108 258 l 1,41,42
 108 231 108 231 109.5 219 c 128,-1,43
 111 207 111 207 116 183 c 0,44,45
 125 141 125 141 140 111.5 c 128,-1,46
 155 82 155 82 193 60.5 c 128,-1,47
 231 39 231 39 267 39 c 0,48,49
 296 39 296 39 330 73 c 128,-1,50
 364 107 364 107 387 162 c 0,51,52
 393 176 393 176 399 205 c 2,53,-1
 408 246 l 1,54,55
 391 220 391 220 342 205 c 1,56,-1
 321 203 l 2,57,58
 282 203 282 203 257.5 229 c 128,-1,59
 233 255 233 255 233 303 c 0,60,61
 233 350 233 350 261.5 381.5 c 128,-1,62
 290 413 290 413 332 413 c 0,63,64
 363 413 363 413 389 396 c 0,65,66
 403 390 403 390 429 355 c 2,67,-1
 453 324 l 2,0,1
373 297 m 0,68,69
 373 305 373 305 365 315 c 128,-1,70
 357 325 357 325 336 331 c 1,71,72
 320 331 320 331 311 323 c 0,73,74
 302 317 302 317 301 301 c 0,75,76
 301 286 301 286 312 276.5 c 128,-1,77
 323 267 323 267 337 267 c 0,78,79
 367 267 367 267 373 297 c 0,68,69
320 -74 m 1,80,81
 320 -60 320 -60 310 -46.5 c 128,-1,82
 300 -33 300 -33 284 -33 c 0,83,84
 266 -33 266 -33 251 -45 c 128,-1,85
 236 -57 236 -57 232 -79 c 0,86,87
 229 -99 229 -99 239 -110 c 0,88,89
 252 -120 252 -120 268 -120 c 0,90,91
 277 -120 277 -120 300 -108 c 0,92,93
 309 -101 309 -101 320 -74 c 1,80,81
EndSplineSet
EndChar

StartChar: uniE10F
Encoding: 57615 57615 12
Width: 765
Flags: W
LayerCount: 2
Fore
SplineSet
476 454 m 1,0,-1
 372 454 l 1,1,-1
 341 309 l 1,2,-1
 444 310 l 1,3,-1
 476 454 l 1,0,-1
401 106 m 2,4,-1
 434 261 l 1,5,-1
 318 261 l 2,6,7
 269 261 269 261 252 250 c 0,8,9
 222 237 222 237 196 154 c 1,10,-1
 193 127 l 1,11,12
 193 89 193 89 221 70 c 2,13,-1
 240 57 l 1,14,-1
 269 42 l 1,15,-1
 286 40 l 1,16,-1
 301 39 l 1,17,-1
 319 40 l 1,18,-1
 328 44 l 1,19,-1
 355 56 l 1,20,-1
 371 70 l 2,21,22
 397 94 397 94 401 106 c 2,4,-1
141 -42 m 2,23,24
 149 -48 149 -48 191 -65 c 1,25,-1
 231 -69 l 1,26,-1
 264 -70 l 1,27,-1
 275 -70 l 1,28,-1
 313 -69 l 1,29,-1
 330 -69 l 1,30,-1
 348 -65 l 1,31,-1
 370 -65 l 1,32,-1
 393 -60 l 2,33,34
 405 -59 405 -59 429 -48 c 1,35,36
 452 -42 452 -42 479 -19 c 0,37,38
 499 -5 499 -5 525 26 c 1,39,-1
 539 52 l 1,40,-1
 547 79 l 1,41,-1
 550 96 l 1,42,-1
 554 115 l 1,43,-1
 560 140 l 1,44,-1
 587 264 l 1,45,-1
 569 263 l 1,46,-1
 479 263 l 1,47,-1
 448 119 l 2,48,49
 436 69 436 69 382 28 c 1,50,51
 322 -6 322 -6 268 -6 c 0,52,53
 245 -6 245 -6 225.5 0 c 128,-1,54
 206 6 206 6 176 27 c 0,55,56
 138 59 138 59 138 117 c 2,57,-1
 138 131 l 1,58,-1
 139 141 l 2,59,60
 139 151 139 151 143 162 c 0,61,62
 157 231 157 231 203 273 c 0,63,64
 224 289 224 289 290 307 c 1,65,-1
 296 336 l 1,66,-1
 308 389 l 1,67,-1
 312 406 l 1,68,-1
 315 421 l 1,69,-1
 318 434 l 1,70,-1
 320 445 l 1,71,-1
 325 476 l 1,72,-1
 327 483 l 1,73,-1
 329 493 l 1,74,-1
 327 501 l 1,75,-1
 611 500 l 1,76,-1
 601 455 l 1,77,-1
 540 456 l 1,78,-1
 517 455 l 1,79,-1
 513 438 l 1,80,-1
 505 397 l 1,81,-1
 486 312 l 1,82,-1
 536 311 l 1,83,-1
 718 311 l 1,84,-1
 711 264 l 1,85,-1
 633 263 l 1,86,-1
 607 139 l 1,87,-1
 599 102 l 1,88,-1
 593 77 l 1,89,-1
 584 48 l 2,90,91
 582 38 582 38 576 30 c 2,92,-1
 564 8 l 2,93,94
 557 -8 557 -8 530 -33 c 1,95,-1
 488 -60 l 1,96,-1
 457 -78 l 1,97,-1
 438 -87 l 1,98,-1
 394 -102 l 1,99,-1
 348 -111 l 1,100,-1
 325 -113 l 1,101,-1
 300 -114 l 1,102,-1
 257 -114 l 1,103,-1
 244 -114 l 1,104,-1
 232 -114 l 2,105,106
 196 -114 196 -114 179 -111 c 2,107,-1
 159 -107 l 1,108,-1
 140 -101 l 1,109,-1
 105 -75 l 1,110,-1
 70 -47 l 2,111,112
 55 -34 55 -34 45 -19 c 1,113,-1
 30 -6 l 2,114,115
 18 3 18 3 15 10 c 2,116,-1
 8 29 l 1,117,-1
 0 54 l 1,118,-1
 -3 66 l 1,119,-1
 36 75 l 1,120,-1
 54 42 l 1,121,-1
 104 -8 l 1,122,-1
 141 -42 l 2,23,24
EndSplineSet
Ligature2: "'vatu' Vattu Variants lookup 8-1" u11324 uniE202
EndChar

StartChar: u11303
Encoding: 70403 70403 13
Width: 276
Flags: W
LayerCount: 2
Fore
SplineSet
218 332 m 1,0,1
 208 311 208 311 204 308 c 2,2,-1
 183 296 l 2,3,4
 154 276 154 276 119 276 c 0,5,6
 93 276 93 276 64 294 c 2,7,-1
 48 306 l 2,8,9
 45 309 45 309 44 320 c 2,10,-1
 48 350 l 1,11,-1
 59 370 l 2,12,13
 72 390 72 390 87 402 c 0,14,15
 119 423 119 423 151 423 c 0,16,17
 173 423 173 423 203 402 c 0,18,19
 222 386 222 386 222 362 c 2,20,-1
 218 332 l 1,0,1
224 44 m 2,21,22
 218 29 218 29 211 22 c 2,23,-1
 191 7 l 2,24,25
 162 -13 162 -13 127 -13 c 0,26,27
 112 -13 112 -13 94 -4 c 2,28,-1
 74 8 l 2,29,30
 66 9 66 9 54 26 c 1,31,-1
 52 66 l 1,32,-1
 58 77 l 2,33,34
 74 103 74 103 90.5 113.5 c 128,-1,35
 107 124 107 124 121 127.5 c 128,-1,36
 135 131 135 131 140 132 c 128,-1,37
 145 133 145 133 158 133 c 0,38,39
 181 133 181 133 211 112 c 0,40,41
 230 96 230 96 230 73 c 1,42,-1
 224 44 l 2,21,22
154 349 m 0,43,44
 160 376 160 376 130 376 c 0,45,46
 119 376 119 376 109 370 c 128,-1,47
 99 364 99 364 93 348 c 0,48,49
 87 321 87 321 117 321 c 0,50,51
 130 321 130 321 138.5 326.5 c 128,-1,52
 147 332 147 332 154 349 c 0,43,44
126 30 m 0,53,54
 152 30 152 30 163 60 c 1,55,56
 169 90 169 90 138 90 c 0,57,58
 108 90 108 90 102 60 c 256,59,60
 96 30 96 30 126 30 c 0,53,54
EndSplineSet
EndChar

StartChar: uni0964
Encoding: 2404 2404 14
Width: 165
Flags: W
LayerCount: 2
Fore
SplineSet
122 6 m 1,0,-1
 65 6 l 1,1,-1
 66 624 l 1,2,-1
 120 624 l 1,3,-1
 122 6 l 1,0,-1
EndSplineSet
EndChar

StartChar: uni0965
Encoding: 2405 2405 15
Width: 330
Flags: W
LayerCount: 2
Fore
SplineSet
263 0 m 1,0,-1
 208 0 l 1,1,-1
 210 636 l 1,2,-1
 264 642 l 1,3,-1
 263 0 l 1,0,-1
96 636 m 1,4,-1
 96 -6 l 1,5,-1
 41 -6 l 1,6,-1
 42 636 l 1,7,-1
 96 636 l 1,4,-1
EndSplineSet
EndChar

StartChar: uniE109
Encoding: 57609 57609 16
Width: 919
Flags: W
LayerCount: 2
Fore
SplineSet
681 36 m 1,0,-1
 577 36 l 1,1,-1
 558 -53 l 1,2,-1
 662 -53 l 1,3,-1
 681 36 l 1,0,-1
276 284 m 256,4,5
 276 312 276 312 254 312 c 0,6,7
 242 312 242 312 231 302 c 1,8,-1
 219 275 l 1,9,10
 219 256 219 256 242 256 c 0,11,12
 276 256 276 256 276 284 c 256,4,5
649 -101 m 1,13,-1
 532 -101 l 2,14,15
 485 -101 485 -101 465 -120 c 0,16,17
 450 -135 450 -135 450 -163 c 0,18,19
 450 -186 450 -186 474 -198 c 128,-1,20
 498 -210 498 -210 534 -210 c 0,21,22
 585 -210 585 -210 614 -182 c 0,23,24
 628 -168 628 -168 649 -101 c 1,13,-1
358 -125 m 0,25,26
 358 -99 358 -99 334 -99 c 0,27,28
 322 -99 322 -99 309 -115 c 0,29,30
 298 -132 298 -132 298 -150 c 1,31,32
 312 -156 312 -156 323 -156 c 0,33,34
 358 -156 358 -156 358 -125 c 0,25,26
770 -128 m 0,35,36
 760 -116 760 -116 709 -102 c 1,37,38
 689 -176 689 -176 659 -212 c 0,39,40
 619 -261 619 -261 549 -261 c 0,41,42
 493 -261 493 -261 452 -243 c 0,43,44
 408 -219 408 -219 408 -155 c 0,45,46
 408 -113 408 -113 438 -86 c 128,-1,47
 468 -59 468 -59 516 -53 c 1,48,-1
 532 33 l 1,49,50
 453 33 453 33 372 0 c 0,51,52
 335 -12 335 -12 267 -61 c 0,53,54
 238 -77 238 -77 215.5 -86 c 128,-1,55
 193 -95 193 -95 176 -95 c 0,56,57
 111 -95 111 -95 77 -67 c 128,-1,58
 43 -39 43 -39 43 6 c 0,59,60
 43 50 43 50 54.5 91 c 128,-1,61
 66 132 66 132 89.5 145 c 128,-1,62
 113 158 113 158 141 167.5 c 128,-1,63
 169 177 169 177 201 180 c 2,64,-1
 488 209 l 2,65,66
 500 209 500 209 508 213 c 128,-1,67
 516 217 516 217 522.5 221.5 c 128,-1,68
 529 226 529 226 538 236 c 0,69,70
 559 263 559 263 559 296 c 0,71,72
 559 323 559 323 544 341 c 128,-1,73
 529 359 529 359 499 359 c 2,74,-1
 470 358 l 2,75,76
 454 358 454 358 443 350 c 1,77,78
 428 346 428 346 422 326 c 2,79,-1
 396 231 l 1,80,-1
 336 228 l 1,81,-1
 354 325 l 1,82,-1
 340 347 l 2,83,84
 335 353 335 353 324 358 c 2,85,-1
 292 371 l 2,86,87
 283 374 283 374 274 376 c 128,-1,88
 265 378 265 378 254 378 c 0,89,90
 240 378 240 378 233 377 c 128,-1,91
 226 376 226 376 211 371 c 0,92,93
 201 369 201 369 176 356 c 0,94,95
 165 348 165 348 158.5 337.5 c 128,-1,96
 152 327 152 327 150 312 c 2,97,-1
 151 293 l 2,98,99
 153 283 153 283 156 280 c 2,100,-1
 184 254 l 1,101,102
 187 257 187 257 191 294 c 0,103,104
 191 328 191 328 232 344 c 1,105,-1
 249 346 l 2,106,107
 263 346 263 346 269.5 344.5 c 128,-1,108
 276 343 276 343 287 338 c 0,109,110
 306 332 306 332 318 319 c 1,111,-1
 332 286 l 1,112,113
 332 250 332 250 301 228 c 0,114,115
 291 220 291 220 261 214 c 2,116,-1
 207 210 l 1,117,-1
 176 213 l 2,118,119
 166 216 166 216 126 237 c 0,120,121
 111 246 111 246 104.5 261.5 c 128,-1,122
 98 277 98 277 98 300 c 0,123,124
 98 319 98 319 99.5 331.5 c 128,-1,125
 101 344 101 344 108 357 c 128,-1,126
 115 370 115 370 139 387 c 0,127,128
 183 416 183 416 253 416 c 0,129,130
 311 416 311 416 346 403 c 0,131,132
 374 394 374 394 397 372 c 1,133,134
 436 416 436 416 499 416 c 0,135,136
 547 416 547 416 597 377 c 0,137,138
 610 368 610 368 614 356.5 c 128,-1,139
 618 345 618 345 620 328 c 2,140,-1
 619 312 l 1,141,-1
 618 294 l 2,142,143
 618 240 618 240 570 198 c 0,144,145
 554 183 554 183 522 175 c 2,146,-1
 468 168 l 1,147,-1
 255 144 l 1,148,-1
 195 135 l 1,149,-1
 147 126 l 2,150,151
 130 120 130 120 114.5 92 c 128,-1,152
 99 64 99 64 99 30 c 2,153,-1
 98 17 l 2,154,155
 98 -10 98 -10 111.5 -26.5 c 128,-1,156
 125 -43 125 -43 156 -43 c 2,157,-1
 171 -42 l 1,158,159
 195 -36 195 -36 218 -27.5 c 128,-1,160
 241 -19 241 -19 269 -4 c 2,161,-1
 326 29 l 2,162,163
 328 30 328 30 340 35 c 0,164,165
 368 46 368 46 375 49 c 0,166,167
 392 55 392 55 406 58.5 c 128,-1,168
 420 62 420 62 429 63 c 2,169,-1
 555 75 l 1,170,-1
 867 75 l 1,171,-1
 859 36 l 1,172,-1
 741 36 l 1,173,-1
 722 -53 l 1,174,175
 779 -53 779 -53 813 -81 c 0,176,177
 852 -114 852 -114 852 -179 c 0,178,179
 852 -213 852 -213 842 -252 c 0,180,181
 827 -304 827 -304 751 -368 c 0,182,183
 712 -397 712 -397 662 -410 c 128,-1,184
 612 -423 612 -423 564 -423 c 0,185,186
 484 -423 484 -423 437.5 -412 c 128,-1,187
 391 -401 391 -401 344 -365 c 0,188,189
 318 -346 318 -346 279 -290 c 0,190,191
 237 -228 237 -228 237 -195 c 0,192,193
 237 -165 237 -165 246 -133.5 c 128,-1,194
 255 -102 255 -102 270 -84 c 0,195,196
 294 -56 294 -56 339 -48 c 0,197,198
 353 -48 353 -48 364.5 -53.5 c 128,-1,199
 376 -59 376 -59 388 -67 c 128,-1,200
 400 -75 400 -75 400 -93 c 2,201,-1
 399 -117 l 2,202,203
 399 -147 399 -147 378 -174 c 2,204,-1
 361 -199 l 2,205,206
 353 -209 353 -209 337 -209 c 0,207,208
 329 -209 329 -209 297 -200 c 1,209,210
 303 -266 303 -266 364 -320 c 0,211,212
 435 -383 435 -383 540 -383 c 0,213,214
 610 -383 610 -383 691 -338 c 0,215,216
 731 -313 731 -313 748.5 -295 c 128,-1,217
 766 -277 766 -277 786 -237 c 1,218,-1
 793 -215 l 1,219,-1
 795 -195 l 2,220,221
 795 -175 795 -175 786.5 -155.5 c 128,-1,222
 778 -136 778 -136 770 -128 c 0,35,36
EndSplineSet
Ligature2: "'akhn' Akhand lookup 0-1" u1131C u1134D u1131E
EndChar

StartChar: u1134D
Encoding: 70477 70477 17
Width: 160
Flags: W
LayerCount: 2
Fore
SplineSet
255 626 m 1,0,-1
 265 606 l 1,1,-1
 266 589 l 2,2,3
 266 583 266 583 248 563 c 1,4,-1
 240 558 l 1,5,-1
 -121 557 l 1,6,-1
 -126 540 l 2,7,8
 -129 526 -129 526 -135 517 c 1,9,-1
 -134 507 l 1,10,-1
 -128 500 l 1,11,-1
 124 500 l 1,12,-1
 113 447 l 1,13,-1
 -142 447 l 1,14,-1
 -154 436 l 1,15,-1
 -159 404 l 2,16,17
 -162 392 -162 392 -148 379 c 1,18,-1
 -38 379 l 1,19,-1
 -50 323 l 1,20,-1
 -173 323 l 2,21,22
 -195 326 -195 326 -213 347 c 1,23,24
 -223 365 -223 365 -223 381 c 2,25,-1
 -220 398 l 1,26,-1
 -220 421 l 2,27,28
 -220 432 -220 432 -216 436 c 0,29,30
 -210 448 -210 448 -191 464 c 1,31,32
 -201 477 -201 477 -201 495 c 2,33,-1
 -198 518 l 2,34,35
 -189 560 -189 560 -183 574 c 0,36,37
 -180 585 -180 585 -171 596 c 0,38,39
 -153 617 -153 617 -115 626 c 1,40,-1
 255 626 l 1,0,-1
EndSplineSet
EndChar

StartChar: u11347
Encoding: 70471 70471 18
Width: 572
Flags: W
LayerCount: 2
Fore
SplineSet
566 293 m 1,0,-1
 507 -8 l 1,1,-1
 447 -8 l 1,2,-1
 507 293 l 1,3,-1
 511 330 l 1,4,-1
 512 349 l 1,5,6
 512 438 512 438 465 494 c 0,7,8
 408 562 408 562 294 562 c 0,9,10
 184 562 184 562 131 506 c 0,11,12
 64 436 64 436 64 266 c 0,13,14
 64 176 64 176 104.5 102 c 128,-1,15
 145 28 145 28 206 28 c 1,16,-1
 194 70 l 2,17,18
 191 91 191 91 191 125 c 0,19,20
 191 197 191 197 219 243 c 0,21,22
 252 297 252 297 314 297 c 0,23,24
 356 297 356 297 383 260.5 c 128,-1,25
 410 224 410 224 410 170 c 0,26,27
 410 104 410 104 364.5 45 c 128,-1,28
 319 -14 319 -14 236 -14 c 0,29,30
 139 -14 139 -14 64 76 c 1,31,32
 5 156 5 156 5 256 c 0,33,34
 5 415 5 415 69 512 c 0,35,36
 144 625 144 625 294 625 c 0,37,38
 441 625 441 625 515 524 c 0,39,40
 569 449 569 449 569 337 c 1,41,-1
 566 293 l 1,0,-1
335 159 m 1,42,43
 335 185 335 185 326 214 c 0,44,45
 314 240 314 240 292 240 c 0,46,47
 272 240 272 240 254 212 c 1,48,-1
 244 179 l 1,49,-1
 234 122 l 1,50,-1
 240 78 l 1,51,-1
 252 34 l 1,52,53
 285 40 285 40 305 64 c 0,54,55
 323 88 323 88 335 159 c 1,42,43
EndSplineSet
EndChar

StartChar: u11357
Encoding: 70487 70487 19
Width: 915
Flags: W
LayerCount: 2
Fore
SplineSet
137 123 m 0,0,1
 137 149 137 149 164 184.5 c 128,-1,2
 191 220 191 220 229 220 c 1,3,-1
 247 218 l 2,4,5
 260 218 260 218 277 192 c 0,6,7
 295 168 295 168 295 143 c 0,8,9
 295 83 295 83 257 54 c 0,10,11
 230 33 230 33 195 33 c 0,12,13
 168 33 168 33 152.5 61.5 c 128,-1,14
 137 90 137 90 137 123 c 0,0,1
124 312 m 0,15,16
 181 377 181 377 291 377 c 0,17,18
 363 377 363 377 410 318 c 0,19,20
 449 268 449 268 449 212 c 1,21,-1
 447 193 l 1,22,-1
 414 -2 l 1,23,-1
 461 -2 l 1,24,-1
 527 359 l 1,25,-1
 701 360 l 1,26,-1
 629 3 l 1,27,-1
 658 1 l 1,28,-1
 683 0 l 1,29,-1
 755 359 l 1,30,-1
 849 359 l 1,31,-1
 855 400 l 1,32,-1
 482 400 l 1,33,-1
 465 297 l 1,34,35
 441 350 441 350 394.5 376 c 128,-1,36
 348 402 348 402 293 402 c 0,37,38
 245 402 245 402 201 387.5 c 128,-1,39
 157 373 157 373 119 341 c 0,40,41
 85 312 85 312 63 269 c 0,42,43
 45 228 45 228 45 178 c 0,44,45
 45 119 45 119 75 62 c 1,46,47
 115 -2 115 -2 193 -2 c 0,48,49
 242 -2 242 -2 280 29 c 0,50,51
 330 68 330 68 330 143 c 0,52,53
 330 188 330 188 306.5 215 c 128,-1,54
 283 242 283 242 244 242 c 0,55,56
 194 242 194 242 152 203 c 1,57,58
 120 163 120 163 120 108 c 1,59,-1
 137 33 l 1,60,61
 106 45 106 45 86 90 c 1,62,-1
 73 135 l 2,63,64
 67 162 67 162 67 186 c 2,65,-1
 68 200 l 2,66,67
 74 230 74 230 83.5 254.5 c 128,-1,68
 93 279 93 279 124 312 c 0,15,16
EndSplineSet
EndChar

StartChar: u1133E
Encoding: 70462 70462 20
Width: 623
Flags: W
LayerCount: 2
Fore
SplineSet
585 405 m 1,0,-1
 578 351 l 1,1,-1
 419 351 l 1,2,-1
 348 -10 l 1,3,-1
 276 -10 l 1,4,-1
 349 351 l 1,5,-1
 126 351 l 1,6,-1
 51 -10 l 1,7,-1
 5 -10 l 1,8,-1
 92 405 l 1,9,-1
 585 405 l 1,0,-1
EndSplineSet
EndChar

StartChar: u11343
Encoding: 70467 70467 21
Width: 624
Flags: W
LayerCount: 2
Fore
SplineSet
57 -243 m 0,0,1
 52 -238 52 -238 46 -229.5 c 128,-1,2
 40 -221 40 -221 34 -207 c 0,3,4
 28 -187 28 -187 28 -164 c 0,5,6
 28 -131 28 -131 39 -120 c 2,7,-1
 60 -94 l 1,8,9
 72 -87 72 -87 93 -87 c 2,10,-1
 129 -88 l 2,11,12
 139 -90 139 -90 150 -99 c 0,13,14
 162 -111 162 -111 176 -151 c 1,15,-1
 141 -166 l 1,16,-1
 131 -146 l 2,17,18
 129 -143 129 -143 119 -141 c 0,19,20
 111 -141 111 -141 90 -156 c 1,21,22
 81 -176 81 -176 81 -189 c 0,23,24
 81 -210 81 -210 99 -225 c 0,25,26
 108 -233 108 -233 135 -246 c 0,27,28
 151 -255 151 -255 161 -258 c 2,29,-1
 193 -262 l 1,30,-1
 210 -261 l 1,31,-1
 228 -263 l 2,32,33
 246 -263 246 -263 260 -256 c 2,34,-1
 280 -243 l 2,35,36
 313 -225 313 -225 325 -182 c 1,37,-1
 321 365 l 1,38,-1
 148 365 l 1,39,-1
 148 419 l 1,40,-1
 552 419 l 1,41,-1
 552 366 l 1,42,-1
 391 365 l 1,43,-1
 392 -199 l 1,44,45
 383 -256 383 -256 330 -288 c 0,46,47
 306 -302 306 -302 279 -309 c 2,48,-1
 249 -318 l 1,49,50
 168 -318 168 -318 132 -302 c 0,51,52
 118 -296 118 -296 100 -282 c 128,-1,53
 82 -268 82 -268 57 -243 c 0,0,1
EndSplineSet
EndChar

StartChar: five
Encoding: 70468 70468 22
Width: 654
Flags: W
LayerCount: 2
Fore
SplineSet
286 -190 m 0,0,1
 286 -208 286 -208 275 -225 c 2,2,-1
 254 -252 l 1,3,-1
 204 -250 l 1,4,5
 221 -234 221 -234 228 -221 c 0,6,7
 237 -208 237 -208 240 -194 c 0,8,9
 242 -180 242 -180 235 -155 c 0,10,11
 234 -152 234 -152 234 -148.5 c 128,-1,12
 234 -145 234 -145 234 -144 c 1,13,-1
 200 -183 l 2,14,15
 173 -214 173 -214 164 -208 c 0,16,17
 156 -201 156 -201 141 -185 c 0,18,19
 131 -174 131 -174 122 -164 c 0,20,21
 106 -145 106 -145 92 -138 c 1,22,-1
 74 -194 l 1,23,24
 74 -211 74 -211 87.5 -232 c 128,-1,25
 101 -253 101 -253 122 -266 c 0,26,27
 145 -278 145 -278 172 -285 c 0,28,29
 184 -288 184 -288 196 -290 c 128,-1,30
 208 -292 208 -292 222 -292 c 0,31,32
 240 -292 240 -292 259 -292 c 0,33,34
 272 -289 272 -289 282.5 -287.5 c 128,-1,35
 293 -286 293 -286 301 -283.5 c 128,-1,36
 309 -281 309 -281 324 -274 c 0,37,38
 347 -263 347 -263 363 -240 c 0,39,40
 372 -227 372 -227 375.5 -217 c 128,-1,41
 379 -207 379 -207 379 -194 c 2,42,-1
 375 371 l 1,43,-1
 203 371 l 1,44,-1
 203 425 l 1,45,-1
 608 425 l 1,46,-1
 596 371 l 1,47,-1
 445 371 l 1,48,-1
 446 -211 l 2,49,50
 446 -238 446 -238 412.5 -271 c 128,-1,51
 379 -304 379 -304 330 -324 c 1,52,-1
 278 -338 l 1,53,-1
 229 -342 l 2,54,55
 182 -342 182 -342 142 -329 c 0,56,57
 118 -323 118 -323 94 -308 c 0,58,59
 76 -299 76 -299 57 -280 c 2,60,-1
 24 -242 l 1,61,-1
 20 -200 l 2,62,63
 19 -191 19 -191 19 -187 c 0,64,65
 19 -167 19 -167 28 -146 c 128,-1,66
 37 -125 37 -125 54 -108 c 2,67,-1
 72 -93 l 1,68,-1
 97 -89 l 2,69,70
 112 -89 112 -89 132 -94 c 0,71,72
 140 -95 140 -95 149 -115 c 2,73,-1
 166 -156 l 1,74,75
 176 -143 176 -143 185 -133 c 128,-1,76
 194 -123 194 -123 201 -117 c 0,77,78
 219 -102 219 -102 246 -102 c 0,79,80
 256 -102 256 -102 271 -132 c 128,-1,81
 286 -162 286 -162 286 -190 c 0,0,1
EndSplineSet
EndChar

StartChar: u11341
Encoding: 70465 70465 23
Width: 702
Flags: W
LayerCount: 2
Fore
SplineSet
402 226 m 1,0,-1
 426 211 l 1,1,-1
 450 204 l 1,2,3
 475 204 475 204 490 214.5 c 128,-1,4
 505 225 505 225 526 252 c 0,5,6
 535 266 535 266 547 303 c 2,7,-1
 559 347 l 1,8,-1
 434 348 l 1,9,-1
 410 296 l 2,10,11
 398 269 398 269 398 249 c 0,12,13
 398 235 398 235 402 226 c 1,0,-1
388 347 m 1,14,-1
 73 347 l 1,15,-1
 85 401 l 1,16,-1
 642 401 l 1,17,18
 636 375 636 375 630.5 352 c 128,-1,19
 625 329 625 329 617 307 c 0,20,21
 602 259 602 259 579 227 c 128,-1,22
 556 195 556 195 524 173 c 0,23,24
 492 153 492 153 458 153 c 0,25,26
 442 153 442 153 426 158 c 0,27,28
 387 170 387 170 374 183 c 2,29,-1
 354 210 l 2,30,31
 347 226 347 226 347 242 c 0,32,33
 347 273 347 273 367 313 c 1,34,-1
 388 347 l 1,14,-1
EndSplineSet
EndChar

StartChar: u11342
Encoding: 70466 70466 24
Width: 888
Flags: W
LayerCount: 2
Fore
SplineSet
398 232 m 1,0,1
 411 213 411 213 416.5 209 c 128,-1,2
 422 205 422 205 432 203 c 2,3,-1
 444 204 l 2,4,5
 462 204 462 204 476 212.5 c 128,-1,6
 490 221 490 221 524 261 c 0,7,8
 541 283 541 283 559 347 c 1,9,-1
 421 347 l 1,10,-1
 409 310 l 2,11,12
 396 263 396 263 396 246 c 2,13,-1
 398 232 l 1,0,1
768 366 m 1,14,15
 753 429 753 429 705 459 c 0,16,17
 664 484 664 484 610 484 c 0,18,19
 563 484 563 484 521.5 463 c 128,-1,20
 480 442 480 442 451 401 c 1,21,-1
 642 401 l 1,22,23
 621 308 621 308 576 240 c 0,24,25
 518 158 518 158 428 158 c 0,26,27
 407 158 407 158 378 178 c 0,28,29
 350 200 350 200 350 218 c 1,30,-1
 352 226 l 1,31,-1
 352 257 l 2,32,33
 352 274 352 274 357 289 c 0,34,35
 360 306 360 306 370 330 c 2,36,-1
 378 350 l 1,37,-1
 73 347 l 1,38,-1
 85 401 l 1,39,-1
 409 401 l 1,40,41
 443 456 443 456 499 489 c 128,-1,42
 555 522 555 522 645 522 c 0,43,44
 738 522 738 522 786 462 c 0,45,46
 816 423 816 423 816 360 c 0,47,48
 816 329 816 329 809 295 c 0,49,50
 797 234 797 234 764 174 c 0,51,52
 737 123 737 123 686 78 c 0,53,54
 582 -14 582 -14 432 -14 c 0,55,56
 294 -14 294 -14 241 72 c 0,57,58
 214 119 214 119 214 186 c 0,59,60
 214 198 214 198 214 209 c 128,-1,61
 214 220 214 220 216 233 c 0,62,63
 216 245 216 245 219.5 259 c 128,-1,64
 223 273 223 273 225 283 c 1,65,-1
 239 283 l 2,66,67
 256 283 256 283 262 281 c 0,68,69
 269 281 269 281 268 274 c 2,70,-1
 260 228 l 1,71,-1
 257 188 l 1,72,-1
 260 144 l 2,73,74
 263 129 263 129 276 112 c 0,75,76
 301 76 301 76 338.5 55 c 128,-1,77
 376 34 376 34 436 26 c 1,78,-1
 453 25 l 1,79,80
 545 25 545 25 637 105 c 0,81,82
 689 151 689 151 725 214 c 0,83,84
 746 252 746 252 757 289.5 c 128,-1,85
 768 327 768 327 768 366 c 1,14,15
EndSplineSet
EndChar

StartChar: uniE201
Encoding: 57857 57857 25
Width: 432
Flags: W
LayerCount: 2
Fore
SplineSet
160 -90 m 0,0,1
 155 -56 155 -56 128 -56 c 0,2,3
 111 -56 111 -56 98 -70.5 c 128,-1,4
 85 -85 85 -85 85 -101 c 0,5,6
 85 -110 85 -110 90 -118 c 0,7,8
 103 -140 103 -140 130 -136 c 0,9,10
 145 -133 145 -133 152.5 -121.5 c 128,-1,11
 160 -110 160 -110 160 -90 c 0,0,1
66 -134 m 2,12,13
 56 -122 56 -122 56 -104 c 0,14,15
 56 -93 56 -93 58 -87 c 2,16,-1
 62 -76 l 1,17,18
 62 -64 62 -64 70 -54 c 128,-1,19
 78 -44 78 -44 100 -28 c 0,20,21
 134 0 134 0 181 0 c 0,22,23
 218 0 218 0 239.5 -17 c 128,-1,24
 261 -34 261 -34 261 -68 c 2,25,-1
 258 -97 l 2,26,27
 249 -148 249 -148 187.5 -195.5 c 128,-1,28
 126 -243 126 -243 112 -268 c 1,29,-1
 110 -277 l 2,30,31
 110 -282 110 -282 125 -293 c 1,32,-1
 151 -299 l 1,33,-1
 192 -301 l 1,34,35
 236 -295 236 -295 278 -257 c 0,36,37
 326 -212 326 -212 341 -150 c 1,38,-1
 343 -125 l 2,39,40
 343 -99 343 -99 338 -80 c 0,41,42
 336 -63 336 -63 335 -58 c 128,-1,43
 334 -53 334 -53 330.5 -41.5 c 128,-1,44
 327 -30 327 -30 323 -15.5 c 128,-1,45
 319 -1 319 -1 313 10 c 2,46,-1
 280 70 l 1,47,-1
 257 112 l 1,48,-1
 237 151 l 1,49,-1
 191 232 l 1,50,-1
 112 368 l 1,51,-1
 81 428 l 1,52,-1
 129 442 l 1,53,-1
 289 162 l 1,54,-1
 323 100 l 1,55,-1
 370 14 l 1,56,-1
 392 -47 l 1,57,-1
 399 -76 l 1,58,-1
 406 -118 l 1,59,-1
 406 -153 l 1,60,-1
 402 -188 l 1,61,62
 387 -265 387 -265 314 -320 c 0,63,64
 265 -356 265 -356 179 -373 c 1,65,66
 104 -373 104 -373 63 -351 c 0,67,68
 33 -334 33 -334 33 -299 c 2,69,-1
 34 -284 l 1,70,-1
 40 -262 l 2,71,72
 46 -246 46 -246 56 -235 c 2,73,-1
 158 -164 l 2,74,75
 174 -152 174 -152 193 -119 c 0,76,77
 207 -91 207 -91 204 -76 c 0,78,79
 199 -66 199 -66 193 -61 c 0,80,81
 184 -52 184 -52 176 -49 c 1,82,83
 186 -62 186 -62 186 -83 c 2,84,-1
 185 -100 l 1,85,86
 179 -119 179 -119 157 -147 c 1,87,-1
 141 -154 l 1,88,-1
 120 -156 l 1,89,-1
 96 -156 l 1,90,-1
 79 -152 l 1,91,-1
 66 -134 l 2,12,13
EndSplineSet
Ligature2: "'pstf' Post Base Forms lookup 4-1" u1134D u1132F
EndChar

StartChar: uniE200
Encoding: 57856 57856 26
Width: 750
Flags: W
LayerCount: 2
Fore
SplineSet
603 -22 m 0,0,1
 589 5 589 5 558 5 c 0,2,3
 547 5 547 5 537 0 c 0,4,5
 510 -14 510 -14 510 -45 c 0,6,7
 510 -56 510 -56 515 -66 c 0,8,9
 527 -93 527 -93 559 -93 c 0,10,11
 570 -93 570 -93 582 -87 c 0,12,13
 608 -73 608 -73 608 -44 c 0,14,15
 608 -31 608 -31 603 -22 c 0,0,1
648 3 m 1,16,-1
 645 -45 l 2,17,18
 645 -67 645 -67 644 -76 c 128,-1,19
 643 -85 643 -85 636.5 -99.5 c 128,-1,20
 630 -114 630 -114 603 -132 c 0,21,22
 587 -143 587 -143 565 -143 c 0,23,24
 536 -143 536 -143 507 -125 c 0,25,26
 481 -107 481 -107 470 -83 c 0,27,28
 468 -77 468 -77 462.5 -58 c 128,-1,29
 457 -39 457 -39 457 -24 c 2,30,-1
 459 -6 l 1,31,-1
 66 -6 l 1,32,-1
 66 54 l 1,33,-1
 490 54 l 1,34,-1
 526 93 l 2,35,36
 569 137 569 137 575 168 c 2,37,-1
 580 221 l 2,38,39
 580 231 580 231 579 243.5 c 128,-1,40
 578 256 578 256 575 268 c 0,41,42
 572 294 572 294 561 321 c 0,43,44
 549 360 549 360 510 393 c 0,45,46
 492 408 492 408 438 441 c 1,47,-1
 471 486 l 1,48,-1
 549 424 l 2,49,50
 596 383 596 383 613.5 328.5 c 128,-1,51
 631 274 631 274 631 235 c 0,52,53
 631 202 631 202 625 167.5 c 128,-1,54
 619 133 619 133 598 103 c 2,55,-1
 558 57 l 1,56,57
 561 53 561 53 601 44 c 0,58,59
 639 37 639 37 648 3 c 1,16,-1
EndSplineSet
Ligature2: "Repha-1" u11330 u1134D
EndChar

StartChar: uniE10E
Encoding: 57614 57614 27
Width: 1210
Flags: W
LayerCount: 2
Fore
SplineSet
235 99 m 1,0,-1
 236 120 l 2,1,2
 236 149 236 149 225.5 170 c 128,-1,3
 215 191 215 191 190 201 c 1,4,-1
 169 205 l 1,5,6
 139 205 139 205 110.5 176.5 c 128,-1,7
 82 148 82 148 75 124 c 128,-1,8
 68 100 68 100 68 83 c 0,9,10
 68 40 68 40 103 15 c 0,11,12
 120 5 120 5 137 5 c 0,13,14
 171 5 171 5 200 33.5 c 128,-1,15
 229 62 229 62 235 99 c 1,0,-1
697 435 m 1,16,-1
 596 -31 l 1,17,-1
 248 -31 l 1,18,-1
 255 3 l 1,19,-1
 294 57 l 2,20,21
 336 118 336 118 355 162 c 2,22,-1
 404 269 l 2,23,24
 433 335 433 335 433 370 c 0,25,26
 433 395 433 395 423.5 412 c 128,-1,27
 414 429 414 429 391 444 c 0,28,29
 377 453 377 453 354.5 459.5 c 128,-1,30
 332 466 332 466 313 466 c 0,31,32
 273 466 273 466 237.5 447.5 c 128,-1,33
 202 429 202 429 178 396 c 2,34,-1
 121 325 l 2,35,36
 98 291 98 291 67 210 c 1,37,38
 72 206 72 206 88 216 c 0,39,40
 136 247 136 247 171 247 c 0,41,42
 180 247 180 247 189 247 c 0,43,44
 198 244 198 244 208 242 c 128,-1,45
 218 240 218 240 235.5 230.5 c 128,-1,46
 253 221 253 221 264 197 c 0,47,48
 274 170 274 170 274 141 c 0,49,50
 274 106 274 106 266 78 c 128,-1,51
 258 50 258 50 244 33 c 0,52,53
 190 -35 190 -35 135 -35 c 0,54,55
 104 -35 104 -35 73 -15 c 0,56,57
 44 2 44 2 29 28 c 0,58,59
 16 54 16 54 16 93 c 2,60,-1
 15 130 l 1,61,-1
 15 167 l 2,62,63
 15 216 15 216 28.5 259.5 c 128,-1,64
 42 303 42 303 91 381 c 0,65,66
 106 406 106 406 142 440 c 0,67,68
 188 481 188 481 232 495 c 1,69,-1
 274 504 l 2,70,71
 299 508 299 508 308.5 508.5 c 128,-1,72
 318 509 318 509 324 509 c 0,73,74
 346 509 346 509 356 508 c 128,-1,75
 366 507 366 507 385 501 c 0,76,77
 414 494 414 494 438.5 475 c 128,-1,78
 463 456 463 456 475 432.5 c 128,-1,79
 487 409 487 409 487 383 c 0,80,81
 487 345 487 345 459 273 c 2,82,-1
 433 204 l 1,83,84
 418 151 418 151 372 78 c 2,85,-1
 329 13 l 1,86,-1
 554 13 l 1,87,-1
 578 130 l 1,88,-1
 624 343 l 2,89,90
 649 456 649 456 658 462 c 1,91,92
 664 476 664 476 671 483 c 0,93,94
 693 505 693 505 725 505 c 2,95,-1
 752 503 l 1,96,-1
 801 499 l 2,97,98
 831 494 831 494 862 465 c 1,99,100
 902 502 902 502 958 502 c 0,101,102
 976 502 976 502 983 500 c 2,103,-1
 997 498 l 2,104,105
 1030 492 1030 492 1043.5 469 c 128,-1,106
 1057 446 1057 446 1057 408 c 0,107,108
 1057 388 1057 388 1051 343 c 2,109,-1
 1042 273 l 2,110,111
 1029 169 1029 169 989 67 c 128,-1,112
 949 -35 949 -35 913 -74 c 1,113,-1
 842 -84 l 2,114,115
 810 -89 810 -89 776 -94.5 c 128,-1,116
 742 -100 742 -100 728 -103 c 2,117,-1
 649 -119 l 2,118,119
 574 -133 574 -133 559 -138 c 0,120,121
 540 -141 540 -141 523 -149 c 128,-1,122
 506 -157 506 -157 486 -173 c 0,123,124
 456 -195 456 -195 451 -222 c 0,125,126
 447 -261 447 -261 502 -280 c 0,127,128
 547 -294 547 -294 619 -294 c 0,129,130
 703 -294 703 -294 733 -236 c 1,131,132
 750 -170 750 -170 760 -144 c 1,133,-1
 853 -143 l 1,134,135
 847 -172 847 -172 839 -187 c 0,136,137
 797 -288 797 -288 715 -333 c 0,138,139
 665 -358 665 -358 614 -358 c 0,140,141
 581 -358 581 -358 545 -352 c 2,142,-1
 496 -342 l 2,143,144
 454 -335 454 -335 421 -308 c 128,-1,145
 388 -281 388 -281 388 -243 c 0,146,147
 388 -178 388 -178 436 -142 c 0,148,149
 468 -119 468 -119 562 -90 c 0,150,151
 585 -84 585 -84 755 -54 c 0,152,153
 876 -33 876 -33 889 -8 c 0,154,155
 919 57 919 57 942 130 c 0,156,157
 952 163 952 163 976 268 c 1,158,-1
 986 322 l 1,159,-1
 991 377 l 2,160,161
 991 406 991 406 983 422 c 0,162,163
 977 439 977 439 958 439 c 0,164,165
 933 439 933 439 909 414 c 1,166,-1
 891 388 l 1,167,-1
 784 39 l 1,168,-1
 724 42 l 1,169,-1
 811 393 l 1,170,-1
 812 405 l 2,171,172
 812 428 812 428 795 439 c 0,173,174
 780 451 780 451 755 451 c 0,175,176
 723 451 723 451 697 435 c 1,16,-1
EndSplineSet
Ligature2: "'akhn' Akhand lookup 0-1" u11339 u1134D u1132E
EndChar

StartChar: u11302
Encoding: 70402 70402 28
Width: 492
Flags: W
LayerCount: 2
Fore
SplineSet
391 212 m 2,0,1
 373 130 373 130 315.5 79.5 c 128,-1,2
 258 29 258 29 178 29 c 0,3,4
 112 29 112 29 72.5 70.5 c 128,-1,5
 33 112 33 112 33 176 c 0,6,7
 33 201 33 201 37 216 c 0,8,9
 52 290 52 290 112.5 336.5 c 128,-1,10
 173 383 173 383 245 383 c 0,11,12
 300 383 300 383 344 349 c 0,13,14
 395 310 395 310 395 246 c 2,15,-1
 395 230 l 1,16,-1
 391 212 l 2,0,1
313 217 m 1,17,-1
 315 236 l 2,18,19
 315 264 315 264 285 294 c 1,20,21
 254 316 254 316 220 316 c 0,22,23
 179 316 179 316 136 289.5 c 128,-1,24
 93 263 93 263 81 212 c 1,25,-1
 79 199 l 1,26,-1
 79 189 l 2,27,28
 79 156 79 156 106 126 c 0,29,30
 134 98 134 98 178 98 c 0,31,32
 225 98 225 98 259 128.5 c 128,-1,33
 293 159 293 159 313 217 c 1,17,-1
EndSplineSet
EndChar

StartChar: uniE401
Encoding: 58369 58369 29
Width: 810
Flags: W
LayerCount: 2
Fore
SplineSet
314 -159 m 0,0,1
 340 -141 340 -141 360 -109 c 1,2,3
 336 -106 336 -106 294 -106 c 2,4,-1
 260 -106 l 2,5,6
 239 -106 239 -106 227 -108 c 0,7,8
 203 -108 203 -108 162 -117 c 128,-1,9
 121 -126 121 -126 121 -155 c 0,10,11
 121 -164 121 -164 162 -187 c 1,12,-1
 177 -192 l 1,13,14
 183 -204 183 -204 201 -204 c 0,15,16
 225 -204 225 -204 261.5 -188 c 128,-1,17
 298 -172 298 -172 314 -159 c 0,0,1
450 102 m 1,18,-1
 445 123 l 2,19,20
 439 149 439 149 431 159 c 0,21,22
 414 186 414 186 384 189 c 0,23,24
 359 189 359 189 350 184 c 0,25,26
 341 181 341 181 338 168 c 2,27,-1
 296 -22 l 1,28,-1
 227 -22 l 1,29,-1
 297 338 l 1,30,-1
 166 338 l 1,31,-1
 88 -22 l 1,32,-1
 43 -22 l 1,33,-1
 130 391 l 1,34,-1
 530 391 l 1,35,-1
 519 338 l 1,36,-1
 365 338 l 1,37,-1
 346 238 l 1,38,-1
 366 243 l 1,39,-1
 389 244 l 2,40,41
 450 244 450 244 486.5 195.5 c 128,-1,42
 523 147 523 147 523 72 c 0,43,44
 523 53 523 53 519.5 38 c 128,-1,45
 516 23 516 23 503 3 c 0,46,47
 498 -10 498 -10 464 -59 c 1,48,49
 549 -50 549 -50 618 22 c 0,50,51
 631 38 631 38 646 59 c 0,52,53
 658 76 658 76 668 94 c 0,54,55
 690 138 690 138 690 174 c 0,56,57
 690 208 690 208 680 269 c 0,58,59
 675 302 675 302 670.5 320.5 c 128,-1,60
 666 339 666 339 660 348 c 0,61,62
 648 369 648 369 615 402.5 c 128,-1,63
 582 436 582 436 556 450 c 1,64,-1
 575 496 l 1,65,66
 610 484 610 484 649 452 c 0,67,68
 687 423 687 423 708 390 c 0,69,70
 724 367 724 367 735.5 286 c 128,-1,71
 747 205 747 205 747 164 c 0,72,73
 747 59 747 59 665 -24 c 0,74,75
 574 -112 574 -112 426 -112 c 1,76,77
 366 -190 366 -190 348 -208 c 0,78,79
 296 -254 296 -254 226 -254 c 0,80,81
 126 -254 126 -254 90 -222 c 0,82,83
 64 -201 64 -201 64 -156 c 0,84,85
 64 -99 64 -99 152 -74 c 1,86,-1
 218 -63 l 1,87,-1
 306 -59 l 1,88,89
 397 -59 397 -59 406 -53 c 1,90,-1
 428 -8 l 1,91,-1
 439 30 l 1,92,-1
 450 102 l 1,18,-1
EndSplineSet
EndChar

StartChar: uni0951
Encoding: 2385 2385 30
Width: 6
Flags: W
LayerCount: 2
Fore
SplineSet
-484 592 m 1,0,-1
 -486 1190 l 1,1,-1
 -416 1190 l 1,2,-1
 -418 592 l 1,3,-1
 -484 592 l 1,0,-1
EndSplineSet
EndChar

StartChar: uniE110
Encoding: 57616 57616 31
Width: 1341
Flags: W
LayerCount: 2
Fore
SplineSet
1266 365 m 1,0,-1
 1177 365 l 1,1,-1
 1093 24 l 2,2,3
 1066 -88 1066 -88 959 -156 c 0,4,5
 881 -205 881 -205 734 -238 c 1,6,-1
 622 -253 l 1,7,-1
 554 -255 l 1,8,-1
 501 -258 l 1,9,10
 206 -258 206 -258 38 -91 c 1,11,-1
 107 -75 l 1,12,13
 167 -132 167 -132 238 -160 c 0,14,15
 285 -177 285 -177 351 -187 c 2,16,-1
 419 -194 l 1,17,-1
 495 -197 l 1,18,19
 607 -197 607 -197 663 -186 c 0,20,21
 730 -177 730 -177 799 -150 c 0,22,23
 958 -90 958 -90 989 38 c 2,24,-1
 1065 361 l 1,25,-1
 940 361 l 2,26,27
 898 361 898 361 853 346 c 1,28,-1
 828 335 l 1,29,30
 876 293 876 293 901.5 237.5 c 128,-1,31
 927 182 927 182 927 131 c 0,32,33
 927 64 927 64 886 22 c 128,-1,34
 845 -20 845 -20 762 -20 c 0,35,36
 711 -20 711 -20 683 15 c 0,37,38
 657 50 657 50 657 100 c 2,39,-1
 659 125 l 1,40,41
 668 172 668 172 695 233.5 c 128,-1,42
 722 295 722 295 757 324 c 1,43,44
 751 336 751 336 731 350 c 1,45,-1
 713 357 l 1,46,-1
 693 360 l 2,47,48
 668 360 668 360 651 347.5 c 128,-1,49
 634 335 634 335 634 308 c 1,50,-1
 560 -12 l 1,51,-1
 37 -12 l 1,52,-1
 129 415 l 1,53,-1
 199 412 l 1,54,-1
 120 53 l 1,55,-1
 509 53 l 1,56,-1
 560 293 l 2,57,58
 571 350 571 350 587 374 c 0,59,60
 615 414 615 414 676 414 c 0,61,62
 715 414 715 414 744 401.5 c 128,-1,63
 773 389 773 389 801 361 c 1,64,65
 822 382 822 382 869.5 397 c 128,-1,66
 917 412 917 412 974 412 c 2,67,-1
 1262 412 l 1,68,-1
 1266 365 l 1,0,-1
845 120 m 0,69,70
 851 141 851 141 851 160 c 0,71,72
 851 197 851 197 832 232 c 0,73,74
 824 247 824 247 813.5 260 c 128,-1,75
 803 273 803 273 788 287 c 1,76,77
 761 263 761 263 736 210 c 0,78,79
 723 181 723 181 710 136 c 1,80,-1
 707 103 l 1,81,-1
 707 92 l 2,82,83
 707 65 707 65 720 52 c 128,-1,84
 733 39 733 39 767 39 c 0,85,86
 788 39 788 39 809 57 c 128,-1,87
 830 75 830 75 845 120 c 0,69,70
EndSplineSet
Ligature2: "'vatu' Vattu Variants lookup 8-1" u11336 uniE202
EndChar

StartChar: u11319
Encoding: 70425 70425 32
Width: 840
Flags: W
LayerCount: 2
Fore
SplineSet
207 328 m 0,0,1
 195 328 195 328 183 313 c 0,2,3
 174 297 174 297 173 281 c 0,4,5
 173 241 173 241 203 241 c 0,6,7
 211 241 211 241 228 256 c 1,8,9
 237 271 237 271 237 288 c 0,10,11
 237 304 237 304 229 316 c 128,-1,12
 221 328 221 328 207 328 c 0,0,1
169 44 m 2,13,14
 178 41 178 41 196 41 c 2,15,-1
 774 36 l 1,16,-1
 762 -12 l 1,17,-1
 549 -14 l 1,18,-1
 501 -196 l 1,19,-1
 425 -196 l 1,20,-1
 476 -14 l 1,21,-1
 184 -14 l 2,22,23
 149 -14 149 -14 116 4 c 1,24,25
 92 22 92 22 92 57 c 0,26,27
 92 120 92 120 137 147 c 128,-1,28
 182 174 182 174 324 174 c 2,29,-1
 343 174 l 1,30,-1
 359 174 l 1,31,-1
 373 174 l 1,32,-1
 385 174 l 2,33,34
 405 174 405 174 424 175 c 128,-1,35
 443 176 443 176 461 179 c 0,36,37
 489 179 489 179 512.5 183.5 c 128,-1,38
 536 188 536 188 558 196 c 0,39,40
 596 208 596 208 601 212 c 0,41,42
 613 220 613 220 633 267 c 1,43,44
 633 305 633 305 624 331.5 c 128,-1,45
 615 358 615 358 599 370 c 128,-1,46
 583 382 583 382 558 388 c 128,-1,47
 533 394 533 394 510 394 c 0,48,49
 495 394 495 394 477 385 c 2,50,-1
 454 373 l 2,51,52
 435 364 435 364 419 338 c 1,53,-1
 390 206 l 1,54,-1
 325 214 l 1,55,-1
 353 341 l 1,56,57
 338 373 338 373 314 386 c 2,58,-1
 273 406 l 2,59,60
 241 418 241 418 210 418 c 0,61,62
 186 418 186 418 162 404 c 2,63,-1
 124 376 l 2,64,65
 92 349 92 349 92 311 c 0,66,67
 92 290 92 290 98 272 c 0,68,69
 101 266 101 266 112.5 258 c 128,-1,70
 124 250 124 250 130 250 c 1,71,72
 130 268 130 268 130 283.5 c 128,-1,73
 130 299 130 299 132 311 c 0,74,75
 132 327 132 327 144 344 c 0,76,77
 165 373 165 373 209 373 c 0,78,79
 248 373 248 373 268 363.5 c 128,-1,80
 288 354 288 354 292 332 c 2,81,-1
 297 298 l 2,82,83
 297 273 297 273 288 255 c 128,-1,84
 279 237 279 237 260 218 c 0,85,86
 249 207 249 207 222 197 c 128,-1,87
 195 187 195 187 172 187 c 0,88,89
 112 187 112 187 79 214 c 0,90,91
 43 244 43 244 43 313 c 0,92,93
 43 379 43 379 96 422 c 2,94,-1
 121 442 l 1,95,-1
 143 453 l 2,96,97
 155 458 155 458 173 460 c 2,98,-1
 210 466 l 2,99,100
 222 466 222 466 237 465.5 c 128,-1,101
 252 465 252 465 273 458 c 0,102,103
 299 451 299 451 331 434 c 0,104,105
 358 422 358 422 388 389 c 1,106,107
 396 396 396 396 410.5 406 c 128,-1,108
 425 416 425 416 439 424 c 0,109,110
 471 442 471 442 506 442 c 0,111,112
 568 442 568 442 606 426 c 0,113,114
 623 420 623 420 639 405 c 0,115,116
 665 381 665 381 679 352.5 c 128,-1,117
 693 324 693 324 693 288 c 1,118,-1
 684 252 l 2,119,120
 678 220 678 220 666.5 201.5 c 128,-1,121
 655 183 655 183 629 162 c 0,122,123
 617 153 617 153 576 144 c 2,124,-1
 508 132 l 1,125,-1
 414 122 l 1,126,-1
 334 120 l 1,127,-1
 280 118 l 1,128,-1
 186 106 l 1,129,-1
 166 86 l 2,130,131
 158 76 158 76 156 65 c 0,132,133
 156 55 156 55 160 50 c 2,134,-1
 169 44 l 2,13,14
EndSplineSet
EndChar

StartChar: uniE111
Encoding: 57617 57617 33
Width: 1235
Flags: W
LayerCount: 2
Fore
SplineSet
1143 270 m 1,0,-1
 1149 244 l 1,1,-1
 1151 216 l 1,2,3
 1151 126 1151 126 1080 58 c 0,4,5
 1003 -14 1003 -14 885 -14 c 0,6,7
 813 -14 813 -14 773 41 c 1,8,9
 762 23 762 23 709 0 c 1,10,11
 656 -14 656 -14 606 -14 c 0,12,13
 558 -14 558 -14 516 7 c 0,14,15
 503 13 503 13 475 40 c 1,16,17
 461 60 461 60 461 87 c 2,18,-1
 462 104 l 1,19,-1
 464 118 l 1,20,-1
 464 130 l 2,21,22
 464 189 464 189 400 199 c 1,23,-1
 383 198 l 2,24,25
 373 198 373 198 364 194.5 c 128,-1,26
 355 191 355 191 349 178 c 2,27,-1
 310 -14 l 1,28,-1
 238 -14 l 1,29,-1
 311 347 l 1,30,-1
 179 347 l 1,31,-1
 117 -14 l 1,32,-1
 44 -14 l 1,33,-1
 114 412 l 1,34,-1
 541 412 l 1,35,-1
 532 347 l 1,36,-1
 380 347 l 1,37,-1
 360 246 l 1,38,-1
 380 251 l 1,39,-1
 401 254 l 1,40,41
 470 254 470 254 508.5 223.5 c 128,-1,42
 547 193 547 193 547 138 c 2,43,-1
 547 126 l 1,44,-1
 544 113 l 1,45,-1
 544 101 l 2,46,47
 544 75 544 75 566 59 c 1,48,-1
 608 43 l 1,49,50
 662 43 662 43 701 61 c 128,-1,51
 740 79 740 79 749 118 c 1,52,53
 749 146 749 146 755.5 171 c 128,-1,54
 762 196 762 196 781 229 c 0,55,56
 793 247 793 247 793 279 c 0,57,58
 793 316 793 316 776 340 c 0,59,60
 756 369 756 369 726 369 c 1,61,-1
 709 375 l 1,62,-1
 701 392 l 1,63,-1
 704 398 l 1,64,-1
 710 408 l 2,65,66
 719 420 719 420 736 420 c 0,67,68
 808 420 808 420 848 377 c 0,69,70
 883 339 883 339 883 283 c 0,71,72
 883 250 883 250 870 224 c 2,73,-1
 854 193 l 1,74,-1
 840 154 l 1,75,-1
 834 129 l 1,76,-1
 832 107 l 1,77,78
 832 53 832 53 887 43 c 1,79,80
 965 43 965 43 1028 94 c 128,-1,81
 1091 145 1091 145 1091 212 c 2,82,-1
 1091 224 l 1,83,-1
 1089 236 l 2,84,85
 1077 296 1077 296 1043 336 c 0,86,87
 1019 363 1019 363 987.5 369 c 128,-1,88
 956 375 956 375 956 394 c 0,89,90
 956 411 956 411 982 418 c 2,91,-1
 993 422 l 2,92,93
 1002 422 1002 422 1049 398 c 1,94,95
 1115 356 1115 356 1143 270 c 1,0,-1
EndSplineSet
Ligature2: "'akhn' Akhand lookup 0-1" u11328 u1134D u11327
EndChar

StartChar: u11320
Encoding: 70432 70432 34
Width: 510
Flags: W
LayerCount: 2
Fore
SplineSet
477 207 m 0,0,1
 477 114 477 114 416 48 c 128,-1,2
 355 -18 355 -18 264 -18 c 0,3,4
 172 -18 172 -18 105.5 43.5 c 128,-1,5
 39 105 39 105 39 195 c 0,6,7
 39 286 39 286 100.5 353 c 128,-1,8
 162 420 162 420 252 420 c 0,9,10
 344 420 344 420 410.5 358.5 c 128,-1,11
 477 297 477 297 477 207 c 0,0,1
411 219 m 2,12,13
 402 273 402 273 359.5 308.5 c 128,-1,14
 317 344 317 344 264 344 c 2,15,-1
 252 344 l 1,16,-1
 240 342 l 2,17,18
 186 333 186 333 150.5 290.5 c 128,-1,19
 115 248 115 248 115 195 c 2,20,-1
 115 183 l 1,21,-1
 117 171 l 2,22,23
 126 117 126 117 168.5 81.5 c 128,-1,24
 211 46 211 46 264 46 c 2,25,-1
 276 46 l 1,26,-1
 288 48 l 2,27,28
 342 57 342 57 377.5 99.5 c 128,-1,29
 413 142 413 142 413 195 c 2,30,-1
 413 207 l 1,31,-1
 411 219 l 2,12,13
EndSplineSet
EndChar

StartChar: uniE100
Encoding: 57600 57600 35
Width: 854
Flags: W
LayerCount: 2
Fore
SplineSet
435 261 m 1,0,-1
 431 226 l 1,1,-1
 407 227 l 1,2,3
 407 265 407 265 366 306 c 0,4,5
 313 359 313 359 231 359 c 0,6,7
 135 359 135 359 89 322 c 128,-1,8
 43 285 43 285 43 213 c 0,9,10
 43 168 43 168 65 134 c 1,11,-1
 63 158 l 2,12,13
 63 206 63 206 96 242 c 128,-1,14
 129 278 129 278 183 278 c 0,15,16
 219 278 219 278 243 254 c 128,-1,17
 267 230 267 230 267 186 c 0,18,19
 267 128 267 128 222 86 c 1,20,21
 185 58 185 58 138 58 c 0,22,23
 66 58 66 58 30 112 c 0,24,25
 1 155 1 155 1 213 c 0,26,27
 1 316 1 316 80 371 c 1,28,29
 135 403 135 403 231 403 c 0,30,31
 316 403 316 403 382 352 c 0,32,33
 417 322 417 322 435 261 c 1,0,-1
612 357 m 1,34,-1
 478 357 l 1,35,-1
 454 239 l 1,36,-1
 591 239 l 1,37,-1
 612 357 l 1,34,-1
576 187 m 1,38,-1
 423 187 l 2,39,40
 364 187 364 187 339 162 c 0,41,42
 320 143 320 143 320 105 c 0,43,44
 320 75 320 75 348 59 c 0,45,46
 376 45 376 45 427 45 c 0,47,48
 493 45 493 45 531 82 c 0,49,50
 561 112 561 112 576 187 c 1,38,-1
214 187 m 0,51,52
 214 199 214 199 202 214 c 128,-1,53
 190 229 190 229 177 232 c 0,54,55
 148 237 148 237 125.5 215 c 128,-1,56
 103 193 103 193 103 168 c 0,57,58
 103 150 103 150 112 129 c 0,59,60
 122 110 122 110 142 110 c 0,61,62
 167 110 167 110 184 124 c 0,63,64
 214 145 214 145 214 187 c 0,51,52
390 -114 m 1,65,-1
 290 -115 l 1,66,-1
 48 -120 l 2,67,68
 -1 -120 -1 -120 -19.5 -110.5 c 128,-1,69
 -38 -101 -38 -101 -39 -85 c 0,70,71
 -39 -73 -39 -73 -31 -62 c 2,72,-1
 -18 -48 l 1,73,74
 2 -45 2 -45 42 -45 c 0,75,76
 63 -45 63 -45 119 -47.5 c 128,-1,77
 175 -50 175 -50 199 -50 c 2,78,-1
 306 -54 l 1,79,-1
 348 -54 l 2,80,81
 393 -54 393 -54 441.5 -52.5 c 128,-1,82
 490 -51 490 -51 545 -50 c 0,83,84
 600 -50 600 -50 635.5 -42.5 c 128,-1,85
 671 -35 671 -35 685 -23 c 0,86,87
 707 -5 707 -5 731 39 c 128,-1,88
 755 83 755 83 755 124 c 0,89,90
 755 141 755 141 737 167 c 1,91,92
 712 189 712 189 664 189 c 2,93,-1
 642 188 l 1,94,-1
 630 143 l 1,95,96
 600 47 600 47 557.5 16.5 c 128,-1,97
 515 -14 515 -14 447 -14 c 0,98,99
 343 -14 343 -14 305 23 c 0,100,101
 273 53 273 53 273 115 c 0,102,103
 273 172 273 172 313 205.5 c 128,-1,104
 353 239 353 239 409 239 c 1,105,-1
 441 410 l 1,106,-1
 845 410 l 1,107,-1
 832 357 l 1,108,-1
 683 357 l 1,109,-1
 659 241 l 1,110,111
 755 241 755 241 805 205 c 1,112,113
 840 173 840 173 840 113 c 0,114,115
 840 57 840 57 787 -21 c 0,116,117
 739 -93 739 -93 720 -90 c 1,118,-1
 390 -114 l 1,65,-1
EndSplineSet
Ligature2: "'akhn' Akhand lookup 0-1" u11328 u1134D u11324
EndChar

StartChar: uniE101
Encoding: 57601 57601 36
Width: 906
Flags: W
LayerCount: 2
Fore
SplineSet
490 187 m 1,0,-1
 444 175 l 1,1,2
 444 286 444 286 392 329 c 0,3,4
 348 365 348 365 259 365 c 0,5,6
 167 365 167 365 120 328 c 0,7,8
 62 282 62 282 62 174 c 0,9,10
 62 120 62 120 96.5 71.5 c 128,-1,11
 131 23 131 23 181 23 c 1,12,13
 170 54 170 54 170 83 c 0,14,15
 170 131 170 131 196 166 c 0,16,17
 224 200 224 200 277 200 c 0,18,19
 311 200 311 200 338 172.5 c 128,-1,20
 365 145 365 145 365 111 c 0,21,22
 365 62 365 62 324.5 24 c 128,-1,23
 284 -14 284 -14 208 -14 c 0,24,25
 116 -14 116 -14 58 48 c 0,26,27
 7 102 7 102 7 170 c 0,28,29
 7 275 7 275 62 340 c 0,30,31
 127 414 127 414 259 414 c 0,32,33
 406 414 406 414 459 337 c 1,34,35
 490 281 490 281 490 187 c 1,0,-1
296 107 m 0,36,37
 296 127 296 127 286.5 140.5 c 128,-1,38
 277 154 277 154 257 154 c 0,39,40
 241 154 241 154 219 132 c 1,41,-1
 211 110 l 1,42,-1
 208 98 l 1,43,-1
 206 83 l 1,44,45
 206 51 206 51 222 29 c 1,46,47
 255 32 255 32 272.5 49 c 128,-1,48
 290 66 290 66 296 107 c 0,36,37
-30 -66 m 1,49,-1
 105 -52 l 1,50,-1
 349 -49 l 1,51,-1
 453 -49 l 1,52,-1
 619 -49 l 2,53,54
 690 -49 690 -49 739 -16 c 128,-1,55
 788 17 788 17 806 84 c 1,56,-1
 808 109 l 2,57,58
 808 145 808 145 790 169 c 128,-1,59
 772 193 772 193 742 199 c 1,60,61
 717 199 717 199 708 194 c 0,62,63
 699 191 699 191 695 178 c 2,64,-1
 652 -14 l 1,65,-1
 584 -14 l 1,66,-1
 652 347 l 1,67,-1
 525 347 l 1,68,-1
 445 -14 l 1,69,-1
 400 -14 l 1,70,-1
 487 401 l 1,71,-1
 886 401 l 1,72,-1
 877 347 l 1,73,-1
 722 347 l 1,74,-1
 703 246 l 1,75,-1
 724 251 l 1,76,-1
 744 254 l 1,77,78
 801 254 801 254 846.5 208.5 c 128,-1,79
 892 163 892 163 892 103 c 1,80,-1
 890 78 l 1,81,82
 875 -7 875 -7 794 -58 c 1,83,84
 725 -94 725 -94 603 -94 c 2,85,-1
 180 -90 l 2,86,87
 174 -91 174 -91 162.5 -93.5 c 128,-1,88
 151 -96 151 -96 140 -98 c 0,89,90
 104 -104 104 -104 67 -104 c 0,91,92
 23 -104 23 -104 -1 -96.5 c 128,-1,93
 -25 -89 -25 -89 -30 -66 c 1,49,-1
EndSplineSet
Ligature2: "'akhn' Akhand lookup 0-1" u11328 u1134D u11328
EndChar

StartChar: u11324
Encoding: 70436 70436 37
Width: 790
Flags: W
LayerCount: 2
Fore
SplineSet
432 347 m 1,0,-1
 297 347 l 1,1,-1
 274 231 l 1,2,-1
 411 231 l 1,3,-1
 432 347 l 1,0,-1
397 177 m 1,4,-1
 246 177 l 2,5,6
 183 177 183 177 159 153 c 0,7,8
 140 134 140 134 140 96 c 0,9,10
 140 73 140 73 168 49 c 1,11,12
 199 35 199 35 246 35 c 0,13,14
 315 35 315 35 351 72 c 0,15,16
 373 95 373 95 397 177 c 1,4,-1
-52 -144 m 1,17,-1
 -76 -145 l 1,18,-1
 -98 -146 l 2,19,20
 -116 -146 -116 -146 -127 -140 c 0,21,22
 -135 -134 -135 -134 -140 -116 c 1,23,24
 -140 -92 -140 -92 -126 -82.5 c 128,-1,25
 -112 -73 -112 -73 -90 -73 c 2,26,-1
 -71 -74 l 1,27,-1
 -50 -76 l 1,28,-1
 -3 -79 l 1,29,-1
 70 -80 l 1,30,-1
 169 -79 l 1,31,-1
 255 -78 l 2,32,33
 311 -78 311 -78 376 -68.5 c 128,-1,34
 441 -59 441 -59 466 -45 c 2,35,-1
 518 -20 l 2,36,37
 536 -9 536 -9 552 13.5 c 128,-1,38
 568 36 568 36 571.5 51.5 c 128,-1,39
 575 67 575 67 575 114 c 0,40,41
 575 131 575 131 557 157 c 1,42,43
 532 179 532 179 485 179 c 2,44,-1
 464 178 l 1,45,46
 429 74 429 74 403 39 c 0,47,48
 356 -24 356 -24 267 -24 c 0,49,50
 189 -24 189 -24 147 0 c 0,51,52
 94 32 94 32 94 110 c 0,53,54
 94 115 94 115 106 145 c 128,-1,55
 118 175 118 175 144 195 c 0,56,57
 156 204 156 204 180 213 c 2,58,-1
 230 231 l 1,59,-1
 259 401 l 1,60,-1
 666 401 l 1,61,-1
 652 347 l 1,62,-1
 504 347 l 1,63,-1
 479 231 l 1,64,65
 575 231 575 231 625 195 c 0,66,67
 660 165 660 165 660 104 c 0,68,69
 660 5 660 5 604 -48 c 0,70,71
 575 -74 575 -74 542 -93 c 0,72,73
 487 -125 487 -125 429 -138 c 1,74,-1
 -52 -144 l 1,17,-1
EndSplineSet
EndChar

StartChar: u1130A
Encoding: 70410 70410 38
Width: 1482
Flags: W
LayerCount: 2
Fore
SplineSet
1405 43 m 1,0,-1
 1394 -14 l 1,1,-1
 1134 -14 l 1,2,-1
 136 -14 l 2,3,4
 104 -14 104 -14 79 0.5 c 128,-1,5
 54 15 54 15 42 57 c 1,6,7
 42 94 42 94 66 118 c 0,8,9
 78 133 78 133 129 139 c 128,-1,10
 180 145 180 145 291 145 c 0,11,12
 360 145 360 145 412 175 c 128,-1,13
 464 205 464 205 464 244 c 0,14,15
 464 294 464 294 418.5 327 c 128,-1,16
 373 360 373 360 314 360 c 2,17,-1
 295 360 l 1,18,-1
 273 356 l 1,19,20
 314 317 314 317 314 263 c 0,21,22
 314 220 314 220 288 194 c 0,23,24
 257 163 257 163 205 163 c 2,25,-1
 188 164 l 2,26,27
 161 164 161 164 138 187 c 0,28,29
 108 216 108 216 108 268 c 0,30,31
 108 333 108 333 169 378 c 0,32,33
 183 386 183 386 195 391 c 128,-1,34
 207 396 207 396 233 404 c 2,35,-1
 312 420 l 1,36,-1
 330 421 l 2,37,38
 362 421 362 421 406 406 c 0,39,40
 440 394 440 394 471 375 c 0,41,42
 545 333 545 333 545 254 c 0,43,44
 545 152 545 152 426 113 c 0,45,46
 392 103 392 103 308 91 c 1,47,-1
 227 86 l 1,48,-1
 128 84 l 2,49,50
 117 84 117 84 112 79 c 128,-1,51
 107 74 107 74 107 57 c 0,52,53
 107 48 107 48 118 45 c 2,54,-1
 152 43 l 1,55,-1
 392 43 l 1,56,-1
 1405 43 l 1,0,-1
802 196 m 0,57,58
 802 208 802 208 790 226 c 0,59,60
 781 244 781 244 767 248 c 0,61,62
 737 253 737 253 712 228 c 0,63,64
 689 203 689 203 689 175 c 0,65,66
 689 151 689 151 698 130.5 c 128,-1,67
 707 110 707 110 726 110 c 0,68,69
 752 110 752 110 772 126 c 0,70,71
 802 150 802 150 802 196 c 0,57,58
239 266 m 0,72,73
 239 284 239 284 233 302 c 128,-1,74
 227 320 227 320 210 324 c 1,75,76
 186 324 186 324 168 303 c 0,77,78
 152 281 152 281 152 257 c 0,79,80
 152 215 152 215 193 215 c 0,81,82
 204 215 204 215 221.5 230 c 128,-1,83
 239 245 239 245 239 266 c 0,72,73
1240 48 m 1,84,-1
 1201 48 l 2,85,86
 1179 48 1179 48 1168 52 c 1,87,-1
 1228 368 l 1,88,-1
 1027 369 l 1,89,-1
 1009 281 l 1,90,-1
 960 56 l 1,91,-1
 896 56 l 1,92,-1
 937 238 l 1,93,-1
 938 250 l 2,94,95
 938 286 938 286 908 336 c 1,96,97
 872 386 872 386 810 386 c 0,98,99
 724 386 724 386 675.5 340.5 c 128,-1,100
 627 295 627 295 627 227 c 0,101,102
 627 167 627 167 653 132 c 1,103,-1
 650 163 l 1,104,105
 650 216 650 216 681.5 254.5 c 128,-1,106
 713 293 713 293 771 293 c 0,107,108
 807 293 807 293 833 267 c 0,109,110
 859 243 859 243 859 195 c 0,111,112
 859 133 859 133 811 86 c 1,113,-1
 788 71 l 1,114,-1
 775 63 l 1,115,116
 750 56 750 56 736 56 c 0,117,118
 714 56 714 56 698 59 c 128,-1,119
 682 62 682 62 665 70 c 0,120,121
 638 84 638 84 615 115 c 0,122,123
 585 162 585 162 585 227 c 0,124,125
 585 304 585 304 658 373 c 1,126,127
 728 429 728 429 814 429 c 0,128,129
 857 429 857 429 894 412 c 0,130,131
 930 397 930 397 957 361 c 1,132,-1
 976 428 l 1,133,-1
 1392 428 l 1,134,-1
 1376 368 l 1,135,-1
 1296 368 l 1,136,-1
 1240 48 l 1,84,-1
EndSplineSet
EndChar

StartChar: u11326
Encoding: 70438 70438 39
Width: 744
Flags: W
LayerCount: 2
Fore
SplineSet
256 251 m 0,0,1
 256 269 256 269 250 287 c 128,-1,2
 244 305 244 305 227 309 c 1,3,4
 203 309 203 309 185 288 c 0,5,6
 169 266 169 266 169 242 c 0,7,8
 169 200 169 200 210 200 c 0,9,10
 221 200 221 200 238.5 215 c 128,-1,11
 256 230 256 230 256 251 c 0,0,1
752 0 m 1,12,-1
 737 -60 l 1,13,-1
 416 -60 l 1,14,-1
 377 -189 l 1,15,-1
 302 -189 l 1,16,-1
 338 -63 l 1,17,-1
 146 -60 l 2,18,19
 127 -60 127 -60 109.5 -55.5 c 128,-1,20
 92 -51 92 -51 80 -44 c 128,-1,21
 68 -37 68 -37 65 -27 c 2,22,-1
 62 -6 l 1,23,-1
 61 13 l 2,24,25
 61 25 61 25 59 31 c 0,26,27
 59 43 59 43 68 54 c 0,28,29
 72 59 72 59 80 68 c 128,-1,30
 88 77 88 77 92 80 c 0,31,32
 114 97 114 97 137 102 c 2,33,-1
 230 112 l 1,34,-1
 290 114 l 2,35,36
 328 114 328 114 369.5 118.5 c 128,-1,37
 411 123 411 123 435 127 c 128,-1,38
 459 131 459 131 477 137 c 0,39,40
 513 146 513 146 525 168 c 2,41,-1
 547 209 l 2,42,43
 557 232 557 232 557 250 c 0,44,45
 557 274 557 274 544.5 294 c 128,-1,46
 532 314 532 314 506 331 c 0,47,48
 484 348 484 348 449.5 357 c 128,-1,49
 415 366 415 366 380 366 c 0,50,51
 348 366 348 366 324 360 c 128,-1,52
 300 354 300 354 290 341 c 1,53,54
 331 302 331 302 331 248 c 0,55,56
 331 205 331 205 305 179 c 0,57,58
 274 148 274 148 222 148 c 2,59,-1
 205 149 l 2,60,61
 178 149 178 149 155 172 c 0,62,63
 125 201 125 201 125 253 c 0,64,65
 125 318 125 318 186 363 c 1,66,-1
 244 395 l 1,67,68
 282 411 282 411 323 411 c 0,69,70
 396 411 396 411 459.5 402.5 c 128,-1,71
 523 394 523 394 560 368 c 128,-1,72
 597 342 597 342 613 309 c 0,73,74
 625 285 625 285 625 255 c 0,75,76
 625 240 625 240 623 232 c 0,77,78
 623 223 623 223 619 216 c 0,79,80
 598 140 598 140 575 117 c 0,81,82
 554 94 554 94 490 75 c 2,83,-1
 453 66 l 1,84,-1
 420 64 l 1,85,-1
 388 65 l 1,86,-1
 377 65 l 2,87,88
 370 65 370 65 358 67 c 2,89,-1
 335 66 l 1,90,-1
 239 66 l 1,91,-1
 149 57 l 2,92,93
 133 55 133 55 122.5 47 c 128,-1,94
 112 39 112 39 107 24 c 1,95,-1
 115 15 l 1,96,97
 138 -2 138 -2 178 -2 c 2,98,-1
 190 -2 l 1,99,-1
 203 0 l 1,100,-1
 752 0 l 1,12,-1
EndSplineSet
EndChar

StartChar: u11328
Encoding: 70440 70440 40
Width: 597
Flags: W
LayerCount: 2
Fore
SplineSet
408 -28 m 0,0,1
 445 -5 445 -5 465.5 32 c 128,-1,2
 486 69 486 69 486 96 c 2,3,-1
 486 104 l 1,4,-1
 484 111 l 1,5,-1
 488 126 l 2,6,7
 488 135 488 135 481 148 c 2,8,-1
 467 168 l 2,9,10
 452 192 452 192 418 199 c 1,11,12
 394 199 394 199 385 195 c 128,-1,13
 376 191 376 191 370 178 c 2,14,-1
 329 -14 l 1,15,-1
 259 -14 l 1,16,-1
 327 347 l 1,17,-1
 200 347 l 1,18,-1
 122 -14 l 1,19,-1
 75 -14 l 1,20,-1
 162 401 l 1,21,-1
 562 401 l 1,22,-1
 551 347 l 1,23,-1
 399 347 l 1,24,-1
 384 246 l 1,25,26
 401 252 401 252 420 252 c 0,27,28
 448 252 448 252 477.5 240.5 c 128,-1,29
 507 229 507 229 523 212.5 c 128,-1,30
 539 196 539 196 550 145 c 1,31,-1
 554 112 l 1,32,-1
 556 88 l 2,33,34
 556 54 556 54 530.5 9 c 128,-1,35
 505 -36 505 -36 469 -58 c 2,36,-1
 370 -109 l 1,37,38
 329 -124 329 -124 288 -124 c 1,39,-1
 160 -140 l 2,40,41
 5 -157 5 -157 -69 -157 c 2,42,-1
 -99 -156 l 1,43,-1
 -130 -153 l 2,44,45
 -144 -152 -144 -152 -149 -144 c 2,46,-1
 -153 -125 l 1,47,-1
 -153 -108 l 1,48,-1
 -12 -100 l 2,49,50
 49 -100 49 -100 103 -95.5 c 128,-1,51
 157 -91 157 -91 209 -84 c 0,52,53
 350 -66 350 -66 408 -28 c 0,0,1
EndSplineSet
EndChar

StartChar: u1132B
Encoding: 70443 70443 41
Width: 1331
Flags: W
LayerCount: 2
Fore
SplineSet
1278 184 m 0,0,1
 1278 100 1278 100 1244 41 c 0,2,3
 1217 -3 1217 -3 1183 -13 c 1,4,-1
 332 -14 l 1,5,-1
 332 43 l 1,6,7
 377 55 377 55 405.5 107.5 c 128,-1,8
 434 160 434 160 434 226 c 0,9,10
 434 294 434 294 409 329 c 0,11,12
 379 373 379 373 303 373 c 0,13,14
 202 373 202 373 143 314 c 0,15,16
 88 259 88 259 88 178 c 0,17,18
 88 117 88 117 124 66 c 1,19,-1
 120 106 l 1,20,21
 120 167 120 167 154 208 c 0,22,23
 192 254 192 254 256 254 c 0,24,25
 298 254 298 254 327 226.5 c 128,-1,26
 356 199 356 199 356 143 c 0,27,28
 356 59 356 59 302 17 c 0,29,30
 262 -14 262 -14 205 -14 c 0,31,32
 122 -14 122 -14 79 53 c 0,33,34
 65 77 65 77 54 111 c 0,35,36
 45 144 45 144 45 178 c 0,37,38
 45 289 45 289 130 359 c 0,39,40
 206 420 206 420 299 420 c 0,41,42
 415 420 415 420 467 371 c 0,43,44
 516 325 516 325 516 230 c 0,45,46
 516 177 516 177 492 114 c 2,47,-1
 483 93 l 2,48,49
 480 83 480 83 472 75 c 0,50,51
 463 60 463 60 442 39 c 1,52,-1
 936 39 l 1,53,-1
 984 349 l 1,54,55
 993 370 993 370 1028 393 c 1,56,57
 1065 410 1065 410 1107 410 c 0,58,59
 1206 401 1206 401 1242 352.5 c 128,-1,60
 1278 304 1278 304 1278 184 c 0,0,1
1232 185 m 0,61,62
 1232 252 1232 252 1217 294 c 0,63,64
 1190 355 1190 355 1109 355 c 0,65,66
 1084 355 1084 355 1069 346 c 0,67,68
 1059 338 1059 338 1047 301 c 1,69,-1
 1005 39 l 1,70,-1
 1173 39 l 1,71,72
 1186 49 1186 49 1211 83 c 1,73,74
 1232 125 1232 125 1232 185 c 0,61,62
297 144 m 0,75,76
 297 161 297 161 283 182 c 0,77,78
 271 203 271 203 252 207 c 0,79,80
 219 212 219 212 189 182 c 0,81,82
 161 151 161 151 161 122 c 2,83,-1
 162 90 l 1,84,-1
 172 67 l 2,85,86
 185 45 185 45 207 45 c 256,87,88
 229 45 229 45 262 63 c 1,89,90
 297 89 297 89 297 144 c 0,75,76
EndSplineSet
EndChar

StartChar: u1131A
Encoding: 70426 70426 42
Width: 979
Flags: W
LayerCount: 2
Fore
SplineSet
939 401 m 1,0,-1
 852 -14 l 1,1,-1
 59 -14 l 1,2,-1
 45 39 l 1,3,-1
 482 39 l 1,4,5
 505 59 505 59 521 102 c 1,6,-1
 533 146 l 1,7,-1
 537 193 l 2,8,9
 537 239 537 239 502.5 294 c 128,-1,10
 468 349 468 349 422 349 c 1,11,12
 437 337 437 337 449.5 302 c 128,-1,13
 462 267 462 267 462 225 c 0,14,15
 462 174 462 174 422.5 146.5 c 128,-1,16
 383 119 383 119 322 119 c 0,17,18
 277 119 277 119 240 163 c 0,19,20
 230 176 230 176 212 208 c 0,21,22
 203 232 203 232 203 260 c 0,23,24
 203 318 203 318 247 356.5 c 128,-1,25
 291 395 291 395 353 395 c 0,26,27
 459 395 459 395 522 348 c 0,28,29
 596 294 596 294 596 189 c 0,30,31
 596 156 596 156 581 113.5 c 128,-1,32
 566 71 566 71 538 39 c 1,33,-1
 779 39 l 1,34,-1
 857 401 l 1,35,-1
 939 401 l 1,0,-1
344 335 m 1,36,37
 311 326 311 326 295 313 c 0,38,39
 268 289 268 289 268 240 c 0,40,41
 268 211 268 211 293 185 c 0,42,43
 314 164 314 164 334 160 c 1,44,45
 372 160 372 160 392 183 c 128,-1,46
 412 206 412 206 412 239 c 0,47,48
 412 267 412 267 395 293 c 0,49,50
 380 320 380 320 344 335 c 1,36,37
EndSplineSet
EndChar

StartChar: u1132D
Encoding: 70445 70445 43
Width: 1110
Flags: W
LayerCount: 2
Fore
SplineSet
355 199 m 0,0,1
 355 218 355 218 344 239 c 0,2,3
 335 260 335 260 316 264 c 0,4,5
 283 267 283 267 255 240 c 0,6,7
 229 212 229 212 229 180 c 0,8,9
 229 149 229 149 239.5 125.5 c 128,-1,10
 250 102 250 102 273 102 c 0,11,12
 301 102 301 102 321 122 c 0,13,14
 348 149 348 149 355 199 c 0,0,1
18 -45 m 1,15,16
 24 -27 24 -27 63 -18 c 0,17,18
 83 -15 83 -15 108.5 -13 c 128,-1,19
 134 -11 134 -11 167 -11 c 2,20,-1
 267 -14 l 1,21,-1
 408 -21 l 1,22,-1
 493 -21 l 2,23,24
 548 -21 548 -21 617 -20 c 128,-1,25
 686 -19 686 -19 700 -19 c 0,26,27
 761 -19 761 -19 821 -10.5 c 128,-1,28
 881 -2 881 -2 912 15 c 0,29,30
 933 27 933 27 945 110 c 0,31,32
 952 166 952 166 960 195 c 0,33,34
 965 208 965 208 965 229 c 0,35,36
 965 267 965 267 946.5 311.5 c 128,-1,37
 928 356 928 356 913 371 c 0,38,39
 885 399 885 399 831 399 c 0,40,41
 806 399 806 399 791.5 386.5 c 128,-1,42
 777 374 777 374 764 340 c 1,43,-1
 735 168 l 2,44,45
 726 112 726 112 691.5 77.5 c 128,-1,46
 657 43 657 43 605 43 c 0,47,48
 536 43 536 43 505 78 c 0,49,50
 493 90 493 90 484.5 108 c 128,-1,51
 476 126 476 126 476 144 c 0,52,53
 476 158 476 158 478 162 c 2,54,-1
 510 297 l 1,55,-1
 511 313 l 1,56,-1
 512 326 l 2,57,58
 512 342 512 342 505.5 356.5 c 128,-1,59
 499 371 499 371 480 393 c 0,60,61
 463 410 463 410 429 418 c 0,62,63
 413 422 413 422 397.5 424 c 128,-1,64
 382 426 382 426 361 426 c 0,65,66
 268 426 268 426 212 371 c 0,67,68
 160 319 160 319 160 241 c 0,69,70
 160 216 160 216 166 188 c 128,-1,71
 172 160 172 160 190 137 c 1,72,-1
 186 173 l 1,73,74
 186 227 186 227 222 269 c 128,-1,75
 258 311 258 311 322 311 c 0,76,77
 368 311 368 311 397 282 c 0,78,79
 428 254 428 254 428 200 c 0,80,81
 428 122 428 122 371 77 c 0,82,83
 325 43 325 43 272 43 c 0,84,85
 188 43 188 43 145 110 c 0,86,87
 131 134 131 134 120 168 c 0,88,89
 111 201 111 201 111 235 c 0,90,91
 111 346 111 346 193 416 c 0,92,93
 266 477 266 477 363 477 c 0,94,95
 466 477 466 477 538 423 c 0,96,97
 592 378 592 378 592 314 c 1,98,-1
 586 282 l 2,99,100
 581 259 581 259 576 249 c 2,101,-1
 559 196 l 1,102,-1
 557 155 l 2,103,104
 557 100 557 100 605 100 c 0,105,106
 644 100 644 100 662 134 c 0,107,108
 668 144 668 144 684 235 c 2,109,-1
 708 357 l 2,110,111
 711 376 711 376 726 396 c 128,-1,112
 741 416 741 416 764 438 c 0,113,114
 802 467 802 467 838 467 c 0,115,116
 928 467 928 467 990 401 c 1,117,118
 1033 346 1033 346 1033 282 c 0,119,120
 1033 181 1033 181 1024 119 c 0,121,122
 1010 24 1010 24 974 -11 c 0,123,124
 940 -47 940 -47 908 -59 c 0,125,126
 866 -75 866 -75 798 -75 c 2,127,-1
 639 -79 l 1,128,-1
 431 -81 l 2,129,130
 361 -81 361 -81 309 -80 c 128,-1,131
 257 -79 257 -79 209 -78 c 0,132,133
 137 -78 137 -78 75 -68 c 1,134,-1
 18 -45 l 1,15,16
EndSplineSet
EndChar

StartChar: u1132F
Encoding: 70447 70447 44
Width: 822
Flags: W
LayerCount: 2
Fore
SplineSet
767 399 m 1,0,-1
 674 -14 l 1,1,-1
 221 -14 l 1,2,-1
 221 2 l 1,3,4
 176 -22 176 -22 130 -22 c 0,5,6
 90 -22 90 -22 61.5 0 c 128,-1,7
 33 22 33 22 33 52 c 2,8,-1
 35 69 l 1,9,-1
 107 399 l 1,10,-1
 154 399 l 1,11,-1
 81 64 l 2,12,13
 78 43 78 43 90 33 c 0,14,15
 104 24 104 24 130 24 c 2,16,-1
 163 27 l 1,17,-1
 178 31 l 1,18,-1
 197 38 l 1,19,20
 222 53 222 53 234 71 c 1,21,-1
 311 399 l 1,22,-1
 379 399 l 1,23,-1
 300 39 l 1,24,-1
 611 39 l 1,25,-1
 695 399 l 1,26,-1
 767 399 l 1,0,-1
EndSplineSet
EndChar

StartChar: u11332
Encoding: 70450 70450 45
Width: 1138
Flags: W
LayerCount: 2
Fore
SplineSet
989 425 m 1,0,-1
 1033 412 l 2,1,2
 1065 400 1065 400 1086 360 c 0,3,4
 1090 352 1090 352 1096.5 333 c 128,-1,5
 1103 314 1103 314 1106 303 c 0,6,7
 1113 275 1113 275 1113 259 c 2,8,-1
 1110 222 l 2,9,10
 1101 145 1101 145 1069 88 c 0,11,12
 1042 38 1042 38 980 -18 c 0,13,14
 838 -145 838 -145 565 -145 c 0,15,16
 322 -145 322 -145 180.5 -57.5 c 128,-1,17
 39 30 39 30 39 189 c 0,18,19
 39 361 39 361 173 459 c 0,20,21
 295 549 295 549 476 549 c 0,22,23
 652 549 652 549 747 458 c 0,24,25
 830 380 830 380 830 260 c 0,26,27
 830 152 830 152 764 71 c 0,28,29
 694 -14 694 -14 586 -14 c 0,30,31
 552 -14 552 -14 519 3 c 128,-1,32
 486 20 486 20 467 47 c 1,33,34
 452 20 452 20 421.5 4.5 c 128,-1,35
 391 -11 391 -11 351 -11 c 0,36,37
 298 -11 298 -11 260 15 c 0,38,39
 218 44 218 44 218 90 c 1,40,-1
 221 114 l 1,41,-1
 283 391 l 1,42,-1
 331 391 l 1,43,-1
 264 109 l 1,44,-1
 262 94 l 2,45,46
 262 73 262 73 278.5 61.5 c 128,-1,47
 295 50 295 50 320 50 c 0,48,49
 353 50 353 50 383 65 c 128,-1,50
 413 80 413 80 422 112 c 2,51,-1
 486 391 l 1,52,-1
 554 391 l 1,53,-1
 499 135 l 1,54,55
 499 88 499 88 526 55 c 1,56,57
 549 35 549 35 594 35 c 0,58,59
 650 35 650 35 693.5 105 c 128,-1,60
 737 175 737 175 737 259 c 0,61,62
 737 357 737 357 678 420 c 0,63,64
 609 494 609 494 471 494 c 0,65,66
 315 494 315 494 208 414 c 0,67,68
 92 327 92 327 92 185 c 0,69,70
 92 38 92 38 231 -31 c 0,71,72
 348 -88 348 -88 558 -88 c 0,73,74
 793 -88 793 -88 925 20 c 0,75,76
 973 62 973 62 995 102.5 c 128,-1,77
 1017 143 1017 143 1032 210 c 2,78,-1
 1036 233 l 1,79,-1
 1038 257 l 2,80,81
 1038 276 1038 276 1034 292.5 c 128,-1,82
 1030 309 1030 309 1020 331 c 128,-1,83
 1010 353 1010 353 1000.5 359 c 128,-1,84
 991 365 991 365 977 367 c 2,85,-1
 962 366 l 2,86,87
 956 366 956 366 952 370 c 1,88,-1
 989 425 l 1,0,-1
EndSplineSet
EndChar

StartChar: uniE400
Encoding: 58368 58368 46
Width: 755
Flags: W
LayerCount: 2
Fore
SplineSet
598 91 m 0,0,1
 604 106 604 106 604 117 c 0,2,3
 604 138 604 138 582 153 c 128,-1,4
 560 168 560 168 512 182 c 1,5,6
 485 170 485 170 473 152 c 0,7,8
 463 132 463 132 463 108 c 0,9,10
 463 93 463 93 484 67 c 1,11,12
 505 52 505 52 534 52 c 2,13,-1
 553 53 l 2,14,15
 560 53 560 53 571 60 c 0,16,17
 589 69 589 69 598 91 c 0,0,1
381 357 m 1,18,-1
 246 357 l 1,19,-1
 221 239 l 1,20,-1
 357 239 l 1,21,-1
 381 357 l 1,18,-1
342 187 m 1,22,-1
 191 187 l 2,23,24
 131 187 131 187 105 162 c 0,25,26
 86 143 86 143 86 105 c 0,27,28
 86 75 86 75 115 59 c 0,29,30
 146 45 146 45 195 45 c 0,31,32
 263 45 263 45 297 82 c 0,33,34
 326 112 326 112 342 187 c 1,22,-1
520 237 m 1,35,36
 565 255 565 255 605 304 c 128,-1,37
 645 353 645 353 645 401 c 0,38,39
 645 434 645 434 639 449 c 0,40,41
 635 463 635 463 621 474 c 1,42,-1
 672 477 l 1,43,-1
 688 435 l 2,44,45
 700 405 700 405 700 377 c 0,46,47
 700 353 700 353 690 324 c 1,48,49
 671 286 671 286 638 253 c 0,50,51
 615 230 615 230 585 211 c 1,52,53
 619 196 619 196 636 171 c 0,54,55
 655 146 655 146 655 115 c 1,56,-1
 649 78 l 1,57,58
 637 39 637 39 618 20 c 0,59,60
 590 -8 590 -8 544 -8 c 0,61,62
 476 -8 476 -8 435 34 c 1,63,-1
 425 55 l 1,64,-1
 423 83 l 1,65,-1
 423 105 l 2,66,67
 423 126 423 126 429.5 143.5 c 128,-1,68
 436 161 436 161 441 169 c 0,69,70
 443 173 443 173 453 186 c 1,71,-1
 412 188 l 1,72,-1
 399 143 l 2,73,74
 375 67 375 67 344 35 c 0,75,76
 298 -14 298 -14 214 -14 c 0,77,78
 110 -14 110 -14 72 23 c 0,79,80
 40 53 40 53 40 115 c 0,81,82
 40 164 40 164 79.5 201.5 c 128,-1,83
 119 239 119 239 175 239 c 1,84,-1
 212 410 l 1,85,-1
 580 410 l 1,86,-1
 566 357 l 1,87,-1
 451 357 l 1,88,-1
 430 239 l 1,89,-1
 520 237 l 1,35,36
EndSplineSet
EndChar

StartChar: uniE10B
Encoding: 57611 57611 47
Width: 974
Flags: W
LayerCount: 2
Fore
SplineSet
918 78 m 2,0,1
 903 -8 903 -8 821 -62 c 1,2,3
 739 -102 739 -102 626 -102 c 2,4,-1
 298 -102 l 2,5,6
 221 -102 221 -102 183 -108 c 0,7,8
 122 -120 122 -120 122 -162 c 1,9,-1
 123 -170 l 2,10,11
 128 -202 128 -202 155.5 -216 c 128,-1,12
 183 -230 183 -230 220 -230 c 2,13,-1
 249 -230 l 1,14,-1
 275 -225 l 1,15,-1
 292 -222 l 1,16,-1
 309 -216 l 1,17,18
 412 -150 412 -150 485 -128 c 0,19,20
 530 -113 530 -113 590 -113 c 2,21,-1
 620 -113 l 1,22,-1
 689 -116 l 2,23,24
 696 -116 696 -116 701.5 -117 c 128,-1,25
 707 -118 707 -118 717 -121 c 128,-1,26
 727 -124 727 -124 744 -133 c 0,27,28
 795 -154 795 -154 795 -184 c 0,29,30
 795 -220 795 -220 749 -248 c 0,31,32
 725 -262 725 -262 691 -269 c 2,33,-1
 653 -274 l 1,34,-1
 607 -276 l 2,35,36
 543 -276 543 -276 517 -265 c 2,37,-1
 496 -259 l 1,38,-1
 480 -255 l 1,39,-1
 459 -245 l 1,40,-1
 514 -213 l 1,41,-1
 560 -226 l 1,42,-1
 609 -230 l 2,43,44
 654 -230 654 -230 683 -220.5 c 128,-1,45
 712 -211 712 -211 722 -187 c 0,46,47
 725 -183 725 -183 700 -167 c 1,48,-1
 662 -162 l 1,49,-1
 597 -160 l 2,50,51
 530 -160 530 -160 452 -201 c 2,52,-1
 338 -262 l 1,53,-1
 301 -273 l 2,54,55
 277 -276 277 -276 232 -276 c 0,56,57
 138 -276 138 -276 89 -247 c 128,-1,58
 40 -218 40 -218 40 -171 c 1,59,60
 46 -105 46 -105 122 -71 c 0,61,62
 183 -45 183 -45 273 -45 c 2,63,-1
 646 -49 l 2,64,65
 719 -49 719 -49 769.5 -15.5 c 128,-1,66
 820 18 820 18 835 84 c 1,67,-1
 838 114 l 2,68,69
 838 147 838 147 820 171 c 128,-1,70
 802 195 802 195 773 199 c 1,71,-1
 756 198 l 2,72,73
 746 198 746 198 737 194.5 c 128,-1,74
 728 191 728 191 722 178 c 2,75,-1
 683 -14 l 1,76,-1
 611 -14 l 1,77,-1
 682 347 l 1,78,-1
 552 347 l 1,79,-1
 490 -14 l 1,80,-1
 415 -14 l 1,81,-1
 450 195 l 1,82,-1
 452 212 l 1,83,84
 452 265 452 265 417 310 c 0,85,86
 374 365 374 365 306 365 c 0,87,88
 204 365 204 365 147.5 311.5 c 128,-1,89
 91 258 91 258 91 178 c 0,90,91
 91 150 91 150 100 119.5 c 128,-1,92
 109 89 109 89 128 65 c 1,93,-1
 124 87 l 1,94,-1
 123 109 l 2,95,96
 123 162 123 162 159 208 c 128,-1,97
 195 254 195 254 259 254 c 0,98,99
 301 254 301 254 329 226 c 128,-1,100
 357 198 357 198 357 143 c 0,101,102
 357 63 357 63 304 20 c 0,103,104
 261 -14 261 -14 208 -14 c 0,105,106
 125 -14 125 -14 82 53 c 0,107,108
 68 77 68 77 57 111 c 0,109,110
 48 144 48 144 48 178 c 0,111,112
 48 277 48 277 131 348 c 0,113,114
 210 413 210 413 309 413 c 0,115,116
 341 413 341 413 361 409.5 c 128,-1,117
 381 406 381 406 402 393 c 0,118,119
 444 375 444 375 474 332 c 1,120,-1
 487 412 l 1,121,-1
 913 412 l 1,122,-1
 907 347 l 1,123,-1
 754 347 l 1,124,-1
 733 246 l 1,125,-1
 753 251 l 1,126,-1
 774 254 l 1,127,128
 840 254 840 254 880 211 c 128,-1,129
 920 168 920 168 920 105 c 2,130,-1
 920 92 l 1,131,-1
 918 78 l 2,0,1
298 144 m 0,132,133
 298 161 298 161 284 182 c 0,134,135
 272 203 272 203 253 207 c 0,136,137
 223 210 223 210 192 183 c 0,138,139
 164 155 164 155 164 123 c 0,140,141
 164 92 164 92 174.5 68.5 c 128,-1,142
 185 45 185 45 210 45 c 0,143,144
 240 45 240 45 264 63 c 0,145,146
 298 89 298 89 298 144 c 0,132,133
EndSplineSet
Ligature2: "'akhn' Akhand lookup 0-1" u1131E u1134D u1131C
EndChar

StartChar: u1131C
Encoding: 70428 70428 48
Width: 833
Flags: W
LayerCount: 2
Fore
SplineSet
789 211 m 0,0,1
 789 103 789 103 736 38 c 0,2,3
 688 -22 688 -22 620 -22 c 2,4,-1
 273 -22 l 2,5,6
 213 -22 213 -22 171 -49 c 0,7,8
 117 -85 117 -85 117 -169 c 0,9,10
 117 -302 117 -302 211 -302 c 0,11,12
 232 -302 232 -302 253 -290 c 0,13,14
 274 -281 274 -281 283 -269 c 0,15,16
 405 -137 405 -137 463 -101 c 0,17,18
 503 -78 503 -78 568 -78 c 0,19,20
 632 -78 632 -78 675 -110 c 128,-1,21
 718 -142 718 -142 718 -195 c 0,22,23
 718 -266 718 -266 671 -306 c 0,24,25
 628 -343 628 -343 561 -343 c 0,26,27
 524 -343 524 -343 494 -333.5 c 128,-1,28
 464 -324 464 -324 431 -300 c 1,29,-1
 457 -260 l 1,30,31
 509 -297 509 -297 566 -297 c 0,32,33
 615 -297 615 -297 645 -271 c 128,-1,34
 675 -245 675 -245 675 -195 c 0,35,36
 675 -168 675 -168 648 -150 c 0,37,38
 613 -127 613 -127 542 -127 c 0,39,40
 489 -127 489 -127 424 -184 c 1,41,-1
 331 -291 l 1,42,43
 274 -348 274 -348 212 -348 c 0,44,45
 137 -348 137 -348 91.5 -299.5 c 128,-1,46
 46 -251 46 -251 46 -174 c 0,47,48
 46 -67 46 -67 114 -12 c 0,49,50
 169 32 169 32 247 32 c 2,51,-1
 613 32 l 2,52,53
 645 32 645 32 676.5 87 c 128,-1,54
 708 142 708 142 708 224 c 0,55,56
 708 281 708 281 683 315 c 128,-1,57
 658 349 658 349 632 349 c 256,58,59
 606 349 606 349 565 325 c 1,60,61
 535 301 535 301 529 265 c 2,62,-1
 508 66 l 1,63,-1
 444 66 l 1,64,-1
 468 268 l 1,65,66
 450 309 450 309 408.5 331.5 c 128,-1,67
 367 354 367 354 321 354 c 0,68,69
 260 354 260 354 219 320 c 0,70,71
 173 282 173 282 173 219 c 0,72,73
 173 182 173 182 183 161.5 c 128,-1,74
 193 141 193 141 218 120 c 1,75,-1
 213 143 l 1,76,-1
 211 170 l 2,77,78
 211 221 211 221 237 259 c 0,79,80
 267 301 267 301 318 301 c 0,81,82
 364 301 364 301 397 244 c 1,83,-1
 410 186 l 1,84,85
 404 125 404 125 365 83 c 1,86,87
 331 54 331 54 273 54 c 0,88,89
 209 54 209 54 174 89 c 0,90,91
 130 131 130 131 130 221 c 0,92,93
 130 304 130 304 184 360 c 1,94,95
 233 403 233 403 318 403 c 0,96,97
 402 403 402 403 447 379 c 0,98,99
 474 364 474 364 502 327 c 1,100,101
 551 397 551 397 632 397 c 0,102,103
 701 397 701 397 747 341 c 0,104,105
 789 288 789 288 789 211 c 0,0,1
355 187 m 0,106,107
 355 215 355 215 341 235 c 0,108,109
 330 254 330 254 312 254 c 0,110,111
 293 254 293 254 268 229 c 1,112,113
 252 195 252 195 252 172 c 0,114,115
 252 148 252 148 263 132 c 128,-1,116
 274 116 274 116 296 116 c 0,117,118
 308 116 308 116 334 131 c 1,119,120
 355 151 355 151 355 187 c 0,106,107
EndSplineSet
EndChar

StartChar: u1131E
Encoding: 70430 70430 49
Width: 947
Flags: W
LayerCount: 2
Fore
SplineSet
320 204 m 2,0,1
 317 234 317 234 293 258 c 0,2,3
 272 282 272 282 243 282 c 0,4,5
 232 282 232 282 219 275 c 128,-1,6
 206 268 206 268 198 258 c 2,7,-1
 191 244 l 2,8,9
 185 229 185 229 185 211 c 2,10,-1
 187 182 l 2,11,12
 190 166 190 166 211 139 c 0,13,14
 232 116 232 116 261 116 c 0,15,16
 272 116 272 116 280 120 c 0,17,18
 300 128 300 128 310.5 146.5 c 128,-1,19
 321 165 321 165 321 189 c 2,20,-1
 320 204 l 2,0,1
634 193 m 1,21,-1
 568 193 l 2,22,23
 531 193 531 193 507 178 c 1,24,25
 493 162 493 162 493 135 c 0,26,27
 493 122 493 122 508 101 c 1,28,29
 524 90 524 90 551 90 c 0,30,31
 581 90 581 90 598 113 c 0,32,33
 617 136 617 136 634 193 c 1,21,-1
483 225 m 1,34,-1
 519 237 l 1,35,-1
 539 239 l 1,36,-1
 565 239 l 1,37,-1
 648 239 l 1,38,-1
 671 357 l 1,39,-1
 568 356 l 2,40,41
 545 356 545 356 520 324 c 1,42,-1
 510 306 l 1,43,-1
 497 276 l 1,44,-1
 483 225 l 1,34,-1
136 264 m 2,45,46
 136 299 136 299 162 334 c 2,47,-1
 188 366 l 2,48,49
 223 410 223 410 300 410 c 0,50,51
 368 410 368 410 407 391 c 0,52,53
 416 388 416 388 428 367 c 2,54,-1
 456 312 l 1,55,-1
 472 354 l 2,56,57
 484 384 484 384 495 392 c 0,58,59
 521 410 521 410 541 410 c 2,60,-1
 903 410 l 1,61,-1
 889 357 l 1,62,-1
 741 357 l 1,63,-1
 718 239 l 1,64,65
 787 239 787 239 831 201 c 0,66,67
 880 158 880 158 880 79 c 1,68,-1
 877 38 l 2,69,70
 877 30 877 30 868 -5 c 0,71,72
 836 -115 836 -115 743 -180 c 0,73,74
 625 -262 625 -262 420 -262 c 0,75,76
 228 -262 228 -262 128 -144 c 0,77,78
 40 -38 40 -38 40 126 c 0,79,80
 40 149 40 149 42 165.5 c 128,-1,81
 44 182 44 182 51 205 c 2,82,-1
 64 256 l 1,83,-1
 100 225 l 1,84,-1
 92 173 l 1,85,-1
 89 120 l 1,86,87
 89 -18 89 -18 164 -102 c 0,88,89
 246 -193 246 -193 391 -193 c 0,90,91
 478 -193 478 -193 549.5 -177.5 c 128,-1,92
 621 -162 621 -162 671 -131 c 0,93,94
 770 -73 770 -73 793 47 c 1,95,-1
 796 74 l 1,96,-1
 797 97 l 2,97,98
 797 139 797 139 779 160 c 0,99,100
 756 187 756 187 702 187 c 1,101,-1
 681 133 l 1,102,-1
 658 92 l 2,103,104
 638 59 638 59 627 51 c 1,105,-1
 596 43 l 1,106,-1
 560 40 l 1,107,-1
 492 43 l 2,108,109
 466 46 466 46 449 55 c 0,110,111
 435 64 435 64 431.5 85.5 c 128,-1,112
 428 107 428 107 428 144 c 2,113,-1
 430 171 l 1,114,-1
 437 236 l 1,115,-1
 436 251 l 2,116,117
 434 261 434 261 431.5 273 c 128,-1,118
 429 285 429 285 422 299 c 0,119,120
 416 318 416 318 405 327 c 2,121,-1
 380 350 l 1,122,-1
 359 363 l 1,123,-1
 329 369 l 1,124,-1
 288 372 l 1,125,126
 254 367 254 367 228.5 347.5 c 128,-1,127
 203 328 203 328 196 312 c 1,128,-1
 273 321 l 1,129,130
 284 330 284 330 316 301 c 0,131,132
 343 275 343 275 351 258 c 2,133,-1
 363 217 l 2,134,135
 369 199 369 199 369 182 c 2,136,-1
 366 157 l 2,137,138
 363 141 363 141 356 127 c 0,139,140
 344 99 344 99 319 83 c 0,141,142
 295 71 295 71 262 71 c 2,143,-1
 227 73 l 2,144,145
 209 73 209 73 183 93 c 0,146,147
 159 114 159 114 149 143 c 1,148,-1
 138 197 l 1,149,-1
 136 264 l 2,45,46
EndSplineSet
EndChar

StartChar: u11306
Encoding: 70406 70406 50
Width: 1070
Flags: W
LayerCount: 2
Fore
SplineSet
864 426 m 1,0,-1
 829 238 l 1,1,2
 916 238 916 238 962.5 194 c 128,-1,3
 1009 150 1009 150 1009 80 c 0,4,5
 1009 -46 1009 -46 882 -152 c 0,6,7
 735 -272 735 -272 503 -272 c 0,8,9
 311 -272 311 -272 183 -172 c 0,10,11
 48 -67 48 -67 48 102 c 0,12,13
 48 198 48 198 123 291 c 0,14,15
 163 340 163 340 245 403 c 1,16,-1
 274 363 l 1,17,18
 219 337 219 337 166 271 c 0,19,20
 93 183 93 183 93 94 c 0,21,22
 93 -50 93 -50 225 -143 c 0,23,24
 342 -224 342 -224 501 -224 c 0,25,26
 700 -224 700 -224 822 -120 c 0,27,28
 928 -29 928 -29 928 77 c 0,29,30
 928 126 928 126 899.5 156.5 c 128,-1,31
 871 187 871 187 818 187 c 1,32,33
 803 85 803 85 779 43 c 0,34,35
 750 -14 750 -14 695 -14 c 0,36,37
 626 -14 626 -14 598 5 c 0,38,39
 560 31 560 31 560 107 c 0,40,41
 560 145 560 145 602 187 c 1,42,-1
 550 187 l 1,43,-1
 538 143 l 2,44,45
 514 68 514 68 484 35 c 0,46,47
 438 -14 438 -14 355 -14 c 0,48,49
 274 -14 274 -14 235 7 c 0,50,51
 181 37 181 37 181 115 c 0,52,53
 181 170 181 170 223.5 204.5 c 128,-1,54
 266 239 266 239 318 239 c 1,55,-1
 353 410 l 1,56,-1
 751 410 l 1,57,-1
 740 357 l 1,58,-1
 591 357 l 1,59,-1
 569 239 l 1,60,-1
 776 239 l 1,61,-1
 804 420 l 1,62,-1
 864 426 l 1,0,-1
768 190 m 1,63,-1
 734 189 l 1,64,-1
 707 188 l 1,65,-1
 695 189 l 1,66,67
 660 174 660 174 627 149 c 1,68,-1
 613 129 l 1,69,-1
 607 103 l 1,70,71
 607 30 607 30 681 30 c 0,72,73
 711 30 711 30 729 57 c 128,-1,74
 747 84 747 84 768 190 c 1,63,-1
520 357 m 1,75,-1
 384 357 l 1,76,-1
 362 239 l 1,77,-1
 497 239 l 1,78,-1
 520 357 l 1,75,-1
482 187 m 1,79,-1
 333 187 l 2,80,81
 273 187 273 187 247 162 c 0,82,83
 228 143 228 143 228 105 c 0,84,85
 228 75 228 75 256 59 c 0,86,87
 284 45 284 45 333 45 c 0,88,89
 399 45 399 45 437 82 c 0,90,91
 467 114 467 114 482 187 c 1,79,-1
EndSplineSet
EndChar

StartChar: u1130C
Encoding: 70412 70412 51
Width: 996
Flags: W
LayerCount: 2
Fore
SplineSet
137 123 m 0,0,1
 137 149 137 149 164 184.5 c 128,-1,2
 191 220 191 220 229 220 c 1,3,-1
 247 218 l 2,4,5
 260 218 260 218 277 192 c 0,6,7
 295 168 295 168 295 143 c 0,8,9
 295 83 295 83 257 54 c 0,10,11
 230 33 230 33 195 33 c 0,12,13
 168 33 168 33 152.5 61.5 c 128,-1,14
 137 90 137 90 137 123 c 0,0,1
193 -2 m 0,15,16
 242 -2 242 -2 280 29 c 0,17,18
 330 68 330 68 330 143 c 0,19,20
 330 188 330 188 306.5 215 c 128,-1,21
 283 242 283 242 244 242 c 0,22,23
 194 242 194 242 152 203 c 1,24,25
 120 163 120 163 120 108 c 2,26,-1
 120 86 l 1,27,-1
 124 70 l 1,28,-1
 127 55 l 1,29,-1
 137 33 l 1,30,31
 104 47 104 47 83 87 c 1,32,-1
 76 104 l 1,33,-1
 70 129 l 1,34,-1
 65 154 l 1,35,-1
 64 178 l 2,36,37
 64 254 64 254 124.5 315.5 c 128,-1,38
 185 377 185 377 291 377 c 0,39,40
 363 377 363 377 410 318 c 0,41,42
 449 268 449 268 449 212 c 1,43,-1
 447 193 l 1,44,-1
 414 -2 l 1,45,-1
 461 -2 l 1,46,-1
 527 359 l 1,47,-1
 682 359 l 1,48,-1
 631 80 l 1,49,-1
 630 63 l 2,50,51
 630 30 630 30 652.5 11.5 c 128,-1,52
 675 -7 675 -7 708 -7 c 0,53,54
 744 -7 744 -7 770.5 13.5 c 128,-1,55
 797 34 797 34 809 80 c 1,56,-1
 855 359 l 1,57,-1
 949 359 l 1,58,-1
 955 400 l 1,59,-1
 482 400 l 1,60,-1
 465 297 l 1,61,62
 441 350 441 350 394.5 376 c 128,-1,63
 348 402 348 402 293 402 c 0,64,65
 198 402 198 402 124 340 c 0,66,67
 45 273 45 273 45 178 c 0,68,69
 45 119 45 119 75 62 c 1,70,71
 115 -2 115 -2 193 -2 c 0,15,16
729 359 m 1,72,-1
 820 359 l 1,73,-1
 775 94 l 2,74,75
 772 76 772 76 756 56 c 1,76,77
 740 43 740 43 722 43 c 256,78,79
 704 43 704 43 691.5 53.5 c 128,-1,80
 679 64 679 64 679 83 c 2,81,-1
 680 92 l 1,82,-1
 729 359 l 1,72,-1
EndSplineSet
EndChar

StartChar: u11322
Encoding: 70434 70434 52
Width: 796
Flags: W
LayerCount: 2
Fore
SplineSet
746 104 m 1,0,1
 725 53 725 53 670.5 20 c 128,-1,2
 616 -13 616 -13 556 -13 c 0,3,4
 512 -13 512 -13 469.5 8 c 128,-1,5
 427 29 427 29 398 82 c 1,6,7
 362 43 362 43 295 16.5 c 128,-1,8
 228 -10 228 -10 169 -10 c 256,9,10
 110 -10 110 -10 76 15 c 0,11,12
 37 44 37 44 37 101 c 2,13,-1
 37 116 l 1,14,-1
 41 141 l 2,15,16
 44 151 44 151 75 185 c 0,17,18
 98 205 98 205 135 227 c 1,19,20
 120 236 120 236 108 248 c 2,21,-1
 76 281 l 1,22,23
 58 308 58 308 58 332 c 0,24,25
 58 363 58 363 100 396 c 0,26,27
 122 410 122 410 147 417 c 2,28,-1
 174 422 l 1,29,-1
 203 424 l 2,30,31
 258 424 258 424 294.5 401 c 128,-1,32
 331 378 331 378 331 341 c 0,33,34
 331 318 331 318 298 274 c 1,35,36
 259 235 259 235 181 196 c 0,37,38
 153 182 153 182 116 148 c 1,39,40
 95 122 95 122 95 101 c 0,41,42
 95 86 95 86 110 66 c 1,43,44
 125 54 125 54 147 48 c 1,45,-1
 170 46 l 1,46,-1
 178 46 l 2,47,48
 255 46 255 46 329 107 c 0,49,50
 380 148 380 148 403 201 c 1,51,-1
 426 199 l 1,52,53
 435 135 435 135 470 102 c 0,54,55
 500 72 500 72 546 72 c 0,56,57
 585 72 585 72 624 96 c 0,58,59
 658 119 658 119 686 170 c 1,60,61
 695 200 695 200 695 233 c 0,62,63
 695 311 695 311 649 353 c 1,64,65
 643 321 643 321 613 285 c 1,66,67
 584 259 584 259 535 259 c 0,68,69
 451 259 451 259 451 324 c 0,70,71
 451 343 451 343 453 345 c 0,72,73
 476 430 476 430 576 430 c 0,74,75
 669 430 669 430 720 355 c 0,76,77
 764 290 764 290 764 199 c 2,78,-1
 763 173 l 2,79,80
 763 152 763 152 758 142 c 2,81,-1
 746 104 l 1,0,1
592 345 m 2,82,-1
 594 359 l 2,83,84
 594 371 594 371 588 377 c 128,-1,85
 582 383 582 383 566 386 c 0,86,87
 548 386 548 386 534 373 c 0,88,89
 525 361 525 361 522 346 c 2,90,-1
 517 320 l 2,91,92
 517 307 517 307 534 307 c 0,93,94
 585 307 585 307 592 345 c 2,82,-1
224 365 m 0,95,96
 184 365 184 365 168 357 c 0,97,98
 150 351 150 351 141 323 c 0,99,100
 132 293 132 293 184 252 c 1,101,-1
 215 271 l 1,102,-1
 249 297 l 1,103,104
 269 319 269 319 269 335 c 0,105,106
 269 347 269 347 256.5 356 c 128,-1,107
 244 365 244 365 224 365 c 0,95,96
EndSplineSet
EndChar

StartChar: u11313
Encoding: 70419 70419 53
Width: 900
Flags: W
LayerCount: 2
Fore
SplineSet
855 -27 m 1,0,-1
 625 -27 l 1,1,2
 600 -39 600 -39 584 -107 c 0,3,4
 572 -175 572 -175 547 -201 c 0,5,6
 536 -212 536 -212 523 -212 c 0,7,8
 513 -212 513 -212 508 -208 c 0,9,10
 495 -198 495 -198 495 -186 c 0,11,12
 495 -178 495 -178 500 -171.5 c 128,-1,13
 505 -165 505 -165 525 -114 c 1,14,-1
 549 -25 l 1,15,-1
 526 -24 l 1,16,-1
 493 -21 l 2,17,18
 473 -18 473 -18 464 -14 c 0,19,20
 444 -8 444 -8 433 7 c 0,21,22
 425 23 425 23 425 57 c 0,23,24
 425 79 425 79 438.5 97 c 128,-1,25
 452 115 452 115 488 128 c 1,26,27
 541 139 541 139 602 139 c 2,28,-1
 620 139 l 2,29,30
 647 139 647 139 668 160 c 0,31,32
 678 170 678 170 697 198.5 c 128,-1,33
 716 227 716 227 716 245 c 1,34,-1
 713 258 l 1,35,36
 685 305 685 305 657 326.5 c 128,-1,37
 629 348 629 348 582 360 c 2,38,-1
 532 372 l 2,39,40
 493 381 493 381 461 381 c 0,41,42
 434 381 434 381 390.5 372 c 128,-1,43
 347 363 347 363 321.5 356.5 c 128,-1,44
 296 350 296 350 267 340 c 0,45,46
 192 317 192 317 157 292 c 0,47,48
 84 239 84 239 84 157 c 0,49,50
 84 127 84 127 108 77 c 1,51,52
 108 137 108 137 145.5 186.5 c 128,-1,53
 183 236 183 236 235 236 c 1,54,-1
 247 235 l 2,55,56
 296 229 296 229 322 197 c 0,57,58
 332 186 332 186 335 163 c 2,59,-1
 338 114 l 2,60,61
 338 99 338 99 337 87 c 128,-1,62
 336 75 336 75 332.5 61.5 c 128,-1,63
 329 48 329 48 309 24 c 0,64,65
 271 -23 271 -23 205 -23 c 0,66,67
 118 -23 118 -23 72 41 c 0,68,69
 61 60 61 60 47 96 c 0,70,71
 38 126 38 126 38 160 c 0,72,73
 38 191 38 191 45 208 c 0,74,75
 72 283 72 283 116 327 c 0,76,77
 154 363 154 363 250.5 397.5 c 128,-1,78
 347 432 347 432 414 432 c 0,79,80
 498 432 498 432 548 421 c 0,81,82
 574 416 574 416 602 407 c 0,83,84
 609 405 609 405 650 389 c 0,85,86
 719 365 719 365 735 346 c 1,87,88
 743 328 743 328 750 313.5 c 128,-1,89
 757 299 757 299 766 282.5 c 128,-1,90
 775 266 775 266 775 248 c 0,91,92
 775 222 775 222 759 191 c 0,93,94
 747 166 747 166 724 138 c 0,95,96
 675 77 675 77 611 77 c 2,97,-1
 595 78 l 1,98,-1
 550 86 l 1,99,-1
 523 88 l 2,100,101
 504 88 504 88 495 83 c 128,-1,102
 486 78 486 78 486 64 c 0,103,104
 486 40 486 40 511 33 c 2,105,-1
 550 28 l 1,106,-1
 619 26 l 1,107,-1
 855 26 l 1,108,-1
 855 -27 l 1,0,-1
278 114 m 2,109,-1
 279 129 l 2,110,111
 279 155 279 155 263.5 174.5 c 128,-1,112
 248 194 248 194 230 194 c 0,113,114
 206 194 206 194 174 161 c 1,115,116
 151 129 151 129 151 90 c 0,117,118
 151 65 151 65 161 48 c 0,119,120
 172 33 172 33 198 24 c 1,121,122
 229 27 229 27 249 46 c 0,123,124
 278 70 278 70 278 114 c 2,109,-1
EndSplineSet
EndChar

StartChar: u11318
Encoding: 70424 70424 54
Width: 1168
Flags: W
LayerCount: 2
Fore
SplineSet
1126 402 m 1,0,-1
 1032 -14 l 1,1,-1
 330 -14 l 1,2,-1
 330 43 l 1,3,4
 375 55 375 55 403.5 107.5 c 128,-1,5
 432 160 432 160 432 226 c 0,6,7
 432 287 432 287 408 329 c 0,8,9
 378 373 378 373 303 373 c 0,10,11
 201 373 201 373 142 314 c 0,12,13
 88 260 88 260 88 178 c 0,14,15
 88 150 88 150 97 119.5 c 128,-1,16
 106 89 106 89 125 65 c 1,17,-1
 121 87 l 1,18,-1
 120 109 l 2,19,20
 120 162 120 162 156 208 c 128,-1,21
 192 254 192 254 256 254 c 0,22,23
 298 254 298 254 326 226 c 128,-1,24
 354 198 354 198 354 143 c 0,25,26
 354 58 354 58 301 17 c 0,27,28
 261 -14 261 -14 205 -14 c 0,29,30
 122 -14 122 -14 79 53 c 0,31,32
 65 77 65 77 54 111 c 0,33,34
 45 144 45 144 45 178 c 0,35,36
 45 281 45 281 129 359 c 1,37,38
 205 420 205 420 297 420 c 0,39,40
 413 420 413 420 466 371 c 0,41,42
 516 326 516 326 516 230 c 0,43,44
 516 176 516 176 492 114 c 0,45,46
 474 75 474 75 441 39 c 1,47,-1
 686 39 l 1,48,-1
 768 399 l 1,49,-1
 839 402 l 1,50,-1
 751 39 l 1,51,-1
 973 39 l 1,52,-1
 1053 399 l 1,53,-1
 1126 402 l 1,0,-1
295 144 m 0,54,55
 295 161 295 161 281 182 c 0,56,57
 269 203 269 203 250 207 c 0,58,59
 220 210 220 210 189 183 c 0,60,61
 161 155 161 155 161 123 c 0,62,63
 161 92 161 92 171.5 68.5 c 128,-1,64
 182 45 182 45 207 45 c 0,65,66
 237 45 237 45 261 63 c 0,67,68
 295 89 295 89 295 144 c 0,54,55
EndSplineSet
EndChar

StartChar: uniE10A
Encoding: 57610 57610 55
Width: 1356
Flags: W
LayerCount: 2
Fore
SplineSet
1263 459 m 1,0,-1
 1158 -120 l 1,1,-1
 38 -120 l 1,2,-1
 50 -64 l 1,3,-1
 561 -63 l 1,4,-1
 714 -63 l 1,5,-1
 768 -57 l 1,6,7
 879 7 879 7 919 61 c 0,8,9
 954 108 954 108 954 162 c 0,10,11
 954 184 954 184 947.5 211 c 128,-1,12
 941 238 941 238 918 251 c 128,-1,13
 895 264 895 264 867 264 c 0,14,15
 845 264 845 264 827 259 c 2,16,-1
 819 256 l 1,17,-1
 783 99 l 2,18,19
 783 86 783 86 781 73.5 c 128,-1,20
 779 61 779 61 777 52 c 0,21,22
 765 4 765 4 736 -2 c 128,-1,23
 707 -8 707 -8 686 -8 c 0,24,25
 642 -8 642 -8 605.5 10 c 128,-1,26
 569 28 569 28 547.5 63.5 c 128,-1,27
 526 99 526 99 526 131 c 0,28,29
 526 166 526 166 549 206 c 0,30,31
 563 231 563 231 609 294 c 1,32,33
 554 373 554 373 512.5 408 c 128,-1,34
 471 443 471 443 425 443 c 0,35,36
 409 443 409 443 397 441 c 128,-1,37
 385 439 385 439 363 432 c 0,38,39
 294 410 294 410 249 354 c 0,40,41
 216 315 216 315 198 261 c 2,42,-1
 186 216 l 1,43,44
 209 245 209 245 247 267 c 0,45,46
 293 289 293 289 315 289 c 2,47,-1
 360 288 l 1,48,49
 382 280 382 280 397 265 c 0,50,51
 409 253 409 253 420 246 c 0,52,53
 439 230 439 230 439 162 c 0,54,55
 439 132 439 132 433.5 108.5 c 128,-1,56
 428 85 428 85 414 66 c 0,57,58
 388 29 388 29 345.5 8 c 128,-1,59
 303 -13 303 -13 261 -13 c 0,60,61
 232 -13 232 -13 211.5 -3.5 c 128,-1,62
 191 6 191 6 180 24 c 2,63,-1
 147 80 l 1,64,65
 135 113 135 113 135 159 c 0,66,67
 135 214 135 214 160 290 c 0,68,69
 166 309 166 309 169.5 319 c 128,-1,70
 173 329 173 329 180 342 c 0,71,72
 214 416 214 416 295 458 c 0,73,74
 361 491 361 491 439 491 c 0,75,76
 488 491 488 491 519 477 c 0,77,78
 568 456 568 456 616 397 c 0,79,80
 628 383 628 383 654 342 c 1,81,-1
 652 349 l 1,82,-1
 648 345 l 1,83,-1
 684 524 l 1,84,-1
 980 524 l 1,85,-1
 970 476 l 1,86,-1
 862 476 l 1,87,-1
 827 315 l 1,88,-1
 850 319 l 1,89,-1
 883 322 l 2,90,91
 918 322 918 322 949.5 310 c 128,-1,92
 981 298 981 298 999 270 c 0,93,94
 1032 216 1032 216 1032 171 c 0,95,96
 1032 149 1032 149 1026 125 c 2,97,-1
 1006 66 l 2,98,99
 994 31 994 31 972 7 c 1,100,-1
 879 -66 l 1,101,-1
 1084 -56 l 1,102,-1
 1198 459 l 1,103,-1
 1263 459 l 1,0,-1
814 476 m 1,104,-1
 718 476 l 1,105,-1
 683 312 l 1,106,-1
 779 312 l 1,107,-1
 814 476 l 1,104,-1
772 260 m 1,108,-1
 672 264 l 2,109,110
 664 264 664 264 641 249 c 0,111,112
 622 237 622 237 606 216 c 0,113,114
 594 200 594 200 584 177 c 0,115,116
 577 154 577 154 577 137 c 0,117,118
 577 105 577 105 597 78 c 0,119,120
 614 54 614 54 633 44 c 128,-1,121
 652 34 652 34 682 34 c 2,122,-1
 695 34 l 1,123,-1
 711 36 l 1,124,-1
 772 260 l 1,108,-1
384 132 m 2,125,-1
 385 151 l 2,126,127
 385 186 385 186 371 210 c 0,128,129
 359 234 359 234 327 243 c 1,130,-1
 315 244 l 2,131,132
 276 244 276 244 234 211 c 0,133,134
 186 173 186 173 186 124 c 0,135,136
 186 89 186 89 209 64 c 128,-1,137
 232 39 232 39 270 33 c 2,138,-1
 283 32 l 2,139,140
 322 32 322 32 350 60.5 c 128,-1,141
 378 89 378 89 384 132 c 2,125,-1
EndSplineSet
Ligature2: "'akhn' Akhand lookup 0-1" u1131E u1134D u1131A
EndChar

StartChar: u11308
Encoding: 70408 70408 56
Width: 1061
Flags: W
LayerCount: 2
Fore
SplineSet
962 138 m 0,0,1
 941 138 941 138 915 156 c 1,2,3
 899 175 899 175 899 200 c 0,4,5
 899 224 899 224 915.5 243.5 c 128,-1,6
 932 263 932 263 962 263 c 256,7,8
 992 263 992 263 1008.5 244 c 128,-1,9
 1025 225 1025 225 1025 200 c 0,10,11
 1025 176 1025 176 1009 157 c 128,-1,12
 993 138 993 138 962 138 c 0,0,1
89 142 m 0,13,14
 71 142 71 142 45 160 c 1,15,16
 30 178 30 178 30 204 c 0,17,18
 30 219 30 219 45 248 c 1,19,20
 61 267 61 267 89 267 c 0,21,22
 116 267 116 267 132 248 c 128,-1,23
 148 229 148 229 148 204 c 0,24,25
 148 180 148 180 132 161 c 128,-1,26
 116 142 116 142 89 142 c 0,13,14
750 357 m 1,27,-1
 568 357 l 1,28,-1
 518 116 l 1,29,-1
 518 109 l 2,30,31
 518 91 518 91 542 62 c 1,32,33
 567 43 567 43 594 43 c 0,34,35
 640 43 640 43 666.5 60.5 c 128,-1,36
 693 78 693 78 704 117 c 2,37,-1
 750 357 l 1,27,-1
452 140 m 2,38,-1
 498 357 l 1,39,-1
 279 357 l 1,40,-1
 199 -16 l 1,41,-1
 154 -16 l 1,42,-1
 243 412 l 1,43,-1
 1001 412 l 1,44,-1
 990 357 l 1,45,-1
 798 357 l 1,46,-1
 748 90 l 2,47,48
 742 61 742 61 702 22 c 1,49,50
 654 -14 654 -14 581 -14 c 0,51,52
 527 -14 527 -14 488 25 c 0,53,54
 474 39 474 39 461 66.5 c 128,-1,55
 448 94 448 94 448 117 c 0,56,57
 448 131 448 131 452 140 c 2,38,-1
EndSplineSet
EndChar

StartChar: uniE108
Encoding: 57608 57608 57
Width: 890
Flags: W
LayerCount: 2
Fore
SplineSet
104 413 m 0,0,1
 104 433 104 433 99 442 c 0,2,3
 96 451 96 451 85 452 c 0,4,5
 69 452 69 452 58.5 438.5 c 128,-1,6
 48 425 48 425 48 407 c 0,7,8
 48 380 48 380 75 380 c 0,9,10
 83 380 83 380 92 388.5 c 128,-1,11
 101 397 101 397 104 413 c 0,0,1
250 300 m 1,12,-1
 382 304 l 1,13,-1
 372 258 l 1,14,-1
 264 258 l 1,15,-1
 178 249 l 2,16,17
 129 240 129 240 102 204 c 2,18,-1
 75 168 l 1,19,-1
 78 142 l 2,20,21
 81 131 81 131 108 84 c 0,22,23
 117 69 117 69 152 69 c 1,24,-1
 171 72 l 1,25,-1
 191 70 l 2,26,27
 225 70 225 70 266 88 c 128,-1,28
 307 106 307 106 343 133 c 0,29,30
 374 160 374 160 385.5 174 c 128,-1,31
 397 188 397 188 403 212 c 1,32,-1
 442 212 l 1,33,34
 445 179 445 179 455 160.5 c 128,-1,35
 465 142 465 142 482.5 123.5 c 128,-1,36
 500 105 500 105 528.5 89.5 c 128,-1,37
 557 74 557 74 587 74 c 0,38,39
 611 74 611 74 633 87 c 0,40,41
 662 105 662 105 682 119.5 c 128,-1,42
 702 134 702 134 711 143 c 0,43,44
 738 173 738 173 756 228 c 1,45,-1
 756 243 l 1,46,-1
 757 254 l 2,47,48
 757 276 757 276 756 285.5 c 128,-1,49
 755 295 755 295 748 314 c 128,-1,50
 741 333 741 333 723 360 c 0,51,52
 711 379 711 379 657 409 c 2,53,-1
 576 450 l 1,54,-1
 577 483 l 1,55,-1
 634 476 l 1,56,57
 643 468 643 468 662 460 c 0,58,59
 713 442 713 442 726 432 c 2,60,-1
 776 398 l 2,61,62
 800 377 800 377 810 345 c 2,63,-1
 821 315 l 2,64,65
 827 300 827 300 827 278 c 2,66,-1
 826 255 l 2,67,68
 826 247 826 247 826 239 c 0,69,70
 823 229 823 229 822 225 c 0,71,72
 813 165 813 165 772 115 c 0,73,74
 745 81 745 81 705 54 c 0,75,76
 679 36 679 36 638.5 23.5 c 128,-1,77
 598 11 598 11 568 11 c 0,78,79
 529 11 529 11 479 35 c 0,80,81
 438 59 438 59 412 109 c 1,82,83
 379 73 379 73 306 46.5 c 128,-1,84
 233 20 233 20 179 20 c 0,85,86
 116 20 116 20 78 46 c 0,87,88
 68 53 68 53 60 62 c 128,-1,89
 52 71 52 71 42 90 c 0,90,91
 24 123 24 123 24 152 c 0,92,93
 24 172 24 172 34 186 c 2,94,-1
 44 202 l 1,95,-1
 65 229 l 2,96,97
 72 238 72 238 92 249 c 2,98,-1
 110 258 l 1,99,-1
 -2 258 l 1,100,-1
 10 297 l 1,101,-1
 162 298 l 1,102,-1
 194 318 l 2,103,104
 225 339 225 339 240 364 c 1,105,-1
 247 381 l 1,106,-1
 249 399 l 2,107,108
 249 416 249 416 241 432 c 128,-1,109
 233 448 233 448 225 456 c 0,110,111
 197 476 197 476 158 476 c 2,112,-1
 138 475 l 1,113,114
 163 444 163 444 163 408 c 0,115,116
 163 377 163 377 143 356 c 128,-1,117
 123 335 123 335 86 335 c 2,118,-1
 70 336 l 2,119,120
 52 336 52 336 32 353 c 0,121,122
 14 371 14 371 8 413 c 1,123,124
 8 459 8 459 50.5 489 c 128,-1,125
 93 519 93 519 163 519 c 0,126,127
 195 519 195 519 233 507 c 0,128,129
 286 489 286 489 298 452 c 2,130,-1
 303 429 l 1,131,-1
 304 407 l 2,132,133
 304 361 304 361 273 326 c 2,134,-1
 250 300 l 1,12,-1
EndSplineSet
Ligature2: "'akhn' Akhand lookup 0-1" u11326 u1134D u11327
EndChar

StartChar: u11316
Encoding: 70422 70422 58
Width: 947
Flags: W
LayerCount: 2
Fore
SplineSet
260 150 m 0,0,1
 260 167 260 167 246 188 c 0,2,3
 234 209 234 209 215 213 c 0,4,5
 182 218 182 218 152 189 c 0,6,7
 125 160 125 160 125 128 c 2,8,-1
 126 103 l 2,9,10
 128 90 128 90 136 75 c 0,11,12
 148 52 148 52 172 52 c 0,13,14
 199 52 199 52 225 71 c 0,15,16
 260 98 260 98 260 150 c 0,0,1
468 340 m 0,17,18
 448 363 448 363 395 377.5 c 128,-1,19
 342 392 342 392 278 392 c 0,20,21
 210 392 210 392 162 378 c 0,22,23
 114 366 114 366 86 328 c 2,24,-1
 48 273 l 1,25,26
 39 249 39 249 39 180 c 0,27,28
 39 150 39 150 51 123 c 128,-1,29
 63 96 63 96 88 71 c 1,30,-1
 83 113 l 1,31,32
 83 173 83 173 118 214 c 0,33,34
 157 259 157 259 221 259 c 0,35,36
 263 259 263 259 291 231 c 128,-1,37
 319 203 319 203 319 151 c 0,38,39
 319 67 319 67 266 24 c 0,40,41
 225 -8 225 -8 170 -8 c 0,42,43
 94 -8 94 -8 37 58 c 1,44,45
 -4 113 -4 113 -4 180 c 0,46,47
 -4 259 -4 259 18 304 c 0,48,49
 25 320 25 320 64 366 c 0,50,51
 94 402 94 402 151 420 c 128,-1,52
 208 438 208 438 274 438 c 0,53,54
 402 438 402 438 488 384 c 0,55,56
 526 361 526 361 550 311 c 0,57,58
 560 288 560 288 566 264 c 128,-1,59
 572 240 572 240 572 216 c 0,60,61
 572 187 572 187 544 135 c 2,62,-1
 516 84 l 1,63,-1
 478 44 l 1,64,-1
 782 50 l 1,65,-1
 810 398 l 1,66,-1
 874 398 l 1,67,-1
 844 -8 l 1,68,-1
 372 -8 l 2,69,70
 369 -5 369 -5 369 3 c 2,71,-1
 374 36 l 1,72,-1
 376 60 l 1,73,-1
 376 176 l 1,74,75
 400 182 400 182 410.5 138 c 128,-1,76
 421 94 421 94 430 94 c 0,77,78
 436 94 436 94 444 102 c 0,79,80
 475 133 475 133 493 168 c 128,-1,81
 511 203 511 203 511 240 c 0,82,83
 511 294 511 294 468 340 c 0,17,18
EndSplineSet
EndChar

StartChar: uniE107
Encoding: 57607 57607 59
Width: 1308
Flags: W
LayerCount: 2
Fore
SplineSet
378 347 m 1,0,-1
 243 347 l 1,1,-1
 220 231 l 1,2,-1
 356 231 l 1,3,-1
 378 347 l 1,0,-1
341 177 m 1,4,-1
 190 177 l 2,5,6
 137 177 137 177 104 153 c 1,7,8
 85 134 85 134 85 96 c 0,9,10
 85 66 85 66 114 49 c 0,11,12
 145 35 145 35 192 35 c 0,13,14
 258 35 258 35 296 72 c 0,15,16
 325 102 325 102 341 177 c 1,4,-1
699 60 m 1,17,-1
 702 94 l 2,18,19
 702 133 702 133 679 153 c 0,20,21
 649 180 649 180 576 180 c 1,22,-1
 572 148 l 1,23,-1
 562 86 l 2,24,25
 562 71 562 71 567 63 c 0,26,27
 577 46 577 46 582.5 38.5 c 128,-1,28
 588 31 588 31 594 26 c 128,-1,29
 600 21 600 21 617 16 c 2,30,-1
 639 13 l 2,31,32
 656 13 656 13 672.5 23.5 c 128,-1,33
 689 34 689 34 699 60 c 1,17,-1
819 204 m 1,34,35
 850 193 850 193 878 165 c 0,36,37
 903 137 903 137 903 109 c 2,38,-1
 901 94 l 1,39,-1
 890 55 l 1,40,-1
 873 36 l 1,41,-1
 1056 35 l 1,42,-1
 1136 395 l 1,43,-1
 1213 396 l 1,44,-1
 1116 -15 l 1,45,-1
 789 -15 l 1,46,-1
 823 44 l 2,47,48
 824 46 824 46 824 47 c 0,49,50
 828 57 828 57 833 67 c 0,51,52
 843 87 843 87 843 126 c 1,53,-1
 839 136 l 1,54,55
 824 160 824 160 779 172 c 0,56,57
 757 178 757 178 717 184 c 2,58,-1
 702 186 l 1,59,-1
 730 151 l 2,60,61
 739 136 739 136 747 105 c 1,62,-1
 749 87 l 2,63,64
 749 60 749 60 735 39 c 0,65,66
 709 0 709 0 677 -15 c 1,67,-1
 651 -21 l 2,68,69
 648 -24 648 -24 636 -24 c 0,70,71
 616 -24 616 -24 592 -15 c 0,72,73
 564 -3 564 -3 537 24 c 0,74,75
 527 39 527 39 522 57 c 2,76,-1
 518 93 l 1,77,-1
 521 134 l 1,78,-1
 524 173 l 1,79,-1
 523 177 l 1,80,-1
 409 177 l 1,81,-1
 396 133 l 2,82,83
 379 75 379 75 342 26 c 1,84,85
 297 -22 297 -22 213 -22 c 0,86,87
 117 -22 117 -22 70 14 c 1,88,89
 39 45 39 45 39 105 c 0,90,91
 39 159 39 159 78 195 c 128,-1,92
 117 231 117 231 174 231 c 1,93,-1
 211 402 l 1,94,-1
 507 402 l 1,95,-1
 501 345 l 1,96,-1
 448 347 l 1,97,-1
 427 231 l 1,98,-1
 484 230 l 1,99,-1
 653 228 l 1,100,-1
 819 204 l 1,34,35
EndSplineSet
Ligature2: "'akhn' Akhand lookup 0-1" u11324 u1134D u11335
EndChar

StartChar: u11340
Encoding: 70464 70464 60
Width: 96
Flags: W
LayerCount: 2
Fore
SplineSet
74 573 m 0,0,1
 74 520 74 520 43.5 488 c 128,-1,2
 13 456 13 456 -26 456 c 0,3,4
 -53 456 -53 456 -74.5 462 c 128,-1,5
 -96 468 -96 468 -111 482 c 0,6,7
 -142 508 -142 508 -142 565 c 2,8,-1
 -141 598 l 2,9,10
 -141 612 -141 612 -137 621 c 0,11,12
 -134 640 -134 640 -123 656 c 1,13,14
 -159 650 -159 650 -188.5 629.5 c 128,-1,15
 -218 609 -218 609 -242 556 c 0,16,17
 -251 530 -251 530 -251 499 c 0,18,19
 -251 445 -251 445 -226.5 403 c 128,-1,20
 -202 361 -202 361 -155 361 c 0,21,22
 -130 361 -130 361 -121 366 c 2,23,-1
 -104 374 l 1,24,-1
 -85 386 l 1,25,-1
 -73 341 l 1,26,-1
 -94 330 l 1,27,-1
 -124 321 l 2,28,29
 -145 315 -145 315 -168 315 c 0,30,31
 -237 315 -237 315 -281 380 c 0,32,33
 -319 438 -319 438 -319 507 c 0,34,35
 -319 545 -319 545 -306 568 c 0,36,37
 -267 634 -267 634 -219 667 c 1,38,39
 -151 707 -151 707 -75 707 c 0,40,41
 -25 707 -25 707 25 677 c 1,42,43
 74 640 74 640 74 573 c 0,0,1
3 570 m 0,44,45
 3 608 3 608 -8 626.5 c 128,-1,46
 -19 645 -19 645 -45 645 c 0,47,48
 -66 645 -66 645 -79 629 c 128,-1,49
 -92 613 -92 613 -92 577 c 0,50,51
 -92 546 -92 546 -76 526.5 c 128,-1,52
 -60 507 -60 507 -27 507 c 0,53,54
 -9 507 -9 507 -3 525 c 128,-1,55
 3 543 3 543 3 570 c 0,44,45
EndSplineSet
EndChar

StartChar: uniE202
Encoding: 57858 57858 61
Width: 200
Flags: W
LayerCount: 2
Fore
SplineSet
-540 -444 m 1,0,-1
 -436 -465 l 2,1,2
 -411 -469 -411 -469 -389.5 -471 c 128,-1,3
 -368 -473 -368 -473 -346 -473 c 0,4,5
 -316 -473 -316 -473 -298 -471 c 128,-1,6
 -280 -469 -280 -469 -270 -468 c 0,7,8
 -232 -464 -232 -464 -184 -450 c 128,-1,9
 -136 -436 -136 -436 -88.5 -416 c 128,-1,10
 -41 -396 -41 -396 7 -367 c 0,11,12
 102 -313 102 -313 102 -282 c 2,13,-1
 99 113 l 1,14,-1
 14 113 l 1,15,-1
 14 166 l 1,16,-1
 264 166 l 1,17,-1
 264 113 l 1,18,-1
 169 113 l 1,19,-1
 168 -306 l 2,20,21
 168 -342 168 -342 133 -376 c 0,22,23
 109 -398 109 -398 0 -462 c 1,24,25
 -69 -494 -69 -494 -150 -510.5 c 128,-1,26
 -231 -527 -231 -527 -316 -527 c 0,27,28
 -400 -527 -400 -527 -497 -511 c 0,29,30
 -520 -507 -520 -507 -536 -504 c 128,-1,31
 -552 -501 -552 -501 -558 -498 c 1,32,-1
 -540 -444 l 1,0,-1
EndSplineSet
Ligature2: "'rkrf' Rakar Forms lookup 3-1" u1134D u11330
EndChar

StartChar: u1133F
Encoding: 70463 70463 62
Width: 118
Flags: W
LayerCount: 2
Fore
SplineSet
86 419 m 1,0,-1
 7 36 l 1,1,-1
 -33 36 l 1,2,-1
 34 357 l 1,3,-1
 41 402 l 1,4,-1
 44 448 l 1,5,6
 44 604 44 604 -89 628 c 1,7,-1
 -112 630 l 1,8,9
 -170 630 -170 630 -205 577 c 0,10,11
 -216 560 -216 560 -226 531 c 2,12,-1
 -233 501 l 1,13,-1
 -236 468 l 1,14,15
 -236 422 -236 422 -216.5 391 c 128,-1,16
 -197 360 -197 360 -160 360 c 0,17,18
 -138 360 -138 360 -129 365 c 2,19,-1
 -108 373 l 1,20,-1
 -88 386 l 1,21,-1
 -73 341 l 1,22,-1
 -98 329 l 1,23,-1
 -125 319 l 1,24,-1
 -151 313 l 1,25,-1
 -175 311 l 1,26,27
 -230 311 -230 311 -266 359 c 128,-1,28
 -302 407 -302 407 -302 475 c 0,29,30
 -302 559 -302 559 -257 622 c 0,31,32
 -205 692 -205 692 -119 692 c 1,33,-1
 -86 689 l 1,34,35
 -9 689 -9 689 48 631 c 1,36,37
 93 577 93 577 93 487 c 1,38,-1
 91 456 l 1,39,-1
 86 419 l 1,0,-1
EndSplineSet
EndChar

StartChar: uniE104
Encoding: 57604 57604 63
Width: 852
Flags: W
LayerCount: 2
Fore
SplineSet
673 343 m 2,0,-1
 672 320 l 2,1,2
 672 299 672 299 667 282.5 c 128,-1,3
 662 266 662 266 652 249 c 0,4,5
 637 222 637 222 605 193 c 0,6,7
 582 171 582 171 561 162.5 c 128,-1,8
 540 154 540 154 512 154 c 1,9,-1
 449 165 l 1,10,-1
 398 170 l 2,11,12
 365 170 365 170 343 161 c 128,-1,13
 321 152 321 152 318 133 c 2,14,-1
 313 105 l 1,15,-1
 312 87 l 2,16,17
 312 70 312 70 326 56 c 2,18,-1
 350 34 l 1,19,20
 364 27 364 27 378 20 c 0,21,22
 387 16 387 16 409 8 c 0,23,24
 423 4 423 4 441 1 c 128,-1,25
 459 -2 459 -2 476 -2 c 1,26,-1
 533 19 l 2,27,28
 562 30 562 30 574.5 42.5 c 128,-1,29
 587 55 587 55 603 62 c 2,30,-1
 628 69 l 1,31,32
 644 69 644 69 650 60 c 1,33,-1
 649 30 l 2,34,35
 649 16 649 16 641 7 c 2,36,-1
 625 -10 l 1,37,38
 582 -47 582 -47 490 -47 c 0,39,40
 394 -47 394 -47 316 -5 c 0,41,42
 283 11 283 11 264 50 c 1,43,-1
 251 86 l 2,44,45
 243 97 243 97 243 118 c 0,46,47
 243 143 243 143 252.5 167.5 c 128,-1,48
 262 192 262 192 278 205 c 0,49,50
 293 213 293 213 313.5 217 c 128,-1,51
 334 221 334 221 341 222 c 128,-1,52
 348 223 348 223 365 223 c 2,53,-1
 401 226 l 1,54,-1
 444 222 l 2,55,56
 475 219 475 219 482 214 c 1,57,58
 504 214 504 214 528.5 221 c 128,-1,59
 553 228 553 228 573 242 c 0,60,61
 615 274 615 274 621 326 c 1,62,63
 621 385 621 385 582 427 c 0,64,65
 565 444 565 444 534 455 c 0,66,67
 522 459 522 459 504.5 462 c 128,-1,68
 487 465 487 465 470 465 c 0,69,70
 452 465 452 465 423 450 c 2,71,-1
 408 440 l 2,72,73
 403 434 403 434 397 417 c 2,74,-1
 371 301 l 1,75,-1
 320 301 l 1,76,-1
 336 418 l 1,77,78
 324 445 324 445 280 467 c 1,79,-1
 206 487 l 1,80,81
 177 487 177 487 150 480.5 c 128,-1,82
 123 474 123 474 107.5 462 c 128,-1,83
 92 450 92 450 78 428 c 0,84,85
 68 405 68 405 68 387 c 0,86,87
 68 364 68 364 74 350 c 128,-1,88
 80 336 80 336 104 324 c 1,89,-1
 107 379 l 2,90,91
 110 408 110 408 120 421 c 0,92,93
 141 450 141 450 185 450 c 0,94,95
 222 450 222 450 250 407 c 1,96,-1
 260 364 l 1,97,-1
 259 340 l 2,98,99
 259 334 259 334 252 321 c 0,100,101
 246 303 246 303 226 286 c 0,102,103
 198 264 198 264 148 264 c 0,104,105
 84 264 84 264 55 290 c 0,106,107
 19 320 19 320 19 389 c 0,108,109
 19 452 19 452 67 494 c 128,-1,110
 115 536 115 536 187 536 c 256,111,112
 259 536 259 536 309 514 c 0,113,114
 343 502 343 502 369 473 c 1,115,116
 387 494 387 494 420 503 c 128,-1,117
 453 512 453 512 488 512 c 0,118,119
 584 512 584 512 634 456 c 0,120,121
 673 411 673 411 673 343 c 2,0,-1
207 370 m 0,122,123
 205 384 205 384 195 390 c 128,-1,124
 185 396 185 396 169 396 c 0,125,126
 155 394 155 394 149 384 c 128,-1,127
 143 374 143 374 143 358 c 0,128,129
 145 344 145 344 155 338 c 128,-1,130
 165 332 165 332 181 332 c 0,131,132
 195 334 195 334 201 344 c 128,-1,133
 207 354 207 354 207 370 c 0,122,123
EndSplineSet
Ligature2: "'akhn' Akhand lookup 0-1" u1132E u1134D u1132E
EndChar

StartChar: u1131F
Encoding: 70431 70431 64
Width: 1168
Flags: W
LayerCount: 2
Fore
SplineSet
1137 39 m 1,0,-1
 1094 -14 l 1,1,-1
 612 -14 l 1,2,-1
 565 -256 l 1,3,-1
 489 -256 l 1,4,-1
 534 -14 l 1,5,-1
 34 -14 l 1,6,-1
 121 399 l 1,7,-1
 191 399 l 1,8,-1
 115 39 l 1,9,-1
 1098 39 l 1,10,-1
 1137 39 l 1,0,-1
EndSplineSet
EndChar

StartChar: u11339
Encoding: 70457 70457 65
Width: 1201
Flags: W
LayerCount: 2
Fore
SplineSet
309 144 m 0,0,1
 309 161 309 161 295 182 c 0,2,3
 283 203 283 203 264 207 c 0,4,5
 231 212 231 212 202.5 184 c 128,-1,6
 174 156 174 156 174 123 c 0,7,8
 174 89 174 89 185 67 c 0,9,10
 198 45 198 45 221 45 c 0,11,12
 241 45 241 45 274 63 c 1,13,14
 309 90 309 90 309 144 c 0,0,1
-9 -60 m 0,15,16
 -5 -56 -5 -56 10 -53 c 2,17,-1
 43 -51 l 1,18,-1
 81 -52 l 2,19,20
 102 -52 102 -52 112 -54 c 2,21,-1
 737 -54 l 2,22,23
 918 -54 918 -54 999 24 c 0,24,25
 1037 65 1037 65 1053 164 c 1,26,-1
 1058 207 l 1,27,-1
 1058 222 l 2,28,29
 1058 285 1058 285 1029 313 c 0,30,31
 1002 342 1002 342 947 342 c 0,32,33
 878 342 878 342 866 289 c 2,34,-1
 811 -14 l 1,35,-1
 745 -14 l 1,36,-1
 801 281 l 1,37,-1
 802 298 l 2,38,39
 802 324 802 324 788 337 c 0,40,41
 776 351 776 351 750 351 c 0,42,43
 722 351 722 351 703 335 c 128,-1,44
 684 319 684 319 672 279 c 1,45,-1
 616 -14 l 1,46,-1
 344 -14 l 1,47,-1
 344 43 l 1,48,49
 389 55 389 55 422 107.5 c 128,-1,50
 455 160 455 160 455 224 c 0,51,52
 455 290 455 290 427 328 c 0,53,54
 392 373 392 373 317 373 c 0,55,56
 215 373 215 373 156 314 c 0,57,58
 102 260 102 260 102 178 c 0,59,60
 102 145 102 145 108 117.5 c 128,-1,61
 114 90 114 90 134 70 c 1,62,-1
 130 105 l 1,63,64
 130 156 130 156 169 205 c 128,-1,65
 208 254 208 254 270 254 c 0,66,67
 312 254 312 254 340 226 c 128,-1,68
 368 198 368 198 368 143 c 0,69,70
 368 63 368 63 315 20 c 0,71,72
 272 -14 272 -14 219 -14 c 0,73,74
 138 -14 138 -14 92 53 c 0,75,76
 57 108 57 108 57 178 c 0,77,78
 57 289 57 289 142 359 c 0,79,80
 218 420 218 420 311 420 c 0,81,82
 424 420 424 420 476 368 c 0,83,84
 524 320 524 320 524 227 c 0,85,86
 524 162 524 162 502 111 c 0,87,88
 484 70 484 70 453 39 c 1,89,-1
 586 39 l 1,90,-1
 629 287 l 2,91,92
 638 335 638 335 674 371 c 128,-1,93
 710 407 710 407 760 407 c 0,94,95
 787 407 787 407 819 392 c 0,96,97
 827 387 827 387 847 359 c 1,98,99
 860 375 860 375 895 393 c 0,100,101
 925 405 925 405 956 405 c 0,102,103
 1029 405 1029 405 1089 352 c 128,-1,104
 1149 299 1149 299 1149 225 c 0,105,106
 1149 76 1149 76 1067 -9 c 0,107,108
 1012 -65 1012 -65 899 -97 c 1,109,110
 808 -110 808 -110 760 -110 c 2,111,-1
 145 -110 l 1,112,-1
 6 -99 l 1,113,-1
 -4 -92 l 2,114,115
 -13 -83 -13 -83 -14 -72 c 0,116,117
 -11 -63 -11 -63 -9 -60 c 0,15,16
EndSplineSet
EndChar

StartChar: u11337
Encoding: 70455 70455 66
Width: 934
Flags: W
LayerCount: 2
Fore
SplineSet
893 4 m 0,0,1
 893 -14 893 -14 867 -14 c 2,2,-1
 694 -14 l 1,3,-1
 581 -250 l 1,4,-1
 503 -250 l 1,5,-1
 616 -14 l 1,6,-1
 324 -14 l 1,7,-1
 324 43 l 1,8,9
 369 55 369 55 397.5 107.5 c 128,-1,10
 426 160 426 160 426 226 c 0,11,12
 426 287 426 287 402 329 c 0,13,14
 372 373 372 373 297 373 c 0,15,16
 197 373 197 373 138 314 c 0,17,18
 83 259 83 259 83 178 c 2,19,-1
 83 150 l 1,20,-1
 84 134 l 1,21,-1
 87 121 l 1,22,-1
 93 101 l 2,23,24
 98 89 98 89 117 68 c 1,25,-1
 113 86 l 1,26,-1
 112 109 l 2,27,28
 112 168 112 168 149.5 211 c 128,-1,29
 187 254 187 254 250 254 c 0,30,31
 292 254 292 254 320 226 c 128,-1,32
 348 198 348 198 348 143 c 0,33,34
 348 63 348 63 295 20 c 0,35,36
 252 -14 252 -14 200 -14 c 0,37,38
 116 -14 116 -14 73 53 c 0,39,40
 59 77 59 77 48 111 c 0,41,42
 39 144 39 144 39 178 c 0,43,44
 39 281 39 281 123 359 c 1,45,46
 199 420 199 420 291 420 c 0,47,48
 407 420 407 420 460 371 c 0,49,50
 510 326 510 326 510 230 c 0,51,52
 510 176 510 176 486 114 c 0,53,54
 468 75 468 75 435 39 c 1,55,-1
 637 39 l 1,56,-1
 690 150 l 1,57,58
 658 173 658 173 639.5 211.5 c 128,-1,59
 621 250 621 250 621 294 c 0,60,61
 621 334 621 334 638 360.5 c 128,-1,62
 655 387 655 387 700 405 c 1,63,-1
 722 407 l 1,64,65
 768 407 768 407 800 381 c 0,66,67
 837 350 837 350 837 301 c 0,68,69
 837 267 837 267 821 228 c 2,70,-1
 800 188 l 2,71,72
 788 167 788 167 768 144 c 1,73,-1
 881 40 l 1,74,-1
 885 35 l 1,75,-1
 890 24 l 2,76,77
 893 16 893 16 893 4 c 0,0,1
717 196 m 1,78,79
 734 210 734 210 750.5 241.5 c 128,-1,80
 767 273 767 273 767 299 c 0,81,82
 767 314 767 314 755 337 c 1,83,84
 739 353 739 353 710 353 c 0,85,86
 684 353 684 353 669 284 c 1,87,88
 669 252 669 252 680.5 229.5 c 128,-1,89
 692 207 692 207 717 196 c 1,78,79
810 39 m 1,90,-1
 743 103 l 1,91,-1
 713 39 l 1,92,-1
 810 39 l 1,90,-1
289 144 m 0,93,94
 289 161 289 161 275 182 c 0,95,96
 263 203 263 203 244 207 c 0,97,98
 211 210 211 210 183 183 c 0,99,100
 157 155 157 155 157 123 c 0,101,102
 157 92 157 92 167.5 68.5 c 128,-1,103
 178 45 178 45 201 45 c 0,104,105
 231 45 231 45 255 63 c 0,106,107
 289 89 289 89 289 144 c 0,93,94
EndSplineSet
EndChar

StartChar: u11323
Encoding: 70435 70435 67
Width: 1319
Flags: W
LayerCount: 2
Fore
SplineSet
1264 410 m 1,0,-1
 1257 357 l 1,1,-1
 1113 357 l 1,2,-1
 1070 -14 l 1,3,-1
 1000 -14 l 1,4,-1
 1046 358 l 1,5,6
 958 358 958 358 937 354 c 0,7,8
 864 346 864 346 832 322 c 1,9,10
 866 288 866 288 889 243 c 0,11,12
 919 184 919 184 919 124 c 1,13,14
 913 57 913 57 881 21.5 c 128,-1,15
 849 -14 849 -14 789 -14 c 0,16,17
 720 -14 720 -14 691 33 c 1,18,19
 672 76 672 76 672 130 c 2,20,-1
 672 164 l 1,21,-1
 677 191 l 2,22,23
 679 206 679 206 692 236 c 0,24,25
 713 291 713 291 747 326 c 1,26,27
 708 356 708 356 646 356 c 0,28,29
 598 356 598 356 551 329 c 1,30,31
 581 302 581 302 606 247 c 0,32,33
 635 183 635 183 635 124 c 0,34,35
 635 61 635 61 601 23.5 c 128,-1,36
 567 -14 567 -14 510 -14 c 0,37,38
 455 -14 455 -14 426 14 c 0,39,40
 391 47 391 47 391 130 c 0,41,42
 391 180 391 180 409 234 c 128,-1,43
 427 288 427 288 465 326 c 1,44,45
 443 340 443 340 400 350 c 2,46,-1
 356 358 l 1,47,-1
 305 361 l 1,48,49
 230 361 230 361 150 295 c 1,50,51
 87 235 87 235 87 178 c 0,52,53
 87 109 87 109 121 69 c 1,54,-1
 117 92 l 1,55,-1
 116 108 l 2,56,57
 116 169 116 169 154 211.5 c 128,-1,58
 192 254 192 254 254 254 c 0,59,60
 296 254 296 254 325 226.5 c 128,-1,61
 354 199 354 199 354 143 c 0,62,63
 354 65 354 65 300 20 c 0,64,65
 257 -14 257 -14 203 -14 c 0,66,67
 122 -14 122 -14 77 52 c 1,68,69
 43 114 43 114 43 178 c 0,70,71
 43 277 43 277 128 347 c 0,72,73
 207 412 207 412 297 412 c 0,74,75
 391 412 391 412 438 396 c 0,76,77
 474 387 474 387 512 359 c 1,78,79
 571 406 571 406 645 406 c 0,80,81
 721 406 721 406 792 359 c 1,82,83
 818 380 818 380 862 395 c 128,-1,84
 906 410 906 410 955 410 c 2,85,-1
 1264 410 l 1,0,-1
854 130 m 1,86,-1
 855 152 l 1,87,-1
 855 174 l 1,88,-1
 850 198 l 2,89,90
 850 205 850 205 835 229 c 0,91,92
 817 262 817 262 783 290 c 1,93,94
 756 272 756 272 735 221 c 1,95,-1
 720 173 l 1,96,-1
 715 144 l 1,97,-1
 715 129 l 2,98,99
 715 45 715 45 789 45 c 0,100,101
 806 45 806 45 830 66 c 0,102,103
 848 87 848 87 854 130 c 1,86,-1
572 130 m 1,104,-1
 573 152 l 2,105,106
 573 201 573 201 553 230 c 0,107,108
 535 263 535 263 502 290 c 1,109,110
 475 272 475 272 454 221 c 1,111,-1
 439 173 l 1,112,-1
 434 144 l 1,113,-1
 434 129 l 2,114,115
 434 45 434 45 510 45 c 0,116,117
 524 45 524 45 548 66 c 0,118,119
 566 87 566 87 572 130 c 1,104,-1
295 144 m 0,120,121
 295 161 295 161 281 182 c 0,122,123
 269 203 269 203 250 207 c 0,124,125
 220 210 220 210 189 183 c 0,126,127
 161 155 161 155 161 123 c 0,128,129
 161 92 161 92 171.5 68.5 c 128,-1,130
 182 45 182 45 205 45 c 0,131,132
 227 45 227 45 260 63 c 1,133,134
 295 89 295 89 295 144 c 0,120,121
EndSplineSet
EndChar

StartChar: u11309
Encoding: 70409 70409 68
Width: 865
Flags: W
LayerCount: 2
Fore
SplineSet
795 -14 m 1,0,-1
 146 -14 l 2,1,2
 110 -14 110 -14 81 2 c 0,3,4
 57 17 57 17 50 57 c 1,5,6
 50 102 50 102 74 117 c 0,7,8
 84 127 84 127 125 136 c 1,9,-1
 201 143 l 1,10,-1
 301 145 l 2,11,12
 370 145 370 145 422 175 c 128,-1,13
 474 205 474 205 474 244 c 0,14,15
 474 294 474 294 428.5 327 c 128,-1,16
 383 360 383 360 324 360 c 2,17,-1
 305 360 l 1,18,-1
 283 356 l 1,19,20
 323 316 323 316 323 263 c 0,21,22
 323 220 323 220 297 194 c 0,23,24
 266 163 266 163 215 163 c 2,25,-1
 198 164 l 2,26,27
 171 164 171 164 148 187 c 0,28,29
 118 216 118 216 118 268 c 0,30,31
 118 333 118 333 179 378 c 1,32,33
 234 410 234 410 328 410 c 0,34,35
 419 410 419 410 480 375 c 0,36,37
 554 333 554 333 554 254 c 0,38,39
 554 152 554 152 436 113 c 0,40,41
 402 103 402 103 318 91 c 1,42,-1
 237 86 l 1,43,-1
 138 84 l 2,44,45
 127 84 127 84 122 79 c 128,-1,46
 117 74 117 74 117 57 c 0,47,48
 117 48 117 48 128 45 c 2,49,-1
 160 43 l 1,50,-1
 795 43 l 1,51,-1
 795 -14 l 1,0,-1
249 266 m 0,52,53
 249 284 249 284 243 302 c 128,-1,54
 237 320 237 320 220 324 c 1,55,-1
 201 321 l 1,56,-1
 183 309 l 2,57,58
 164 292 164 292 164 269 c 0,59,60
 164 241 164 241 172 228 c 128,-1,61
 180 215 180 215 203 215 c 0,62,63
 214 215 214 215 231.5 230 c 128,-1,64
 249 245 249 245 249 266 c 0,52,53
EndSplineSet
EndChar

StartChar: u11325
Encoding: 70437 70437 69
Width: 1113
Flags: W
LayerCount: 2
Fore
SplineSet
781 355 m 0,0,1
 778 383 778 383 768.5 400.5 c 128,-1,2
 759 418 759 418 735 423 c 0,3,4
 714 426 714 426 695 413 c 0,5,6
 681 403 681 403 667 377 c 1,7,-1
 659 355 l 1,8,-1
 656 329 l 2,9,10
 656 304 656 304 665 288 c 128,-1,11
 674 272 674 272 696 264 c 1,12,-1
 711 262 l 2,13,14
 740 262 740 262 760.5 291 c 128,-1,15
 781 320 781 320 781 355 c 0,0,1
856 365 m 1,16,-1
 817 294 l 2,17,18
 793 258 793 258 769 240 c 0,19,20
 738 217 738 217 706 217 c 0,21,22
 682 217 682 217 669 219 c 128,-1,23
 656 221 656 221 646 227.5 c 128,-1,24
 636 234 636 234 616 257 c 1,25,26
 596 308 596 308 596 337 c 0,27,28
 596 356 596 356 602 376 c 2,29,-1
 612 401 l 2,30,31
 631 449 631 449 682 477 c 0,32,33
 695 485 695 485 722 493 c 0,34,35
 737 496 737 496 749 498 c 128,-1,36
 761 500 761 500 774 500 c 0,37,38
 799 500 799 500 826 493 c 0,39,40
 889 468 889 468 916 445 c 1,41,-1
 930 429 l 1,42,43
 951 394 951 394 967.5 341.5 c 128,-1,44
 984 289 984 289 984 261 c 2,45,-1
 984 231 l 2,46,47
 984 179 984 179 956 133 c 0,48,49
 934 99 934 99 926 81 c 0,50,51
 922 71 922 71 888 37 c 0,52,53
 850 -2 850 -2 778 -32.5 c 128,-1,54
 706 -63 706 -63 648 -63 c 0,55,56
 608 -63 608 -63 534 -56 c 0,57,58
 501 -56 501 -56 476 -52.5 c 128,-1,59
 451 -49 451 -49 438 -45 c 0,60,61
 410 -37 410 -37 348 4 c 2,62,-1
 293 41 l 1,63,64
 263 8 263 8 229 -8 c 2,65,-1
 209 -15 l 1,66,-1
 196 -19 l 1,67,-1
 165 -22 l 1,68,69
 111 -22 111 -22 77 13 c 0,70,71
 53 43 53 43 53 76 c 2,72,-1
 56 105 l 1,73,-1
 143 473 l 1,74,-1
 192 471 l 1,75,-1
 106 105 l 1,76,-1
 104 86 l 2,77,78
 104 62 104 62 118 48 c 0,79,80
 137 29 137 29 172 29 c 256,81,82
 207 29 207 29 235 46.5 c 128,-1,83
 263 64 263 64 272 94 c 2,84,-1
 362 469 l 1,85,-1
 414 469 l 1,86,-1
 332 121 l 1,87,88
 332 101 332 101 373 67 c 0,89,90
 388 55 388 55 402 44.5 c 128,-1,91
 416 34 416 34 433.5 24 c 128,-1,92
 451 14 451 14 515 2 c 0,93,94
 577 -7 577 -7 644 -7 c 0,95,96
 682 -7 682 -7 756 38 c 128,-1,97
 830 83 830 83 868 133 c 0,98,99
 887 160 887 160 902 200 c 128,-1,100
 917 240 917 240 917 278 c 0,101,102
 917 313 917 313 903 335.5 c 128,-1,103
 889 358 889 358 856 365 c 1,16,-1
EndSplineSet
EndChar

StartChar: u11327
Encoding: 70439 70439 70
Width: 980
Flags: W
LayerCount: 2
Fore
SplineSet
143 35 m 0,0,1
 175 35 175 35 205 50 c 0,2,3
 231 65 231 65 246 97 c 1,4,-1
 300 345 l 1,5,-1
 372 345 l 1,6,-1
 323 119 l 1,7,-1
 320 93 l 2,8,9
 320 75 320 75 371 40 c 0,10,11
 421 9 421 9 480 -3 c 1,12,-1
 557 -13 l 1,13,-1
 633 -17 l 1,14,-1
 645 -17 l 2,15,16
 652 -17 652 -17 660 -15 c 0,17,18
 729 2 729 2 744 17 c 2,19,-1
 786 71 l 2,20,21
 810 100 810 100 822.5 134 c 128,-1,22
 835 168 835 168 835 199 c 0,23,24
 835 223 835 223 828 243 c 2,25,-1
 808 305 l 2,26,27
 802 321 802 321 773 364.5 c 128,-1,28
 744 408 744 408 699 421 c 0,29,30
 676 425 676 425 656 429.5 c 128,-1,31
 636 434 636 434 609 441 c 1,32,-1
 600 474 l 1,33,-1
 624 472 l 1,34,35
 704 472 704 472 745 458 c 128,-1,36
 786 444 786 444 816 405 c 0,37,38
 865 341 865 341 867 334 c 2,39,-1
 888 255 l 1,40,-1
 892 213 l 1,41,42
 892 160 892 160 876.5 105 c 128,-1,43
 861 50 861 50 837 21 c 0,44,45
 797 -25 797 -25 771 -41 c 0,46,47
 721 -69 721 -69 606 -87 c 1,48,-1
 552 -91 l 2,49,50
 507 -91 507 -91 461 -81 c 2,51,-1
 414 -69 l 2,52,53
 408 -69 408 -69 389 -53 c 2,54,-1
 339 -12 l 1,55,56
 311 2 311 2 284 33 c 1,57,58
 266 2 266 2 234 -12 c 0,59,60
 217 -20 217 -20 201.5 -24 c 128,-1,61
 186 -28 186 -28 166 -28 c 0,62,63
 118 -28 118 -28 79 -1 c 0,64,65
 42 27 42 27 42 74 c 1,66,-1
 45 99 l 1,67,-1
 107 376 l 1,68,-1
 155 376 l 1,69,-1
 90 87 l 1,70,-1
 111 59 l 2,71,72
 132 35 132 35 143 35 c 0,0,1
EndSplineSet
EndChar

StartChar: u1132A
Encoding: 70442 70442 71
Width: 1373
Flags: W
LayerCount: 2
Fore
SplineSet
1327 402 m 1,0,-1
 1235 -14 l 1,1,-1
 330 -14 l 1,2,-1
 330 43 l 1,3,4
 375 55 375 55 403.5 107.5 c 128,-1,5
 432 160 432 160 432 226 c 0,6,7
 432 287 432 287 408 329 c 0,8,9
 378 373 378 373 303 373 c 0,10,11
 201 373 201 373 142 314 c 0,12,13
 88 260 88 260 88 178 c 0,14,15
 88 150 88 150 97 119.5 c 128,-1,16
 106 89 106 89 125 65 c 1,17,-1
 121 87 l 1,18,-1
 120 109 l 2,19,20
 120 162 120 162 156 208 c 128,-1,21
 192 254 192 254 256 254 c 0,22,23
 298 254 298 254 326 226 c 128,-1,24
 354 198 354 198 354 143 c 0,25,26
 354 58 354 58 301 17 c 0,27,28
 261 -14 261 -14 205 -14 c 0,29,30
 122 -14 122 -14 79 53 c 0,31,32
 65 77 65 77 54 111 c 0,33,34
 45 144 45 144 45 178 c 0,35,36
 45 281 45 281 129 359 c 1,37,38
 205 420 205 420 297 420 c 0,39,40
 413 420 413 420 466 371 c 0,41,42
 516 326 516 326 516 230 c 0,43,44
 516 176 516 176 492 114 c 0,45,46
 474 75 474 75 441 39 c 1,47,-1
 1174 39 l 1,48,-1
 1254 399 l 1,49,-1
 1327 402 l 1,0,-1
295 144 m 0,50,51
 295 161 295 161 281 182 c 0,52,53
 269 203 269 203 250 207 c 0,54,55
 220 210 220 210 189 183 c 0,56,57
 161 155 161 155 161 123 c 0,58,59
 161 92 161 92 171.5 68.5 c 128,-1,60
 182 45 182 45 207 45 c 0,61,62
 237 45 237 45 261 63 c 0,63,64
 295 89 295 89 295 144 c 0,50,51
EndSplineSet
EndChar

StartChar: u1132C
Encoding: 70444 70444 72
Width: 1117
Flags: W
LayerCount: 2
Fore
SplineSet
1079 402 m 1,0,-1
 987 -14 l 1,1,-1
 648 -14 l 1,2,-1
 648 43 l 1,3,4
 692 55 692 55 721 108 c 128,-1,5
 750 161 750 161 750 226 c 0,6,7
 750 283 750 283 723 327 c 1,8,9
 690 369 690 369 616 369 c 0,10,11
 591 369 591 369 560 338 c 0,12,13
 533 308 533 308 520 237 c 1,14,-1
 492 -14 l 1,15,-1
 400 -14 l 1,16,-1
 432 223 l 1,17,-1
 437 248 l 1,18,19
 437 290 437 290 400 328 c 0,20,21
 357 369 357 369 291 369 c 0,22,23
 198 369 198 369 142 314 c 0,24,25
 90 262 90 262 90 184 c 0,26,27
 90 150 90 150 97.5 123 c 128,-1,28
 105 96 105 96 120 79 c 1,29,-1
 116 98 l 1,30,-1
 115 116 l 2,31,32
 115 172 115 172 153 213 c 128,-1,33
 191 254 191 254 252 254 c 0,34,35
 298 254 298 254 327 225 c 0,36,37
 358 197 358 197 358 143 c 0,38,39
 358 65 358 65 301 20 c 0,40,41
 255 -14 255 -14 201 -14 c 0,42,43
 118 -14 118 -14 75 53 c 0,44,45
 61 77 61 77 50 111 c 0,46,47
 41 144 41 144 41 178 c 0,48,49
 41 289 41 289 123 359 c 0,50,51
 196 420 196 420 293 420 c 0,52,53
 323 420 323 420 348 415 c 128,-1,54
 373 410 373 410 384 406.5 c 128,-1,55
 395 403 395 403 410 394 c 0,56,57
 462 370 462 370 491 311 c 1,58,59
 512 366 512 366 547.5 393 c 128,-1,60
 583 420 583 420 625 420 c 0,61,62
 739 420 739 420 789 371 c 0,63,64
 833 325 833 325 833 230 c 0,65,66
 833 177 833 177 809 114 c 0,67,68
 791 72 791 72 758 39 c 1,69,-1
 928 39 l 1,70,-1
 1008 399 l 1,71,-1
 1079 402 l 1,0,-1
285 142 m 0,72,73
 285 161 285 161 274 182 c 0,74,75
 265 203 265 203 246 207 c 0,76,77
 213 210 213 210 185 183 c 0,78,79
 159 155 159 155 159 123 c 0,80,81
 159 92 159 92 169.5 68.5 c 128,-1,82
 180 45 180 45 203 45 c 0,83,84
 231 45 231 45 251 65 c 0,85,86
 278 92 278 92 285 142 c 0,72,73
EndSplineSet
EndChar

StartChar: u1132E
Encoding: 70446 70446 73
Width: 567
Flags: W
LayerCount: 2
Fore
SplineSet
274 246 m 1,0,-1
 275 257 l 2,1,2
 275 277 275 277 255 293 c 0,3,4
 230 312 230 312 201 312 c 0,5,6
 162 312 162 312 143.5 302.5 c 128,-1,7
 125 293 125 293 121 279 c 1,8,9
 121 261 121 261 140 242 c 0,10,11
 166 219 166 219 211 219 c 2,12,-1
 222 219 l 1,13,-1
 230 219 l 1,14,-1
 241 222 l 2,15,16
 247 222 247 222 256 228 c 128,-1,17
 265 234 265 234 274 246 c 1,0,-1
173 349 m 1,18,-1
 194 350 l 2,19,20
 249 350 249 350 281 324 c 0,21,22
 320 294 320 294 320 240 c 0,23,24
 317 207 317 207 286 180.5 c 128,-1,25
 255 154 255 154 208 154 c 0,26,27
 140 154 140 154 95 202 c 1,28,29
 69 236 69 236 69 284 c 0,30,31
 69 319 69 319 102 357 c 0,32,33
 141 402 141 402 201 411 c 1,34,-1
 264 415 l 1,35,-1
 344 419 l 2,36,37
 391 419 391 419 428.5 410 c 128,-1,38
 466 401 466 401 492 378 c 0,39,40
 541 332 541 332 541 250 c 0,41,42
 541 212 541 212 527 172.5 c 128,-1,43
 513 133 513 133 494 111 c 0,44,45
 471 84 471 84 435 72 c 0,46,47
 415 66 415 66 362 60 c 2,48,-1
 243 49 l 1,49,50
 170 49 170 49 139 42 c 0,51,52
 85 30 85 30 85 -5 c 0,53,54
 85 -20 85 -20 90 -30 c 0,55,56
 99 -52 99 -52 106 -58 c 2,57,-1
 170 -90 l 2,58,59
 182 -95 182 -95 221 -100 c 2,60,-1
 274 -105 l 1,61,-1
 304 -105 l 1,62,-1
 316 -105 l 2,63,64
 360 -105 360 -105 384 -102 c 0,65,66
 404 -102 404 -102 434 -88 c 2,67,-1
 460 -75 l 1,68,-1
 468 -46 l 1,69,70
 477 2 477 2 483 2 c 0,71,72
 505 2 505 2 514 -1 c 128,-1,73
 523 -4 523 -4 523 -11 c 2,74,-1
 522 -18 l 1,75,-1
 522 -24 l 1,76,-1
 513 -101 l 1,77,-1
 444 -129 l 2,78,79
 410 -140 410 -140 376 -145 c 0,80,81
 346 -148 346 -148 293 -148 c 2,82,-1
 279 -148 l 1,83,-1
 267 -148 l 2,84,85
 247 -148 247 -148 229 -147 c 128,-1,86
 211 -146 211 -146 197 -143 c 0,87,88
 179 -143 179 -143 163 -138.5 c 128,-1,89
 147 -134 147 -134 123 -124 c 2,90,-1
 79 -107 l 2,91,92
 58 -98 58 -98 45 -75 c 0,93,94
 39 -60 39 -60 36 -38 c 2,95,-1
 33 -4 l 2,96,97
 33 25 33 25 39 36 c 0,98,99
 61 73 61 73 108 88 c 1,100,-1
 198 102 l 1,101,-1
 296 109 l 2,102,103
 332 109 332 109 360 113.5 c 128,-1,104
 388 118 388 118 420 128 c 128,-1,105
 452 138 452 138 469 162 c 0,106,107
 478 177 478 177 487 214 c 1,108,-1
 488 237 l 1,109,-1
 489 259 l 2,110,111
 489 273 489 273 488 278.5 c 128,-1,112
 487 284 487 284 480.5 298 c 128,-1,113
 474 312 474 312 450 330 c 0,114,115
 413 358 413 358 388.5 366.5 c 128,-1,116
 364 375 364 375 337 375 c 2,117,-1
 319 374 l 1,118,-1
 301 374 l 1,119,-1
 221 369 l 1,120,-1
 173 349 l 1,18,-1
EndSplineSet
EndChar

StartChar: u11330
Encoding: 70448 70448 74
Width: 924
Flags: W
LayerCount: 2
Fore
SplineSet
883 355 m 1,0,-1
 874 301 l 1,1,-1
 680 301 l 1,2,-1
 629 35 l 2,3,4
 629 17 629 17 618 0 c 0,5,6
 609 -18 609 -18 584 -34 c 0,7,8
 536 -70 536 -70 463 -70 c 0,9,10
 409 -70 409 -70 370.5 -34 c 128,-1,11
 332 2 332 2 332 56 c 0,12,13
 332 75 332 75 334 79 c 2,14,-1
 380 301 l 1,15,-1
 161 301 l 1,16,-1
 86 -60 l 1,17,-1
 42 -60 l 1,18,-1
 127 355 l 1,19,-1
 883 355 l 1,0,-1
632 301 m 1,20,-1
 450 301 l 1,21,-1
 401 63 l 1,22,-1
 400 51 l 2,23,24
 400 24 400 24 423.5 5.5 c 128,-1,25
 447 -13 447 -13 475 -13 c 0,26,27
 527 -13 527 -13 553 6 c 0,28,29
 572 18 572 18 588 59 c 1,30,-1
 632 301 l 1,20,-1
EndSplineSet
EndChar

StartChar: uniE10C
Encoding: 57612 57612 75
Width: 1148
Flags: W
LayerCount: 2
Fore
SplineSet
926 188 m 1,0,1
 943 203 943 203 956 233 c 2,2,-1
 965 261 l 1,3,-1
 969 290 l 2,4,5
 969 308 969 308 957 334 c 1,6,7
 941 353 941 353 913 353 c 0,8,9
 900 353 900 353 885 338 c 0,10,11
 881 331 881 331 872 284 c 1,12,13
 872 259 872 259 887 223 c 0,14,15
 894 206 894 206 926 188 c 1,0,1
1012 39 m 1,16,-1
 946 101 l 1,17,-1
 915 39 l 1,18,-1
 1012 39 l 1,16,-1
568 102 m 1,19,-1
 565 145 l 2,20,21
 559 175 559 175 546 184 c 1,22,23
 529 178 529 178 503 148 c 1,24,25
 484 112 484 112 484 91 c 0,26,27
 484 74 484 74 492 62 c 0,28,29
 501 53 501 53 519 47 c 0,30,31
 540 44 540 44 552 57 c 1,32,-1
 568 102 l 1,19,-1
384 357 m 1,33,-1
 249 357 l 1,34,-1
 226 239 l 1,35,-1
 359 239 l 1,36,-1
 384 357 l 1,33,-1
242 43 m 0,37,38
 284 43 284 43 310 81 c 0,39,40
 319 94 319 94 345 187 c 1,41,-1
 196 187 l 2,42,43
 136 187 136 187 115 180.5 c 128,-1,44
 94 174 94 174 70.5 157.5 c 128,-1,45
 47 141 47 141 45 126 c 2,46,-1
 30 75 l 2,47,48
 28 69 28 69 47 53 c 0,49,50
 66 39 66 39 78 39 c 0,51,52
 84 39 84 39 112.5 77 c 128,-1,53
 141 115 141 115 150 120 c 2,54,-1
 177 135 l 1,55,-1
 195 150 l 1,56,-1
 214 115 l 1,57,58
 214 102 214 102 215 94.5 c 128,-1,59
 216 87 216 87 223 65 c 128,-1,60
 230 43 230 43 242 43 c 0,37,38
621 252 m 1,61,62
 687 252 687 252 725 214 c 128,-1,63
 763 176 763 176 763 123 c 0,64,65
 763 77 763 77 734 39 c 1,66,-1
 840 39 l 1,67,-1
 892 149 l 1,68,69
 870 163 870 163 843 209 c 1,70,71
 824 260 824 260 824 293 c 0,72,73
 824 334 824 334 844 364 c 128,-1,74
 864 394 864 394 905 403 c 1,75,-1
 929 405 l 2,76,77
 971 405 971 405 1005.5 377.5 c 128,-1,78
 1040 350 1040 350 1040 301 c 0,79,80
 1040 267 1040 267 1024 228 c 2,81,-1
 1003 188 l 2,82,83
 991 167 991 167 971 144 c 1,84,-1
 1082 39 l 1,85,-1
 1092 24 l 2,86,87
 1098 18 1098 18 1096 3 c 0,88,89
 1096 -14 1096 -14 1069 -14 c 2,90,-1
 895 -14 l 1,91,-1
 784 -252 l 1,92,-1
 706 -252 l 1,93,-1
 819 -14 l 1,94,-1
 643 -14 l 1,95,96
 689 47 689 47 689 88 c 2,97,-1
 688 103 l 2,98,99
 688 141 688 141 660 175 c 128,-1,100
 632 209 632 209 595 209 c 1,101,102
 615 191 615 191 625 157 c 2,103,-1
 632 128 l 1,104,-1
 635 105 l 1,105,106
 635 67 635 67 611.5 30.5 c 128,-1,107
 588 -6 588 -6 543 -6 c 0,108,109
 496 -6 496 -6 470 14 c 128,-1,110
 444 34 444 34 444 78 c 2,111,-1
 446 108 l 2,112,113
 446 125 446 125 465 157 c 0,114,115
 472 170 472 170 485 185 c 1,116,-1
 416 185 l 1,117,-1
 405 147 l 1,118,-1
 387 101 l 2,119,120
 375 68 375 68 363 53 c 0,121,122
 319 -14 319 -14 244 -14 c 0,123,124
 214 -14 214 -14 190 13 c 0,125,126
 169 40 169 40 169 80 c 1,127,-1
 148 53 l 2,128,129
 143 45 143 45 135 42 c 2,130,-1
 84 -12 l 1,131,132
 73 -12 73 -12 41 9 c 2,133,-1
 3 36 l 2,134,135
 -4 43 -4 43 -4 68 c 2,136,-1
 -2 104 l 1,137,-1
 0 132 l 2,138,139
 0 160 0 160 38 186 c 2,140,-1
 73 210 l 2,141,142
 111 239 111 239 180 239 c 1,143,-1
 213 410 l 1,144,-1
 615 410 l 1,145,-1
 604 357 l 1,146,-1
 452 357 l 1,147,-1
 432 239 l 1,148,-1
 538 239 l 1,149,-1
 621 252 l 1,61,62
EndSplineSet
Ligature2: "'akhn' Akhand lookup 0-1" u11315 u1134D u11337
EndChar

StartChar: u11333
Encoding: 70451 70451 76
Width: 1220
Flags: W
LayerCount: 2
Fore
SplineSet
96 26 m 0,0,1
 114 26 114 26 127 39 c 128,-1,2
 140 52 140 52 140 68 c 0,3,4
 140 87 140 87 126 103 c 128,-1,5
 112 119 112 119 89 119 c 0,6,7
 74 121 74 121 61 112 c 0,8,9
 56 108 56 108 44 84 c 1,10,11
 44 68 44 68 46 65 c 2,12,-1
 57 47 l 2,13,14
 72 29 72 29 96 26 c 0,0,1
576 408 m 1,15,16
 591 402 591 402 606 396 c 0,17,18
 628 386 628 386 643 376 c 0,19,20
 663 365 663 365 690 336 c 0,21,22
 703 323 703 323 703 285 c 0,23,24
 703 267 703 267 700 248.5 c 128,-1,25
 697 230 697 230 690 210 c 0,26,27
 668 146 668 146 624 100 c 1,28,-1
 546 30 l 1,29,-1
 533 40 l 1,30,-1
 534 45 l 1,31,-1
 666 36 l 1,32,-1
 1187 37 l 1,33,-1
 1187 -20 l 1,34,-1
 547 -14 l 2,35,36
 510 -14 510 -14 481 5 c 0,37,38
 475 10 475 10 475 16 c 0,39,40
 475 24 475 24 483.5 41 c 128,-1,41
 492 58 492 58 492 66 c 0,42,43
 492 76 492 76 536 99 c 0,44,45
 567 115 567 115 594 144 c 0,46,47
 614 164 614 164 632 194 c 0,48,49
 658 237 658 237 658 267 c 1,50,-1
 654 288 l 1,51,52
 639 333 639 333 607 349 c 0,53,54
 587 360 587 360 556 360 c 2,55,-1
 542 360 l 2,56,57
 517 360 517 360 492 349 c 0,58,59
 468 340 468 340 440.5 297 c 128,-1,60
 413 254 413 254 392 169 c 1,61,62
 359 266 359 266 318 304 c 1,63,64
 273 357 273 357 217 357 c 2,65,-1
 182 357 l 2,66,67
 146 357 146 357 120.5 347.5 c 128,-1,68
 95 338 95 338 80 308 c 0,69,70
 77 299 77 299 75 293.5 c 128,-1,71
 73 288 73 288 63 269 c 0,72,73
 51 241 51 241 48.5 224 c 128,-1,74
 46 207 46 207 40 201 c 0,75,76
 37 196 37 196 32 172 c 2,77,-1
 29 150 l 1,78,79
 58 182 58 182 100 182 c 0,80,81
 139 182 139 182 169.5 151 c 128,-1,82
 200 120 200 120 200 65 c 0,83,84
 200 32 200 32 175 7 c 128,-1,85
 150 -18 150 -18 108 -18 c 0,86,87
 48 -18 48 -18 16 23 c 0,88,89
 8 31 8 31 -7 72 c 1,90,-1
 -13 102 l 1,91,-1
 -15 139 l 2,92,93
 -15 203 -15 203 1 248 c 2,94,-1
 36 332 l 2,95,96
 55 382 55 382 113 403 c 0,97,98
 154 416 154 416 217 416 c 0,99,100
 266 416 266 416 323 377 c 1,101,102
 359 347 359 347 387 300 c 1,103,104
 417 361 417 361 446 378 c 0,105,106
 494 408 494 408 576 408 c 1,15,16
EndSplineSet
EndChar

StartChar: u1131B
Encoding: 70427 70427 77
Width: 1065
Flags: W
LayerCount: 2
Fore
SplineSet
1016 184 m 0,0,1
 1016 100 1016 100 982 41 c 0,2,3
 955 -3 955 -3 921 -13 c 1,4,-1
 51 -14 l 1,5,-1
 40 39 l 1,6,-1
 473 39 l 1,7,8
 498 64 498 64 512.5 105 c 128,-1,9
 527 146 527 146 527 193 c 2,10,-1
 526 220 l 2,11,12
 526 228 526 228 519 243 c 0,13,14
 516 253 516 253 495 293 c 0,15,16
 459 349 459 349 413 349 c 1,17,18
 432 334 432 334 443 302.5 c 128,-1,19
 454 271 454 271 454 225 c 0,20,21
 454 183 454 183 412 145 c 1,22,23
 374 119 374 119 314 119 c 0,24,25
 275 119 275 119 231 164 c 1,26,27
 193 210 193 210 193 261 c 0,28,29
 193 315 193 315 237 355 c 0,30,31
 258 375 258 375 289.5 385 c 128,-1,32
 321 395 321 395 343 395 c 0,33,34
 448 395 448 395 513 348 c 0,35,36
 587 294 587 294 587 189 c 0,37,38
 587 159 587 159 572 116.5 c 128,-1,39
 557 74 557 74 529 39 c 1,40,-1
 674 39 l 1,41,-1
 723 349 l 1,42,43
 732 375 732 375 767.5 392.5 c 128,-1,44
 803 410 803 410 845 410 c 0,45,46
 944 401 944 401 980 352.5 c 128,-1,47
 1016 304 1016 304 1016 184 c 0,0,1
971 185 m 0,48,49
 971 252 971 252 956 294 c 0,50,51
 929 355 929 355 847 355 c 0,52,53
 816 355 816 355 804 344 c 0,54,55
 792 335 792 335 786 301 c 2,56,-1
 743 39 l 1,57,-1
 911 39 l 1,58,59
 934 51 934 51 950 83 c 0,60,61
 971 125 971 125 971 185 c 0,48,49
333 336 m 1,62,63
 299 327 299 327 285 313 c 0,64,65
 258 289 258 289 258 241 c 0,66,67
 258 229 258 229 264 214 c 0,68,69
 270 203 270 203 286 185 c 0,70,71
 301 171 301 171 326 160 c 1,72,73
 362 160 362 160 383 182 c 1,74,-1
 398 206 l 1,75,76
 403 222 403 222 405 238 c 0,77,78
 405 272 405 272 386 298 c 0,79,80
 374 318 374 318 333 336 c 1,62,63
EndSplineSet
EndChar

StartChar: u1131D
Encoding: 70429 70429 78
Width: 912
Flags: W
LayerCount: 2
Fore
SplineSet
308 170 m 1,0,-1
 250 170 l 1,1,-1
 238 68 l 1,2,-1
 292 68 l 1,3,-1
 308 170 l 1,0,-1
584 64 m 0,4,5
 598 46 598 46 616 36.5 c 128,-1,6
 634 27 634 27 652 27 c 0,7,8
 679 27 679 27 712 44 c 2,9,-1
 749 64 l 2,10,11
 775 79 775 79 794 110 c 2,12,-1
 820 152 l 2,13,14
 828 163 828 163 832 186 c 2,15,-1
 836 241 l 1,16,-1
 836 256 l 2,17,18
 836 265 836 265 834 275 c 0,19,20
 834 285 834 285 828 300 c 0,21,22
 818 329 818 329 786 350 c 0,23,24
 762 365 762 365 741 365 c 1,25,-1
 724 371 l 1,26,-1
 716 388 l 1,27,-1
 719 394 l 1,28,-1
 725 404 l 2,29,30
 734 416 734 416 751 416 c 0,31,32
 823 416 823 416 863 373 c 0,33,34
 898 335 898 335 898 279 c 1,35,-1
 895 240 l 2,36,37
 893 227 893 227 891.5 219.5 c 128,-1,38
 890 212 890 212 887 204 c 0,39,40
 881 161 881 161 875 138 c 0,41,42
 859 69 859 69 832 56 c 1,43,44
 825 44 825 44 798.5 21.5 c 128,-1,45
 772 -1 772 -1 748 -12 c 1,46,-1
 709 -20 l 1,47,-1
 663 -23 l 2,48,49
 605 -23 605 -23 567 -5 c 0,50,51
 521 17 521 17 512 68 c 1,52,-1
 502 104 l 2,53,54
 498 121 498 121 495 140.5 c 128,-1,55
 492 160 492 160 492 172 c 1,56,-1
 424 180 l 1,57,-1
 400 184 l 1,58,-1
 384 184 l 1,59,-1
 366 184 l 2,60,61
 349 184 349 184 346 178 c 2,62,-1
 330 16 l 1,63,-1
 250 14 l 1,64,-1
 186 16 l 1,65,-1
 216 220 l 1,66,-1
 292 220 l 1,67,-1
 308 347 l 1,68,-1
 176 347 l 1,69,-1
 114 -14 l 1,70,-1
 41 -14 l 1,71,-1
 111 412 l 1,72,-1
 480 412 l 1,73,-1
 472 348 l 1,74,-1
 377 347 l 1,75,-1
 356 224 l 1,76,-1
 496 224 l 1,77,-1
 520 284 l 1,78,79
 525 284 525 284 530.5 298.5 c 128,-1,80
 536 313 536 313 552 313 c 2,81,-1
 567 311 l 2,82,83
 576 310 576 310 580 304 c 0,84,85
 583 302 583 302 585 292 c 1,86,-1
 579 270 l 1,87,-1
 580 260 l 1,88,-1
 571 225 l 2,89,90
 562 183 562 183 562 148 c 0,91,92
 562 119 562 119 566.5 100.5 c 128,-1,93
 571 82 571 82 584 64 c 0,4,5
EndSplineSet
EndChar

StartChar: u11305
Encoding: 70405 70405 79
Width: 767
Flags: W
LayerCount: 2
Fore
SplineSet
720 424 m 1,0,-1
 685 197 l 2,1,2
 668 90 668 90 645 46 c 0,3,4
 615 -14 615 -14 558 -14 c 0,5,6
 490 -14 490 -14 462 5 c 0,7,8
 423 31 423 31 423 107 c 0,9,10
 423 145 423 145 465 187 c 1,11,-1
 416 187 l 1,12,-1
 403 143 l 2,13,14
 379 67 379 67 348 35 c 0,15,16
 302 -14 302 -14 220 -14 c 0,17,18
 139 -14 139 -14 100 7 c 0,19,20
 46 37 46 37 46 115 c 0,21,22
 46 172 46 172 85.5 205.5 c 128,-1,23
 125 239 125 239 181 239 c 1,24,-1
 218 410 l 1,25,-1
 616 410 l 1,26,-1
 605 357 l 1,27,-1
 455 357 l 1,28,-1
 434 239 l 1,29,-1
 640 239 l 1,30,-1
 672 426 l 1,31,-1
 720 424 l 1,0,-1
385 357 m 1,32,-1
 250 357 l 1,33,-1
 227 239 l 1,34,-1
 360 239 l 1,35,-1
 385 357 l 1,32,-1
346 187 m 1,36,-1
 197 187 l 2,37,38
 135 187 135 187 110 162 c 0,39,40
 91 143 91 143 91 105 c 0,41,42
 91 75 91 75 120 59 c 0,43,44
 151 45 151 45 199 45 c 0,45,46
 267 45 267 45 301 82 c 0,47,48
 330 112 330 112 346 187 c 1,36,-1
559 189 m 1,49,50
 531 180 531 180 491 150 c 0,51,52
 467 129 467 129 470 103 c 0,53,54
 470 30 470 30 544 30 c 0,55,56
 577 30 577 30 603 77 c 1,57,-1
 631 190 l 1,58,-1
 559 189 l 1,49,50
EndSplineSet
EndChar

StartChar: u1130B
Encoding: 70411 70411 80
Width: 649
Flags: W
LayerCount: 2
Fore
SplineSet
599 367 m 2,0,1
 593 316 593 316 570 286 c 1,2,3
 549 250 549 250 507 226 c 1,4,5
 532 214 532 214 549 188 c 0,6,7
 567 164 567 164 567 127 c 2,8,-1
 566 103 l 2,9,10
 566 95 566 95 559 78 c 0,11,12
 547 44 547 44 504 7 c 1,13,-1
 460 -14 l 1,14,-1
 434 -19 l 1,15,-1
 412 -21 l 2,16,17
 375 -21 375 -21 350 -8.5 c 128,-1,18
 325 4 325 4 296 39 c 1,19,20
 269 9 269 9 232 -6.5 c 128,-1,21
 195 -22 195 -22 170 -22 c 0,22,23
 117 -22 117 -22 79 15 c 0,24,25
 62 33 62 33 52 55 c 128,-1,26
 42 77 42 77 42 101 c 0,27,28
 42 122 42 122 49 139 c 0,29,30
 60 164 60 164 86 187.5 c 128,-1,31
 112 211 112 211 142 227 c 1,32,33
 85 266 85 266 85 345 c 1,34,-1
 87 370 l 1,35,36
 98 431 98 431 143 482 c 128,-1,37
 188 533 188 533 239 533 c 1,38,-1
 250 532 l 2,39,40
 291 526 291 526 313 495 c 128,-1,41
 335 464 335 464 335 427 c 0,42,43
 335 378 335 378 306 339.5 c 128,-1,44
 277 301 277 301 229 301 c 0,45,46
 207 301 207 301 178.5 313 c 128,-1,47
 150 325 150 325 134 350 c 1,48,49
 134 323 134 323 153 288 c 0,50,51
 165 267 165 267 195 258 c 1,52,-1
 230 253 l 1,53,-1
 275 251 l 1,54,-1
 326 251 l 1,55,-1
 357 250 l 1,56,-1
 385 250 l 1,57,-1
 423 253 l 2,58,59
 440 256 440 256 465 268 c 2,60,-1
 497 287 l 2,61,62
 513 297 513 297 534 326 c 1,63,64
 500 300 500 300 461 300 c 2,65,-1
 449 301 l 2,66,67
 410 307 410 307 391 336 c 0,68,69
 372 369 372 369 372 397 c 0,70,71
 372 442 372 442 402 486.5 c 128,-1,72
 432 531 432 531 482 531 c 1,73,-1
 504 528 l 2,74,75
 541 519 541 519 577 474 c 1,76,77
 601 435 601 435 601 388 c 1,78,-1
 599 367 l 2,0,1
506 400 m 0,79,80
 515 417 515 417 515 431 c 0,81,82
 515 452 515 452 493 467 c 1,83,-1
 476 472 l 1,84,85
 458 472 458 472 442.5 450.5 c 128,-1,86
 427 429 427 429 427 401 c 0,87,88
 427 388 427 388 439 367 c 1,89,-1
 459 359 l 1,90,91
 483 359 483 359 506 400 c 0,79,80
250 400 m 1,92,-1
 255 415 l 1,93,-1
 258 430 l 1,94,95
 258 453 258 453 235 467 c 1,96,-1
 222 471 l 2,97,98
 212 471 212 471 181 434 c 1,99,-1
 173 416 l 1,100,-1
 170 397 l 2,101,102
 170 380 170 380 183 367 c 1,103,-1
 203 359 l 1,104,105
 227 359 227 359 250 400 c 1,92,-1
493 124 m 1,106,107
 502 184 502 184 411 197 c 1,108,-1
 353 201 l 1,109,-1
 324 202 l 1,110,-1
 280 202 l 2,111,112
 198 202 198 202 175 191 c 1,113,114
 121 176 121 176 96 124 c 1,115,-1
 92 102 l 1,116,117
 92 74 92 74 113 54 c 128,-1,118
 134 34 134 34 166 34 c 0,119,120
 197 34 197 34 227 51 c 0,121,122
 264 71 264 71 300 113 c 1,123,124
 324 77 324 77 349 61 c 2,125,-1
 374 49 l 1,126,-1
 401 45 l 1,127,128
 435 45 435 45 461 70 c 0,129,130
 479 85 479 85 493 124 c 1,106,107
EndSplineSet
EndChar

StartChar: u11321
Encoding: 70433 70433 81
Width: 807
Flags: W
LayerCount: 2
Fore
SplineSet
753 124 m 0,0,1
 726 61 726 61 668 22 c 0,2,3
 643 5 643 5 611 -6 c 0,4,5
 598 -10 598 -10 582.5 -13 c 128,-1,6
 567 -16 567 -16 553 -16 c 0,7,8
 513 -16 513 -16 465 8 c 0,9,10
 424 32 424 32 398 82 c 1,11,12
 362 43 362 43 295 16.5 c 128,-1,13
 228 -10 228 -10 169 -10 c 256,14,15
 110 -10 110 -10 76 15 c 0,16,17
 37 44 37 44 37 101 c 2,18,-1
 37 116 l 1,19,-1
 41 141 l 2,20,21
 44 151 44 151 75 185 c 0,22,23
 98 205 98 205 135 227 c 1,24,25
 120 236 120 236 108 248 c 2,26,-1
 76 281 l 1,27,28
 58 308 58 308 58 332 c 0,29,30
 58 363 58 363 100 396 c 0,31,32
 122 410 122 410 147 417 c 2,33,-1
 174 422 l 1,34,-1
 203 424 l 2,35,36
 258 424 258 424 294.5 401 c 128,-1,37
 331 378 331 378 331 341 c 0,38,39
 331 318 331 318 298 274 c 1,40,41
 259 235 259 235 181 196 c 0,42,43
 153 182 153 182 116 148 c 1,44,45
 95 122 95 122 95 101 c 0,46,47
 95 86 95 86 110 66 c 1,48,49
 125 54 125 54 147 48 c 1,50,-1
 170 46 l 1,51,-1
 178 46 l 2,52,53
 255 46 255 46 329 107 c 0,54,55
 380 148 380 148 403 201 c 1,56,-1
 426 199 l 1,57,58
 435 133 435 133 471 94.5 c 128,-1,59
 507 56 507 56 550 56 c 0,60,61
 586 56 586 56 616 77 c 128,-1,62
 646 98 646 98 670 141 c 1,63,-1
 676 175 l 1,64,-1
 678 204 l 2,65,66
 678 249 678 249 657 285 c 0,67,68
 635 317 635 317 576 346 c 1,69,-1
 580 369 l 1,70,-1
 638 369 l 1,71,72
 680 363 680 363 722.5 305 c 128,-1,73
 765 247 765 247 765 184 c 0,74,75
 765 154 765 154 753 124 c 0,0,1
224 365 m 0,76,77
 184 365 184 365 168 357 c 0,78,79
 150 351 150 351 141 323 c 0,80,81
 132 293 132 293 184 252 c 1,82,-1
 215 271 l 1,83,-1
 249 297 l 1,84,85
 269 319 269 319 269 335 c 0,86,87
 269 347 269 347 256.5 356 c 128,-1,88
 244 365 244 365 224 365 c 0,76,77
EndSplineSet
EndChar

StartChar: u1130F
Encoding: 70415 70415 82
Width: 1329
Flags: W
LayerCount: 2
Fore
SplineSet
1283 410 m 1,0,-1
 1272 357 l 1,1,-1
 1130 357 l 1,2,-1
 1086 -14 l 1,3,-1
 1018 -14 l 1,4,-1
 1063 358 l 1,5,-1
 1039 359 l 1,6,-1
 1020 360 l 2,7,8
 974 360 974 360 923 351 c 128,-1,9
 872 342 872 342 848 322 c 1,10,11
 881 292 881 292 906 243 c 0,12,13
 920 212 920 212 927 184 c 2,14,-1
 932 155 l 1,15,-1
 934 124 l 2,16,17
 934 94 934 94 924.5 68.5 c 128,-1,18
 915 43 915 43 896 23 c 0,19,20
 864 -14 864 -14 807 -14 c 0,21,22
 736 -14 736 -14 708 33 c 0,23,24
 688 67 688 67 688 129 c 2,25,-1
 688 153 l 1,26,-1
 691 181 l 1,27,-1
 697 208 l 2,28,29
 700 224 700 224 708 237 c 0,30,31
 726 291 726 291 764 326 c 1,32,-1
 738 344 l 2,33,34
 720 353 720 353 706 350 c 0,35,36
 688 347 688 347 673 332 c 1,37,-1
 658 307 l 1,38,-1
 651 279 l 1,39,-1
 612 -6 l 1,40,-1
 322 -14 l 1,41,-1
 322 43 l 1,42,43
 368 55 368 55 401 109.5 c 128,-1,44
 434 164 434 164 434 224 c 0,45,46
 434 290 434 290 406 328 c 0,47,48
 371 373 371 373 295 373 c 0,49,50
 195 373 195 373 136 314 c 0,51,52
 81 259 81 259 81 178 c 2,53,-1
 81 150 l 1,54,-1
 82 134 l 1,55,-1
 85 121 l 1,56,-1
 91 101 l 2,57,58
 96 89 96 89 115 68 c 1,59,-1
 111 86 l 1,60,-1
 110 109 l 2,61,62
 110 168 110 168 147.5 211 c 128,-1,63
 185 254 185 254 248 254 c 0,64,65
 290 254 290 254 318 226 c 128,-1,66
 346 198 346 198 346 143 c 0,67,68
 346 63 346 63 293 20 c 0,69,70
 250 -14 250 -14 198 -14 c 0,71,72
 114 -14 114 -14 71 53 c 0,73,74
 57 77 57 77 46 111 c 0,75,76
 37 144 37 144 37 178 c 0,77,78
 37 281 37 281 121 359 c 1,79,80
 197 420 197 420 289 420 c 0,81,82
 403 420 403 420 456 368 c 0,83,84
 504 321 504 321 504 227 c 0,85,86
 504 163 504 163 481 111 c 0,87,88
 463 72 463 72 433 39 c 1,89,-1
 565 39 l 1,90,-1
 607 287 l 2,91,92
 616 334 616 334 644.5 368.5 c 128,-1,93
 673 403 673 403 710 403 c 0,94,95
 737 406 737 406 767 388 c 2,96,-1
 808 359 l 1,97,98
 834 381 834 381 879 395.5 c 128,-1,99
 924 410 924 410 969 410 c 2,100,-1
 1283 410 l 1,0,-1
869 130 m 2,101,-1
 870 142 l 1,102,-1
 870 150 l 1,103,-1
 870 178 l 1,104,-1
 865 199 l 2,105,106
 865 208 865 208 850 229 c 0,107,108
 837 254 837 254 796 290 c 1,109,110
 775 272 775 272 753 220 c 1,111,-1
 738 172 l 1,112,-1
 733 143 l 1,113,-1
 733 129 l 2,114,115
 733 45 733 45 805 45 c 0,116,117
 822 45 822 45 845 66 c 0,118,119
 863 87 863 87 869 130 c 2,101,-1
287 144 m 0,120,121
 287 161 287 161 273 182 c 0,122,123
 261 203 261 203 242 207 c 0,124,125
 209 210 209 210 181 183 c 0,126,127
 155 155 155 155 155 123 c 0,128,129
 155 92 155 92 165.5 68.5 c 128,-1,130
 176 45 176 45 200 45 c 0,131,132
 221 45 221 45 253 63 c 1,133,134
 287 91 287 91 287 144 c 0,120,121
EndSplineSet
EndChar

StartChar: u11317
Encoding: 70423 70423 83
Width: 762
Flags: W
LayerCount: 2
Fore
SplineSet
129 -104 m 1,0,-1
 76 -105 l 1,1,-1
 -16 -108 l 1,2,3
 -16 -72 -16 -72 19 -59 c 0,4,5
 41 -51 41 -51 81 -51 c 2,6,-1
 98 -51 l 1,7,-1
 225 -55 l 1,8,-1
 388 -59 l 2,9,10
 483 -59 483 -59 536 -51 c 0,11,12
 596 -45 596 -45 611 -24 c 0,13,14
 632 4 632 4 643 40 c 0,15,16
 649 63 649 63 649 94 c 2,17,-1
 649 117 l 1,18,-1
 650 132 l 1,19,-1
 635 204 l 1,20,21
 635 235 635 235 622.5 261 c 128,-1,22
 610 287 610 287 592 304 c 128,-1,23
 574 321 574 321 547 333 c 128,-1,24
 520 345 520 345 494 345 c 0,25,26
 462 345 462 345 422.5 323 c 128,-1,27
 383 301 383 301 377 273 c 2,28,-1
 341 103 l 2,29,30
 332 49 332 49 304 21 c 0,31,32
 284 3 284 3 219 -14 c 1,33,-1
 206 -15 l 2,34,35
 161 -15 161 -15 131.5 19 c 128,-1,36
 102 53 102 53 102 101 c 0,37,38
 102 120 102 120 106 132 c 2,39,-1
 160 387 l 1,40,-1
 221 380 l 1,41,-1
 168 117 l 1,42,-1
 166 98 l 2,43,44
 166 68 166 68 181 50.5 c 128,-1,45
 196 33 196 33 220 33 c 0,46,47
 269 33 269 33 300 139 c 1,48,-1
 324 287 l 2,49,50
 333 341 333 341 377 373 c 0,51,52
 392 384 392 384 426 389 c 128,-1,53
 460 394 460 394 472.5 394.5 c 128,-1,54
 485 395 485 395 493 395 c 0,55,56
 582 395 582 395 645 328 c 1,57,58
 688 273 688 273 688 211 c 2,59,-1
 690 137 l 1,60,-1
 692 75 l 2,61,62
 692 6 692 6 680 -35.5 c 128,-1,63
 668 -77 668 -77 634 -89 c 0,64,65
 618 -94 618 -94 575 -98 c 128,-1,66
 532 -102 532 -102 467 -102 c 2,67,-1
 226 -104 l 1,68,-1
 129 -104 l 1,0,-1
EndSplineSet
EndChar

StartChar: u11338
Encoding: 70456 70456 84
Width: 1360
Flags: W
LayerCount: 2
Fore
SplineSet
1302 270 m 0,0,1
 1311 241 1311 241 1311 212 c 0,2,3
 1311 121 1311 121 1240 56 c 0,4,5
 1164 -14 1164 -14 1046 -14 c 0,6,7
 950 -14 950 -14 896 20.5 c 128,-1,8
 842 55 842 55 842 120 c 0,9,10
 842 169 842 169 874 229 c 0,11,12
 886 250 886 250 886 278 c 0,13,14
 886 314 886 314 867.5 341.5 c 128,-1,15
 849 369 849 369 818 369 c 0,16,17
 788 369 788 369 760.5 331 c 128,-1,18
 733 293 733 293 721 228 c 2,19,-1
 667 -14 l 1,20,-1
 326 -14 l 1,21,-1
 326 43 l 1,22,23
 371 55 371 55 399.5 107.5 c 128,-1,24
 428 160 428 160 428 226 c 0,25,26
 428 287 428 287 404 329 c 0,27,28
 374 373 374 373 299 373 c 0,29,30
 197 373 197 373 139 314 c 0,31,32
 85 260 85 260 85 178 c 2,33,-1
 85 150 l 1,34,-1
 86 134 l 1,35,-1
 89 121 l 1,36,-1
 95 101 l 2,37,38
 100 89 100 89 119 68 c 1,39,-1
 115 86 l 1,40,-1
 114 109 l 2,41,42
 114 168 114 168 151.5 211 c 128,-1,43
 189 254 189 254 252 254 c 0,44,45
 294 254 294 254 322 226 c 128,-1,46
 350 198 350 198 350 143 c 0,47,48
 350 63 350 63 297 20 c 0,49,50
 254 -14 254 -14 201 -14 c 0,51,52
 118 -14 118 -14 75 53 c 0,53,54
 61 77 61 77 50 111 c 0,55,56
 41 144 41 144 41 178 c 0,57,58
 41 281 41 281 125 359 c 1,59,60
 201 420 201 420 293 420 c 0,61,62
 409 420 409 420 462 371 c 0,63,64
 512 326 512 326 512 230 c 0,65,66
 512 176 512 176 488 114 c 0,67,68
 470 75 470 75 437 39 c 1,69,-1
 629 39 l 1,70,-1
 682 274 l 2,71,72
 700 352 700 352 743 389 c 0,73,74
 780 420 780 420 828 420 c 0,75,76
 887 420 887 420 937 375 c 1,77,78
 974 332 974 332 974 278 c 0,79,80
 974 248 974 248 962 224 c 0,81,82
 930 163 930 163 930 122 c 0,83,84
 930 43 930 43 1048 43 c 0,85,86
 1130 43 1130 43 1190 93 c 128,-1,87
 1250 143 1250 143 1250 211 c 2,88,-1
 1250 222 l 1,89,-1
 1248 236 l 2,90,91
 1237 296 1237 296 1202 336 c 0,92,93
 1178 363 1178 363 1147 369 c 128,-1,94
 1116 375 1116 375 1116 394 c 0,95,96
 1116 404 1116 404 1143 419 c 1,97,98
 1149 431 1149 431 1208 397 c 0,99,100
 1274 355 1274 355 1302 270 c 0,0,1
291 144 m 0,101,102
 291 161 291 161 277 182 c 0,103,104
 265 203 265 203 246 207 c 0,105,106
 213 210 213 210 185 183 c 0,107,108
 159 155 159 155 159 123 c 0,109,110
 159 92 159 92 169.5 68.5 c 128,-1,111
 180 45 180 45 203 45 c 0,112,113
 233 45 233 45 257 63 c 0,114,115
 291 89 291 89 291 144 c 0,101,102
EndSplineSet
EndChar

StartChar: u11307
Encoding: 70407 70407 85
Width: 833
Flags: W
LayerCount: 2
Fore
SplineSet
310 258 m 0,0,1
 310 278 310 278 297.5 291.5 c 128,-1,2
 285 305 285 305 267 305 c 256,3,4
 249 305 249 305 233.5 292.5 c 128,-1,5
 218 280 218 280 218 258 c 0,6,7
 218 231 218 231 229 218 c 128,-1,8
 240 205 240 205 258 205 c 256,9,10
 276 205 276 205 293 219.5 c 128,-1,11
 310 234 310 234 310 258 c 0,0,1
244 156 m 0,12,13
 212 156 212 156 184.5 163.5 c 128,-1,14
 157 171 157 171 134 189 c 0,15,16
 87 224 87 224 87 281 c 0,17,18
 87 345 87 345 144 387 c 1,19,20
 193 416 193 416 277 416 c 0,21,22
 347 416 347 416 401 398 c 0,23,24
 414 394 414 394 457 359 c 1,25,26
 468 373 468 373 514 396 c 0,27,28
 527 404 527 404 543 408 c 2,29,-1
 576 412 l 2,30,31
 608 412 608 412 643 400 c 128,-1,32
 678 388 678 388 700 372 c 0,33,34
 752 335 752 335 752 270 c 0,35,36
 752 195 752 195 694 136 c 0,37,38
 667 109 667 109 638 94.5 c 128,-1,39
 609 80 609 80 578 80 c 2,40,-1
 236 80 l 1,41,-1
 151 80 l 2,42,43
 111 80 111 80 111 59 c 0,44,45
 111 50 111 50 120 44 c 0,46,47
 129 41 129 41 148 41 c 2,48,-1
 823 41 l 1,49,-1
 816 -14 l 1,50,-1
 136 -14 l 2,51,52
 91 -14 91 -14 67.5 4 c 128,-1,53
 44 22 44 22 44 57 c 0,54,55
 44 95 44 95 70 111 c 1,56,-1
 124 127 l 1,57,58
 160 133 160 133 212 133 c 2,59,-1
 566 133 l 2,60,61
 602 133 602 133 638 169 c 0,62,63
 679 212 679 212 679 271 c 0,64,65
 679 310 679 310 643 343 c 0,66,67
 612 369 612 369 586 369 c 0,68,69
 554 369 554 369 525.5 355 c 128,-1,70
 497 341 497 341 484 311 c 1,71,-1
 464 160 l 1,72,-1
 397 160 l 1,73,-1
 414 315 l 1,74,75
 400 337 400 337 354 364 c 1,76,77
 312 382 312 382 263 382 c 0,78,79
 216 382 216 382 175 358.5 c 128,-1,80
 134 335 134 335 134 286 c 0,81,82
 134 266 134 266 146 242.5 c 128,-1,83
 158 219 158 219 184 206 c 1,84,85
 185 217 185 217 184 225 c 2,86,-1
 180 251 l 1,87,-1
 180 265 l 2,88,89
 180 276 180 276 188 292 c 0,90,91
 198 321 198 321 231 336 c 0,92,93
 240 340 240 340 248.5 342 c 128,-1,94
 257 344 257 344 268 344 c 0,95,96
 305 344 305 344 328 327 c 0,97,98
 352 312 352 312 352 284 c 0,99,100
 352 220 352 220 329 190 c 0,101,102
 303 156 303 156 244 156 c 0,12,13
EndSplineSet
EndChar

StartChar: u11336
Encoding: 70454 70454 86
Width: 851
Flags: W
LayerCount: 2
Fore
SplineSet
814 407 m 1,0,-1
 796 360 l 1,1,-1
 745 84 l 2,2,3
 739 55 739 55 699 16 c 1,4,5
 651 -20 651 -20 578 -20 c 0,6,7
 526 -20 526 -20 484 19 c 0,8,9
 467 38 467 38 457 60 c 2,10,-1
 450 83 l 1,11,-1
 447 107 l 1,12,-1
 449 129 l 1,13,-1
 495 351 l 1,14,-1
 391 351 l 1,15,-1
 342 85 l 2,16,17
 337 46 337 46 296 16 c 0,18,19
 248 -20 248 -20 174 -20 c 0,20,21
 120 -20 120 -20 81.5 19.5 c 128,-1,22
 43 59 43 59 43 108 c 1,23,-1
 45 129 l 1,24,-1
 100 401 l 1,25,-1
 170 401 l 1,26,-1
 112 113 l 1,27,-1
 111 101 l 2,28,29
 111 74 111 74 134.5 55.5 c 128,-1,30
 158 37 158 37 186 37 c 0,31,32
 238 37 238 37 264 56 c 0,33,34
 283 68 283 68 299 109 c 1,35,-1
 354 407 l 1,36,-1
 814 407 l 1,0,-1
747 351 m 1,37,-1
 565 351 l 1,38,-1
 516 113 l 1,39,-1
 515 101 l 2,40,41
 515 74 515 74 538.5 55.5 c 128,-1,42
 562 37 562 37 590 37 c 0,43,44
 639 37 639 37 665.5 54.5 c 128,-1,45
 692 72 692 72 701 109 c 2,46,-1
 747 351 l 1,37,-1
EndSplineSet
EndChar

StartChar: u11315
Encoding: 70421 70421 87
Width: 661
Flags: W
LayerCount: 2
Fore
SplineSet
622 410 m 1,0,-1
 615 357 l 1,1,-1
 461 357 l 1,2,-1
 439 239 l 1,3,-1
 471 239 l 2,4,5
 556 239 556 239 588 210 c 0,6,7
 616 185 616 185 616 128 c 0,8,9
 616 102 616 102 577 46 c 0,10,11
 559 22 559 22 533 9 c 2,12,-1
 511 1 l 1,13,-1
 499 -1 l 1,14,-1
 484 -4 l 1,15,16
 459 -1 459 -1 435 26 c 1,17,-1
 423 58 l 1,18,-1
 420 84 l 2,19,20
 420 92 420 92 420 100 c 0,21,22
 423 108 423 108 424.5 114 c 128,-1,23
 426 120 426 120 428.5 127.5 c 128,-1,24
 431 135 431 135 440 156 c 2,25,-1
 452 190 l 1,26,-1
 432 187 l 1,27,-1
 422 190 l 1,28,29
 406 133 406 133 393.5 100.5 c 128,-1,30
 381 68 381 68 372 54 c 0,31,32
 330 -14 330 -14 254 -14 c 0,33,34
 224 -14 224 -14 200 13 c 0,35,36
 190 26 190 26 185 40 c 128,-1,37
 180 54 180 54 180 72 c 1,38,-1
 154 37 l 2,39,40
 145 24 145 24 138 21 c 2,41,-1
 84 -27 l 1,42,43
 68 -27 68 -27 53 -15 c 2,44,-1
 24 15 l 2,45,46
 12 27 12 27 6 40 c 2,47,-1
 1 62 l 1,48,-1
 4 81 l 1,49,-1
 12 105 l 1,50,51
 12 130 12 130 37 164 c 0,52,53
 55 188 55 188 83 210 c 0,54,55
 121 239 121 239 190 239 c 1,56,-1
 223 410 l 1,57,-1
 622 410 l 1,0,-1
558 110 m 2,58,-1
 564 137 l 1,59,-1
 569 160 l 2,60,61
 569 171 569 171 559.5 179.5 c 128,-1,62
 550 188 550 188 528 188 c 0,63,64
 504 188 504 188 490 168 c 0,65,66
 483 157 483 157 474 127 c 1,67,-1
 467 83 l 2,68,69
 467 59 467 59 484 48 c 0,70,71
 489 45 489 45 500 43 c 0,72,73
 517 43 517 43 534.5 63.5 c 128,-1,74
 552 84 552 84 558 110 c 2,58,-1
393 357 m 1,75,-1
 256 357 l 1,76,-1
 235 239 l 1,77,-1
 369 239 l 1,78,-1
 393 357 l 1,75,-1
354 187 m 1,79,-1
 205 187 l 2,80,81
 146 187 146 187 121 179 c 128,-1,82
 96 171 96 171 69 135 c 1,83,-1
 39 72 l 2,84,85
 36 66 36 66 53 46 c 0,86,87
 72 27 72 27 81 27 c 0,88,89
 87 27 87 27 109 53 c 2,90,-1
 132 78 l 2,91,92
 162 105 162 105 195 141 c 1,93,-1
 225 93 l 1,94,95
 224 83 224 83 231 62 c 0,96,97
 240 45 240 45 252 43 c 0,98,99
 294 43 294 43 320 81 c 0,100,101
 330 100 330 100 354 187 c 1,79,-1
EndSplineSet
EndChar

StartChar: u11335
Encoding: 70453 70453 88
Width: 787
Flags: W
LayerCount: 2
Fore
SplineSet
751 402 m 1,0,-1
 657 -14 l 1,1,-1
 318 -14 l 1,2,-1
 318 43 l 1,3,4
 363 55 363 55 391.5 107.5 c 128,-1,5
 420 160 420 160 420 226 c 0,6,7
 420 287 420 287 396 329 c 0,8,9
 366 373 366 373 291 373 c 0,10,11
 191 373 191 373 132 314 c 0,12,13
 77 259 77 259 77 178 c 2,14,-1
 77 150 l 1,15,-1
 78 134 l 1,16,-1
 81 121 l 1,17,-1
 87 101 l 2,18,19
 92 89 92 89 111 68 c 1,20,-1
 107 86 l 1,21,-1
 106 109 l 2,22,23
 106 168 106 168 143.5 211 c 128,-1,24
 181 254 181 254 244 254 c 0,25,26
 286 254 286 254 314 226 c 128,-1,27
 342 198 342 198 342 143 c 0,28,29
 342 63 342 63 289 20 c 0,30,31
 246 -14 246 -14 194 -14 c 0,32,33
 110 -14 110 -14 67 53 c 0,34,35
 53 77 53 77 42 111 c 0,36,37
 33 144 33 144 33 178 c 0,38,39
 33 281 33 281 117 359 c 1,40,41
 193 420 193 420 285 420 c 0,42,43
 401 420 401 420 454 371 c 0,44,45
 504 326 504 326 504 230 c 0,46,47
 504 176 504 176 480 114 c 0,48,49
 462 75 462 75 429 39 c 1,50,-1
 598 39 l 1,51,-1
 680 399 l 1,52,-1
 751 402 l 1,0,-1
283 144 m 0,53,54
 283 162 283 162 268.5 183 c 128,-1,55
 254 204 254 204 239 207 c 0,56,57
 213 210 213 210 177 183 c 1,58,59
 151 155 151 155 151 123 c 0,60,61
 151 92 151 92 161.5 68.5 c 128,-1,62
 172 45 172 45 196 45 c 0,63,64
 217 45 217 45 249 63 c 1,65,66
 283 91 283 91 283 144 c 0,53,54
EndSplineSet
EndChar

StartChar: uniE113
Encoding: 57619 57619 89
Width: 1161
Flags: W
LayerCount: 2
Fore
SplineSet
880 347 m 1,0,-1
 745 347 l 1,1,-1
 722 231 l 1,2,-1
 859 231 l 1,3,-1
 880 347 l 1,0,-1
845 177 m 1,4,-1
 694 177 l 2,5,6
 631 177 631 177 607 153 c 0,7,8
 588 134 588 134 588 96 c 0,9,10
 588 73 588 73 616 49 c 1,11,12
 647 35 647 35 694 35 c 0,13,14
 763 35 763 35 799 72 c 0,15,16
 821 95 821 95 845 177 c 1,4,-1
386 349 m 1,17,-1
 249 349 l 1,18,-1
 228 233 l 1,19,-1
 361 233 l 1,20,-1
 386 349 l 1,17,-1
217 53 m 1,21,-1
 227 39 l 2,22,23
 231 36 231 36 244 35 c 0,24,25
 286 35 286 35 312 73 c 0,26,27
 321 86 321 86 347 179 c 1,28,-1
 198 179 l 1,29,-1
 148 178 l 2,30,31
 122 178 122 178 109 173 c 2,32,-1
 78 165 l 2,33,34
 59 156 59 156 48 120 c 1,35,-1
 60 72 l 1,36,-1
 69 49 l 1,37,38
 82 30 82 30 102 30 c 0,39,40
 118 30 118 30 132 41 c 2,41,-1
 152 56 l 1,42,-1
 166 70 l 1,43,-1
 192 99 l 1,44,-1
 217 53 l 1,21,-1
522 -126 m 1,45,-1
 514 -126 l 1,46,-1
 501 -127 l 1,47,-1
 376 -126 l 1,48,-1
 87 -121 l 1,49,-1
 11 -122 l 2,50,51
 -15 -122 -15 -122 -18 -126 c 1,52,53
 -18 -105 -18 -105 -16 -99 c 0,54,55
 -12 -71 -12 -71 -3.5 -67.5 c 128,-1,56
 5 -64 5 -64 77 -64 c 0,57,58
 105 -64 105 -64 176 -65 c 128,-1,59
 247 -66 247 -66 291 -66 c 2,60,-1
 546 -72 l 1,61,-1
 633 -73 l 2,62,63
 649 -73 649 -73 681 -74 c 128,-1,64
 713 -75 713 -75 729 -75 c 2,65,-1
 761 -74 l 2,66,67
 835 -74 835 -74 885 -57 c 0,68,69
 937 -42 937 -42 975 -14 c 0,70,71
 1023 25 1023 25 1023 114 c 0,72,73
 1023 131 1023 131 1005 157 c 1,74,75
 980 179 980 179 933 179 c 2,76,-1
 912 178 l 1,77,78
 877 74 877 74 851 39 c 0,79,80
 804 -24 804 -24 715 -24 c 0,81,82
 634 -24 634 -24 595 -3 c 0,83,84
 541 27 541 27 541 105 c 0,85,86
 541 119 541 119 548.5 140.5 c 128,-1,87
 556 162 556 162 568 177 c 1,88,-1
 416 177 l 1,89,90
 395 82 395 82 352 30 c 0,91,92
 335 7 335 7 328 2 c 0,93,94
 313 -12 313 -12 267 -27 c 0,95,96
 258 -30 258 -30 243.5 -25 c 128,-1,97
 229 -20 229 -20 219 -12 c 1,98,-1
 212 5 l 2,99,100
 201 25 201 25 180 39 c 1,101,-1
 155 -7 l 2,102,103
 138 -30 138 -30 108 -30 c 0,104,105
 75 -30 75 -30 50 -1 c 2,106,-1
 21 36 l 2,107,108
 12 43 12 43 5 70 c 1,109,-1
 0 117 l 2,110,111
 0 141 0 141 20 170 c 0,112,113
 35 194 35 194 60 213 c 0,114,115
 71 221 71 221 94.5 227 c 128,-1,116
 118 233 118 233 165 233 c 2,117,-1
 182 233 l 1,118,-1
 215 403 l 1,119,-1
 617 403 l 1,120,-1
 606 349 l 1,121,-1
 454 349 l 1,122,-1
 429 231 l 1,123,-1
 678 231 l 1,124,-1
 707 401 l 1,125,-1
 1114 401 l 1,126,-1
 1100 347 l 1,127,-1
 952 347 l 1,128,-1
 927 231 l 1,129,130
 1023 231 1023 231 1073 195 c 0,131,132
 1093 178 1093 178 1093 128 c 2,133,-1
 1091 94 l 2,134,135
 1091 85 1091 85 1090 72.5 c 128,-1,136
 1089 60 1089 60 1086 44 c 2,137,-1
 1081 -15 l 2,138,139
 1076 -28 1076 -28 1026 -66 c 0,140,141
 982 -100 982 -100 898 -115 c 0,142,143
 832 -126 832 -126 742 -126 c 0,144,145
 733 -126 733 -126 709 -125 c 128,-1,146
 685 -124 685 -124 669 -124 c 0,147,148
 657 -124 657 -124 627.5 -123 c 128,-1,149
 598 -122 598 -122 580 -122 c 0,150,151
 539 -122 539 -122 522 -126 c 1,45,-1
EndSplineSet
Ligature2: "'akhn' Akhand lookup 0-1" u11315 u1134D u11324
EndChar

StartChar: uniE203
Encoding: 57859 57859 90
Width: 261
Flags: W
LayerCount: 2
Fore
SplineSet
-672 -489 m 0,0,1
 -672 -462 -672 -462 -592 -462 c 2,2,-1
 -521 -463 l 1,3,-1
 -362 -468 l 1,4,-1
 -331 -468 l 1,5,-1
 -318 -468 l 1,6,-1
 -307 -468 l 2,7,8
 -294 -468 -294 -468 -279 -467.5 c 128,-1,9
 -264 -467 -264 -467 -238 -464 c 128,-1,10
 -212 -461 -212 -461 -126 -446 c 0,11,12
 -91 -440 -91 -440 -72 -432 c 128,-1,13
 -53 -424 -53 -424 10 -386 c 0,14,15
 58 -357 58 -357 95 -314 c 128,-1,16
 132 -271 132 -271 132 -240 c 2,17,-1
 130 102 l 1,18,-1
 45 102 l 1,19,-1
 45 155 l 1,20,-1
 295 155 l 1,21,-1
 295 102 l 1,22,-1
 200 102 l 1,23,-1
 196 -240 l 1,24,-1
 196 -262 l 2,25,26
 196 -313 196 -313 187 -340 c 0,27,28
 174 -383 174 -383 132 -408 c 2,29,-1
 21 -476 l 2,30,31
 -37 -509 -37 -509 -104 -522 c 0,32,33
 -128 -527 -128 -527 -162.5 -532 c 128,-1,34
 -197 -537 -197 -537 -229 -537 c 0,35,36
 -255 -537 -255 -537 -311 -540 c 128,-1,37
 -367 -543 -367 -543 -399 -543 c 0,38,39
 -458 -543 -458 -543 -506 -540 c 128,-1,40
 -554 -537 -554 -537 -595 -530 c 0,41,42
 -672 -518 -672 -518 -672 -489 c 0,0,1
EndSplineSet
EndChar

StartChar: uniE102
Encoding: 57602 57602 91
Width: 1356
Flags: W
LayerCount: 2
Fore
SplineSet
1197 315 m 2,0,-1
 1200 297 l 1,1,2
 1200 261 1200 261 1167.5 202.5 c 128,-1,3
 1135 144 1135 144 1093 97 c 0,4,5
 994 -8 994 -8 873 -8 c 2,6,-1
 850 -8 l 2,7,8
 814 -8 814 -8 773 1 c 0,9,10
 729 13 729 13 667 56 c 1,11,12
 646 29 646 29 609 10 c 0,13,14
 572 -7 572 -7 540 -7 c 0,15,16
 485 -7 485 -7 450 27 c 0,17,18
 424 53 424 53 424 92 c 1,19,-1
 427 120 l 1,20,-1
 461 280 l 1,21,-1
 360 281 l 1,22,-1
 330 144 l 2,23,24
 318 86 318 86 314 80 c 0,25,26
 296 35 296 35 255 22 c 0,27,28
 238 17 238 17 217 14 c 128,-1,29
 196 11 196 11 176 11 c 0,30,31
 109 11 109 11 75.5 51.5 c 128,-1,32
 42 92 42 92 42 162 c 0,33,34
 42 211 42 211 70 252 c 0,35,36
 87 278 87 278 124 310 c 1,37,-1
 169 322 l 1,38,-1
 204 525 l 1,39,-1
 505 525 l 1,40,-1
 496 480 l 1,41,-1
 399 480 l 1,42,-1
 373 328 l 1,43,-1
 523 328 l 1,44,-1
 477 108 l 1,45,46
 480 82 480 82 496 63 c 128,-1,47
 512 44 512 44 544 44 c 2,48,-1
 567 45 l 2,49,50
 580 47 580 47 618 79 c 0,51,52
 626 85 626 85 633 91 c 128,-1,53
 640 97 640 97 654 111 c 1,54,-1
 663 294 l 1,55,-1
 726 315 l 1,56,-1
 716 141 l 2,57,58
 716 87 716 87 778 63 c 0,59,60
 804 55 804 55 867 55 c 2,61,-1
 913 56 l 1,62,-1
 945 63 l 2,63,64
 989 74 989 74 1036 122 c 0,65,66
 1068 156 1068 156 1087.5 189 c 128,-1,67
 1107 222 1107 222 1120 264 c 0,68,69
 1137 320 1137 320 1137 381 c 1,70,71
 1137 360 1137 360 1112 327.5 c 128,-1,72
 1087 295 1087 295 1056.5 275 c 128,-1,73
 1026 255 1026 255 992 255 c 0,74,75
 965 255 965 255 933 270 c 0,76,77
 911 281 911 281 900 308.5 c 128,-1,78
 889 336 889 336 889 368 c 0,79,80
 889 404 889 404 898.5 434.5 c 128,-1,81
 908 465 908 465 927 483 c 0,82,83
 971 525 971 525 1042 525 c 0,84,85
 1078 525 1078 525 1119 510 c 1,86,87
 1154 504 1154 504 1179 439 c 0,88,89
 1200 385 1200 385 1200 336 c 0,90,91
 1200 321 1200 321 1197 315 c 2,0,-1
1083 372 m 2,92,-1
 1089 393 l 2,93,94
 1092 402 1092 402 1092 417 c 0,95,96
 1092 436 1092 436 1085.5 450 c 128,-1,97
 1079 464 1079 464 1063.5 473 c 128,-1,98
 1048 482 1048 482 1035 482 c 0,99,100
 1014 482 1014 482 995.5 469 c 128,-1,101
 977 456 977 456 959 432 c 0,102,103
 935 399 935 399 935 364 c 0,104,105
 935 331 935 331 960 312 c 0,106,107
 974 301 974 301 994 301 c 0,108,109
 1022 301 1022 301 1046.5 321 c 128,-1,110
 1071 341 1071 341 1083 372 c 2,92,-1
347 481 m 1,111,-1
 255 481 l 1,112,-1
 222 329 l 1,113,-1
 314 329 l 1,114,-1
 347 481 l 1,111,-1
305 277 m 1,115,-1
 185 277 l 2,116,117
 176 277 176 277 153 262 c 2,118,-1
 125 240 l 2,119,120
 120 237 120 237 107 206 c 0,121,122
 91 166 91 166 91 139 c 0,123,124
 91 108 91 108 108 87 c 0,125,126
 139 50 139 50 186 50 c 0,127,128
 216 50 216 50 240 68 c 128,-1,129
 264 86 264 86 271 118 c 2,130,-1
 305 277 l 1,115,-1
EndSplineSet
Ligature2: "'akhn' Akhand lookup 0-1" u11324 u1134D u11325
EndChar

StartChar: uniE106
Encoding: 57606 57606 92
Width: 808
Flags: W
LayerCount: 2
Fore
SplineSet
322 306 m 0,0,1
 322 329 322 329 307 341 c 128,-1,2
 292 353 292 353 256 365 c 1,3,4
 219 359 219 359 209 354 c 0,5,6
 182 342 182 342 182 315 c 0,7,8
 182 309 182 309 206 286 c 1,9,10
 230 274 230 274 246 274 c 2,11,-1
 274 275 l 1,12,-1
 302 281 l 2,13,14
 322 287 322 287 322 306 c 0,0,1
594 39 m 1,15,-1
 674 395 l 1,16,-1
 755 395 l 1,17,-1
 668 -20 l 1,18,-1
 33 -24 l 1,19,-1
 42 27 l 1,20,-1
 282 24 l 2,21,22
 320 24 320 24 343.5 27.5 c 128,-1,23
 367 31 367 31 381 41 c 2,24,-1
 400 54 l 2,25,26
 403 56 403 56 405 66 c 2,27,-1
 406 77 l 2,28,29
 406 87 406 87 401.5 93.5 c 128,-1,30
 397 100 397 100 381.5 105 c 128,-1,31
 366 110 366 110 341.5 116 c 128,-1,32
 317 122 317 122 299 122 c 2,33,-1
 105 123 l 1,34,-1
 108 168 l 1,35,-1
 312 167 l 1,36,37
 330 172 330 172 348.5 185.5 c 128,-1,38
 367 199 367 199 384 219 c 2,39,-1
 407 246 l 1,40,-1
 420 282 l 1,41,-1
 421 291 l 1,42,-1
 422 302 l 2,43,44
 422 316 422 316 419 324 c 2,45,-1
 410 338 l 1,46,47
 383 362 383 362 342 371 c 1,48,49
 366 350 366 350 366 306 c 0,50,51
 366 276 366 276 327 252 c 0,52,53
 311 244 311 244 285.5 237 c 128,-1,54
 260 230 260 230 235 230 c 0,55,56
 193 230 193 230 156 262 c 128,-1,57
 119 294 119 294 119 325 c 0,58,59
 119 355 119 355 152 379 c 0,60,61
 177 397 177 397 199 407 c 0,62,63
 207 410 207 410 225 415 c 128,-1,64
 243 420 243 420 264 420 c 0,65,66
 324 420 324 420 371.5 409 c 128,-1,67
 419 398 419 398 450 381 c 1,68,69
 474 350 474 350 480 337 c 128,-1,70
 486 324 486 324 486 294 c 0,71,72
 486 281 486 281 480 258 c 0,73,74
 471 228 471 228 456 210 c 0,75,76
 448 205 448 205 439 200 c 128,-1,77
 430 195 430 195 417 184 c 0,78,79
 411 179 411 179 402 171 c 128,-1,80
 393 163 393 163 384 153 c 1,81,-1
 468 123 l 1,82,-1
 495 103 l 2,83,84
 507 93 507 93 508 84 c 0,85,86
 508 74 508 74 504.5 66.5 c 128,-1,87
 501 59 501 59 483 36 c 1,88,-1
 486 31 l 1,89,90
 505 31 505 31 528 36 c 2,91,-1
 594 39 l 1,15,-1
EndSplineSet
Ligature2: "'akhn' Akhand lookup 0-1" u11326 u1134D u11335
EndChar

StartChar: u1133D
Encoding: 70461 70461 93
Width: 637
Flags: W
LayerCount: 2
Fore
SplineSet
541 30 m 1,0,-1
 60 30 l 1,1,-1
 432 402 l 1,2,-1
 111 402 l 1,3,-1
 111 447 l 1,4,-1
 546 447 l 1,5,-1
 180 84 l 1,6,-1
 541 84 l 1,7,-1
 541 30 l 1,0,-1
EndSplineSet
EndChar

StartChar: uniE315
Encoding: 58133 58133 94
Width: 11
Flags: W
LayerCount: 2
Fore
SplineSet
-75 -214 m 1,0,-1
 -81 -262 l 1,1,-1
 -220 -262 l 1,2,-1
 -239 -368 l 1,3,-1
 -211 -368 l 2,4,5
 -134 -368 -134 -368 -105 -394 c 0,6,7
 -80 -416 -80 -416 -80 -468 c 0,8,9
 -80 -492 -80 -492 -115 -542 c 0,10,11
 -132 -563 -132 -563 -155 -575 c 2,12,-1
 -175 -582 l 1,13,-1
 -199 -587 l 1,14,15
 -220 -584 -220 -584 -243 -560 c 1,16,-1
 -254 -531 l 1,17,-1
 -256 -510 l 1,18,-1
 -253 -486 l 1,19,-1
 -235 -433 l 1,20,-1
 -228 -412 l 1,21,-1
 -241 -414 l 1,22,-1
 -255 -412 l 1,23,-1
 -273 -471 l 2,24,25
 -288 -516 -288 -516 -300 -534 c 0,26,27
 -338 -596 -338 -596 -406 -596 c 0,28,29
 -431 -596 -431 -596 -451.5 -572.5 c 128,-1,30
 -472 -549 -472 -549 -472 -518 c 1,31,-1
 -489 -541 l 2,32,33
 -503 -560 -503 -560 -510 -564 c 2,34,-1
 -559 -607 l 1,35,36
 -575 -607 -575 -607 -586 -596 c 2,37,-1
 -613 -569 l 2,38,39
 -634 -548 -634 -548 -634 -527 c 0,40,41
 -634 -517 -634 -517 -629 -506 c 2,42,-1
 -624 -488 l 2,43,44
 -624 -477 -624 -477 -619 -465 c 128,-1,45
 -614 -453 -614 -453 -601 -436 c 0,46,47
 -582 -410 -582 -410 -560 -394 c 0,48,49
 -525 -368 -525 -368 -463 -368 c 1,50,-1
 -434 -214 l 1,51,-1
 -75 -214 l 1,0,-1
-132 -484 m 2,52,-1
 -125 -456 l 1,53,-1
 -122 -439 l 2,54,55
 -122 -427 -122 -427 -130 -420.5 c 128,-1,56
 -138 -414 -138 -414 -159 -414 c 0,57,58
 -181 -414 -181 -414 -193 -431 c 0,59,60
 -200 -442 -200 -442 -206 -464 c 2,61,-1
 -213 -492 l 1,62,-1
 -214 -508 l 2,63,64
 -214 -528 -214 -528 -199 -540 c 1,65,-1
 -185 -544 l 1,66,67
 -168 -544 -168 -544 -153 -526 c 128,-1,68
 -138 -508 -138 -508 -132 -484 c 2,52,-1
-281 -262 m 1,69,-1
 -404 -262 l 1,70,-1
 -423 -368 l 1,71,-1
 -302 -368 l 1,72,-1
 -281 -262 l 1,69,-1
-316 -415 m 1,73,-1
 -450 -415 l 2,74,75
 -505 -415 -505 -415 -522 -421 c 0,76,77
 -548 -428 -548 -428 -572 -461 c 1,78,-1
 -599 -518 l 2,79,80
 -602 -525 -602 -525 -581 -547 c 0,81,82
 -569 -559 -569 -559 -562 -559 c 0,83,84
 -557 -559 -557 -559 -542 -543 c 2,85,-1
 -516 -513 l 1,86,87
 -489 -489 -489 -489 -459 -456 c 1,88,-1
 -432 -499 l 1,89,90
 -434 -509 -434 -509 -425.5 -526.5 c 128,-1,91
 -417 -544 -417 -544 -408 -544 c 0,92,93
 -373 -544 -373 -544 -346 -510 c 1,94,95
 -336 -489 -336 -489 -316 -415 c 1,73,-1
EndSplineSet
LCarets2: 1 0
Substitution2: "Second stack to third stack-1" uniE515
Ligature2: "'blwf' Below Base Forms lookup 5-1" u1134D u11315
EndChar

StartChar: uniE316
Encoding: 58134 58134 95
Width: 0
Flags: W
LayerCount: 2
Fore
SplineSet
-596 -488 m 0,0,1
 -596 -473 -596 -473 -609 -454 c 0,2,3
 -618 -437 -618 -437 -637 -431 c 0,4,5
 -665 -428 -665 -428 -693 -453 c 1,6,7
 -718 -481 -718 -481 -718 -508 c 2,8,-1
 -717 -530 l 2,9,10
 -717 -539 -717 -539 -706.5 -557.5 c 128,-1,11
 -696 -576 -696 -576 -675 -576 c 0,12,13
 -651 -576 -651 -576 -628 -559 c 0,14,15
 -596 -535 -596 -535 -596 -488 c 0,0,1
-409 -317 m 0,16,17
 -426 -297 -426 -297 -475.5 -283.5 c 128,-1,18
 -525 -270 -525 -270 -580 -270 c 0,19,20
 -639 -270 -639 -270 -683.5 -282 c 128,-1,21
 -728 -294 -728 -294 -753 -328 c 2,22,-1
 -787 -377 l 1,23,24
 -795 -399 -795 -399 -795 -461 c 0,25,26
 -795 -488 -795 -488 -784 -511 c 0,27,28
 -775 -535 -775 -535 -751 -559 c 1,29,-1
 -755 -521 l 1,30,31
 -755 -468 -755 -468 -724 -430 c 0,32,33
 -687 -390 -687 -390 -631 -390 c 0,34,35
 -593 -390 -593 -390 -568 -415 c 128,-1,36
 -543 -440 -543 -440 -543 -487 c 0,37,38
 -543 -562 -543 -562 -591 -601 c 0,39,40
 -628 -630 -628 -630 -677 -630 c 0,41,42
 -747 -630 -747 -630 -797 -571 c 1,43,44
 -834 -519 -834 -519 -834 -461 c 0,45,46
 -834 -390 -834 -390 -814 -350 c 0,47,48
 -808 -338 -808 -338 -772 -294 c 0,49,50
 -746 -262 -746 -262 -695 -245.5 c 128,-1,51
 -644 -229 -644 -229 -583 -229 c 0,52,53
 -466 -229 -466 -229 -391 -277 c 0,54,55
 -356 -299 -356 -299 -335.5 -342 c 128,-1,56
 -315 -385 -315 -385 -315 -429 c 0,57,58
 -315 -456 -315 -456 -340 -502 c 2,59,-1
 -366 -547 l 1,60,-1
 -400 -583 l 1,61,-1
 -126 -578 l 1,62,-1
 -101 -265 l 1,63,-1
 -43 -265 l 1,64,-1
 -70 -630 l 1,65,-1
 -495 -630 l 2,66,67
 -498 -627 -498 -627 -498 -620 c 2,68,-1
 -495 -597 l 1,69,-1
 -492 -569 l 1,70,-1
 -492 -465 l 1,71,72
 -471 -459 -471 -459 -461.5 -498 c 128,-1,73
 -452 -537 -452 -537 -443 -539 c 0,74,75
 -440 -538 -440 -538 -437.5 -537 c 128,-1,76
 -435 -536 -435 -536 -430 -531 c 0,77,78
 -405 -506 -405 -506 -386 -473 c 0,79,80
 -370 -441 -370 -441 -370 -406 c 0,81,82
 -370 -385 -370 -385 -378.5 -362.5 c 128,-1,83
 -387 -340 -387 -340 -409 -317 c 0,16,17
EndSplineSet
LCarets2: 1 0
Substitution2: "Second stack to third stack-1" uniE516
Ligature2: "'blwf' Below Base Forms lookup 5-1" u1134D u11316
EndChar

StartChar: uniE317
Encoding: 58135 58135 96
Width: 14
Flags: W
LayerCount: 2
Fore
SplineSet
-557 -731 m 1,0,-1
 -633 -731 l 1,1,-1
 -687 -734 l 1,2,3
 -687 -704 -687 -704 -656 -691 c 0,4,5
 -634 -683 -634 -683 -602 -683 c 2,6,-1
 -585 -683 l 1,7,-1
 -456 -686 l 1,8,-1
 -324 -690 l 2,9,10
 -239 -690 -239 -690 -188 -683.5 c 128,-1,11
 -137 -677 -137 -677 -123 -659 c 0,12,13
 -103 -633 -103 -633 -96 -608 c 128,-1,14
 -89 -583 -89 -583 -89 -554 c 2,15,-1
 -89 -532 l 1,16,-1
 -88 -518 l 1,17,-1
 -102 -453 l 1,18,19
 -102 -424 -102 -424 -113 -401 c 128,-1,20
 -124 -378 -124 -378 -141 -362 c 0,21,22
 -153 -352 -153 -352 -159 -348 c 0,23,24
 -173 -340 -173 -340 -180 -336 c 0,25,26
 -201 -327 -201 -327 -228 -327 c 0,27,28
 -258 -327 -258 -327 -293 -346 c 128,-1,29
 -328 -365 -328 -365 -334 -391 c 2,30,-1
 -366 -544 l 2,31,32
 -375 -592 -375 -592 -399 -618 c 0,33,34
 -417 -635 -417 -635 -476 -650 c 1,35,-1
 -488 -650 l 2,36,37
 -528 -650 -528 -650 -554.5 -619 c 128,-1,38
 -581 -588 -581 -588 -581 -546 c 1,39,-1
 -578 -518 l 1,40,-1
 -529 -289 l 1,41,-1
 -474 -295 l 1,42,-1
 -522 -532 l 1,43,-1
 -524 -549 l 2,44,45
 -524 -576 -524 -576 -510 -591.5 c 128,-1,46
 -496 -607 -496 -607 -475 -607 c 0,47,48
 -430 -607 -430 -607 -403 -512 c 1,49,-1
 -381 -379 l 2,50,51
 -375 -330 -375 -330 -334 -301 c 0,52,53
 -319 -292 -319 -292 -285 -286 c 2,54,-1
 -229 -282 l 1,55,56
 -147 -282 -147 -282 -93 -342 c 0,57,58
 -54 -390 -54 -390 -54 -447 c 2,59,-1
 -52 -513 l 1,60,-1
 -50 -570 l 2,61,62
 -50 -631 -50 -631 -61 -669.5 c 128,-1,63
 -72 -708 -72 -708 -104 -718 c 0,64,65
 -108 -719 -108 -719 -147.5 -723.5 c 128,-1,66
 -187 -728 -187 -728 -247 -728 c 2,67,-1
 -469 -731 l 1,68,-1
 -557 -731 l 1,0,-1
EndSplineSet
LCarets2: 1 0
Substitution2: "Second stack to third stack-1" uniE517
Ligature2: "'blwf' Below Base Forms lookup 5-1" u1134D u11317
EndChar

StartChar: uniE318
Encoding: 58136 58136 97
Width: 14
Flags: W
LayerCount: 2
Fore
SplineSet
-67 -268 m 1,0,-1
 -151 -643 l 1,1,-1
 -783 -643 l 1,2,-1
 -783 -591 l 1,3,4
 -744 -582 -744 -582 -717.5 -533 c 128,-1,5
 -691 -484 -691 -484 -691 -427 c 0,6,7
 -691 -369 -691 -369 -713 -334 c 0,8,9
 -741 -294 -741 -294 -807 -294 c 0,10,11
 -899 -294 -899 -294 -952 -347 c 0,12,13
 -1001 -396 -1001 -396 -1001 -470 c 0,14,15
 -1001 -487 -1001 -487 -1000 -496 c 128,-1,16
 -999 -505 -999 -505 -991.5 -527.5 c 128,-1,17
 -984 -550 -984 -550 -968 -572 c 1,18,-1
 -971 -552 l 1,19,-1
 -972 -532 l 2,20,21
 -972 -484 -972 -484 -939.5 -442.5 c 128,-1,22
 -907 -401 -907 -401 -850 -401 c 0,23,24
 -813 -401 -813 -401 -787 -427 c 0,25,26
 -761 -451 -761 -451 -761 -501 c 0,27,28
 -761 -576 -761 -576 -809 -615 c 0,29,30
 -846 -643 -846 -643 -896 -643 c 0,31,32
 -969 -643 -969 -643 -1009 -582 c 0,33,34
 -1021 -560 -1021 -560 -1030.5 -530 c 128,-1,35
 -1040 -500 -1040 -500 -1040 -470 c 0,36,37
 -1040 -377 -1040 -377 -964 -307 c 1,38,39
 -894 -252 -894 -252 -813 -252 c 0,40,41
 -709 -252 -709 -252 -662.5 -294.5 c 128,-1,42
 -616 -337 -616 -337 -616 -423 c 0,43,44
 -616 -471 -616 -471 -637 -527 c 0,45,46
 -652 -561 -652 -561 -683 -595 c 1,47,-1
 -463 -595 l 1,48,-1
 -389 -271 l 1,49,-1
 -325 -268 l 1,50,-1
 -404 -595 l 1,51,-1
 -204 -595 l 1,52,-1
 -132 -271 l 1,53,-1
 -67 -268 l 1,0,-1
-815 -500 m 0,54,55
 -815 -484 -815 -484 -826.5 -466 c 128,-1,56
 -838 -448 -838 -448 -855 -444 c 0,57,58
 -882 -441 -882 -441 -910 -465 c 1,59,60
 -935 -493 -935 -493 -935 -519 c 256,61,62
 -935 -545 -935 -545 -926 -567.5 c 128,-1,63
 -917 -590 -917 -590 -894 -590 c 0,64,65
 -868 -590 -868 -590 -845 -573 c 0,66,67
 -815 -550 -815 -550 -815 -500 c 0,54,55
EndSplineSet
LCarets2: 1 0
Substitution2: "Second stack to third stack-1" uniE518
Ligature2: "'blwf' Below Base Forms lookup 5-1" u1134D u11318
EndChar

StartChar: uniE319
Encoding: 58137 58137 98
Width: 14
Flags: W
LayerCount: 2
Fore
SplineSet
-49 -602 m 1,0,-1
 -49 -644 l 1,1,-1
 -306 -643 l 1,2,-1
 -349 -800 l 1,3,-1
 -418 -800 l 1,4,-1
 -372 -643 l 1,5,-1
 -634 -643 l 2,6,7
 -668 -643 -668 -643 -696 -626 c 0,8,9
 -717 -611 -717 -611 -717 -579 c 0,10,11
 -717 -522 -717 -522 -676 -497.5 c 128,-1,12
 -635 -473 -635 -473 -508 -473 c 0,13,14
 -377 -473 -377 -473 -319 -454.5 c 128,-1,15
 -261 -436 -261 -436 -243 -387 c 1,16,-1
 -241 -375 l 1,17,-1
 -241 -366 l 2,18,19
 -241 -333 -241 -333 -271.5 -308.5 c 128,-1,20
 -302 -284 -302 -284 -339 -284 c 0,21,22
 -371 -284 -371 -284 -389.5 -292.5 c 128,-1,23
 -408 -301 -408 -301 -423 -326 c 1,24,-1
 -448 -440 l 1,25,-1
 -508 -437 l 1,26,-1
 -482 -323 l 1,27,28
 -496 -294 -496 -294 -517 -283 c 0,29,30
 -546 -266 -546 -266 -610 -266 c 0,31,32
 -659 -266 -659 -266 -688 -292 c 0,33,34
 -717 -316 -717 -316 -717 -350 c 0,35,36
 -717 -370 -717 -370 -712.5 -383 c 128,-1,37
 -708 -396 -708 -396 -685 -409 c 1,38,-1
 -688 -392 l 1,39,-1
 -689 -377 l 2,40,41
 -689 -346 -689 -346 -670.5 -320 c 128,-1,42
 -652 -294 -652 -294 -612 -294 c 0,43,44
 -573 -294 -573 -294 -553 -333 c 1,45,-1
 -549 -348 l 1,46,-1
 -543 -372 l 1,47,-1
 -544 -393 l 1,48,-1
 -550 -411 l 2,49,50
 -553 -426 -553 -426 -574 -441 c 0,51,52
 -600 -462 -600 -462 -645 -462 c 0,53,54
 -673 -462 -673 -462 -693.5 -456 c 128,-1,55
 -714 -450 -714 -450 -730 -436 c 0,56,57
 -761 -411 -761 -411 -761 -348 c 0,58,59
 -761 -289 -761 -289 -716 -253 c 0,60,61
 -695 -235 -695 -235 -668 -226 c 2,62,-1
 -642 -220 l 1,63,-1
 -610 -217 l 1,64,65
 -545 -217 -545 -217 -502 -239 c 0,66,67
 -489 -246 -489 -246 -474 -259 c 2,68,-1
 -451 -280 l 1,69,-1
 -430 -266 l 1,70,-1
 -402 -252 l 1,71,-1
 -374 -245 l 1,72,-1
 -354 -241 l 1,73,-1
 -333 -240 l 2,74,75
 -269 -240 -269 -240 -233 -269 c 0,76,77
 -187 -303 -187 -303 -187 -371 c 2,78,-1
 -188 -390 l 2,79,80
 -194 -453 -194 -453 -234 -484 c 0,81,82
 -247 -494 -247 -494 -273 -504 c 0,83,84
 -280 -507 -280 -507 -299.5 -512 c 128,-1,85
 -319 -517 -319 -517 -340 -521 c 0,86,87
 -385 -527 -385 -527 -499 -527 c 2,88,-1
 -550 -527 l 1,89,-1
 -595 -527 l 2,90,91
 -614 -527 -614 -527 -629 -531 c 0,92,93
 -655 -534 -655 -534 -655 -577 c 0,94,95
 -655 -589 -655 -589 -648 -590 c 0,96,97
 -640 -593 -640 -593 -624 -593 c 2,98,-1
 -49 -602 l 1,0,-1
-614 -335 m 0,99,100
 -624 -335 -624 -335 -632.5 -346 c 128,-1,101
 -641 -357 -641 -357 -644 -377 c 0,102,103
 -644 -413 -644 -413 -617 -413 c 0,104,105
 -608 -413 -608 -413 -595 -400 c 0,106,107
 -587 -387 -587 -387 -587 -371 c 0,108,109
 -587 -358 -587 -358 -593 -346.5 c 128,-1,110
 -599 -335 -599 -335 -614 -335 c 0,99,100
EndSplineSet
LCarets2: 1 0
Substitution2: "Second stack to third stack-1" uniE519
Ligature2: "'blwf' Below Base Forms lookup 5-1" u1134D u11319
EndChar

StartChar: uniE31A
Encoding: 58138 58138 99
Width: 10
Flags: W
LayerCount: 2
Fore
SplineSet
-67 -262 m 1,0,-1
 -145 -636 l 1,1,-1
 -859 -636 l 1,2,-1
 -872 -588 l 1,3,-1
 -478 -588 l 1,4,5
 -460 -572 -460 -572 -443 -531 c 0,6,7
 -429 -491 -429 -491 -429 -449 c 0,8,9
 -429 -409 -429 -409 -459.5 -359 c 128,-1,10
 -490 -309 -490 -309 -532 -309 c 1,11,12
 -521 -317 -521 -317 -507 -351 c 0,13,14
 -496 -384 -496 -384 -496 -421 c 0,15,16
 -496 -465 -496 -465 -532 -492 c 0,17,18
 -568 -516 -568 -516 -622 -516 c 0,19,20
 -662 -516 -662 -516 -696 -476 c 1,21,-1
 -721 -436 l 2,22,23
 -725 -426 -725 -426 -727 -415.5 c 128,-1,24
 -729 -405 -729 -405 -729 -389 c 0,25,26
 -729 -337 -729 -337 -690 -302.5 c 128,-1,27
 -651 -268 -651 -268 -594 -268 c 0,28,29
 -499 -268 -499 -268 -442 -310 c 0,30,31
 -376 -358 -376 -358 -376 -453 c 0,32,33
 -376 -486 -376 -486 -388.5 -521 c 128,-1,34
 -401 -556 -401 -556 -428 -588 c 1,35,-1
 -211 -588 l 1,36,-1
 -141 -262 l 1,37,-1
 -67 -262 l 1,0,-1
-602 -322 m 1,38,39
 -633 -330 -633 -330 -647 -341 c 0,40,41
 -671 -364 -671 -364 -671 -407 c 0,42,43
 -671 -433 -671 -433 -648 -457 c 0,44,45
 -632 -475 -632 -475 -611 -479 c 0,46,47
 -591 -479 -591 -479 -581 -474 c 0,48,49
 -571 -471 -571 -471 -559 -458 c 0,50,51
 -541 -437 -541 -437 -541 -408 c 0,52,53
 -541 -384 -541 -384 -557 -359 c 0,54,55
 -569 -337 -569 -337 -602 -322 c 1,38,39
EndSplineSet
LCarets2: 1 0
Ligature2: "'blwf' Below Base Forms lookup 5-1" u1134D u1131A
EndChar

StartChar: uniE31B
Encoding: 58139 58139 100
Width: 14
Flags: W
LayerCount: 2
Fore
SplineSet
-40 -457 m 0,0,1
 -40 -532 -40 -532 -70 -586 c 0,2,3
 -94 -625 -94 -625 -125 -635 c 1,4,-1
 -908 -636 l 1,5,-1
 -918 -588 l 1,6,-1
 -528 -588 l 1,7,8
 -508 -568 -508 -568 -493 -530 c 0,9,10
 -480 -491 -480 -491 -480 -449 c 2,11,-1
 -481 -425 l 1,12,-1
 -481 -418 l 1,13,-1
 -487 -404 l 2,14,15
 -490 -391 -490 -391 -509 -359 c 0,16,17
 -541 -309 -541 -309 -582 -309 c 1,18,19
 -567 -323 -567 -323 -555 -351 c 0,20,21
 -545 -384 -545 -384 -545 -421 c 0,22,23
 -545 -461 -545 -461 -583 -493 c 1,24,25
 -618 -516 -618 -516 -671 -516 c 0,26,27
 -707 -516 -707 -516 -743.5 -476 c 128,-1,28
 -780 -436 -780 -436 -780 -388 c 256,29,30
 -780 -340 -780 -340 -741 -304 c 0,31,32
 -722 -287 -722 -287 -696 -276 c 0,33,34
 -683 -272 -683 -272 -672 -270 c 128,-1,35
 -661 -268 -661 -268 -645 -268 c 0,36,37
 -551 -268 -551 -268 -492 -310 c 0,38,39
 -426 -358 -426 -358 -426 -453 c 0,40,41
 -426 -482 -426 -482 -438.5 -517.5 c 128,-1,42
 -451 -553 -451 -553 -478 -588 c 1,43,-1
 -347 -588 l 1,44,-1
 -303 -309 l 2,45,46
 -297 -288 -297 -288 -264 -270 c 0,47,48
 -230 -254 -230 -254 -194 -254 c 0,49,50
 -150 -254 -150 -254 -120.5 -268 c 128,-1,51
 -91 -282 -91 -282 -72 -306 c 0,52,53
 -40 -349 -40 -349 -40 -457 c 0,0,1
-80 -457 m 0,54,55
 -80 -394 -80 -394 -94 -358 c 0,56,57
 -118 -304 -118 -304 -192 -304 c 0,58,59
 -219 -304 -219 -304 -229 -312 c 128,-1,60
 -239 -320 -239 -320 -247 -352 c 2,61,-1
 -285 -588 l 1,62,-1
 -134 -588 l 1,63,64
 -114 -578 -114 -578 -99 -548 c 0,65,66
 -80 -510 -80 -510 -80 -457 c 0,54,55
-654 -321 m 1,67,68
 -686 -329 -686 -329 -698 -341 c 0,69,70
 -722 -364 -722 -364 -722 -406 c 0,71,72
 -722 -414 -722 -414 -716.5 -428.5 c 128,-1,73
 -711 -443 -711 -443 -696 -457 c 0,74,75
 -683 -472 -683 -472 -661 -479 c 1,76,77
 -628 -479 -628 -479 -609 -459 c 1,78,-1
 -595 -436 l 2,79,80
 -592 -428 -592 -428 -590 -409 c 0,81,82
 -590 -378 -590 -378 -607 -355 c 0,83,84
 -617 -337 -617 -337 -654 -321 c 1,67,68
EndSplineSet
LCarets2: 1 0
Ligature2: "'blwf' Below Base Forms lookup 5-1" u1134D u1131B
EndChar

StartChar: uniE31C
Encoding: 58140 58140 101
Width: 14
Flags: W
LayerCount: 2
Fore
SplineSet
-63 -528 m 0,0,1
 -63 -625 -63 -625 -111 -684 c 0,2,3
 -153 -738 -153 -738 -215 -738 c 2,4,-1
 -527 -738 l 2,5,6
 -580 -738 -580 -738 -619 -762 c 0,7,8
 -668 -796 -668 -796 -668 -870 c 0,9,10
 -668 -990 -668 -990 -583 -990 c 0,11,12
 -564 -990 -564 -990 -545 -979 c 0,13,14
 -528 -973 -528 -973 -518 -960 c 0,15,16
 -408 -841 -408 -841 -356 -809 c 0,17,18
 -321 -788 -321 -788 -262 -788 c 0,19,20
 -204 -788 -204 -788 -165.5 -817 c 128,-1,21
 -127 -846 -127 -846 -127 -893 c 0,22,23
 -127 -958 -127 -958 -167.5 -992.5 c 128,-1,24
 -208 -1027 -208 -1027 -268 -1027 c 0,25,26
 -301 -1027 -301 -1027 -328 -1018 c 128,-1,27
 -355 -1009 -355 -1009 -385 -988 c 1,28,-1
 -362 -952 l 1,29,30
 -315 -985 -315 -985 -264 -985 c 0,31,32
 -218 -985 -218 -985 -192 -962 c 128,-1,33
 -166 -939 -166 -939 -166 -893 c 0,34,35
 -166 -871 -166 -871 -190 -853 c 0,36,37
 -222 -832 -222 -832 -285 -832 c 0,38,39
 -336 -832 -336 -832 -391 -884 c 1,40,-1
 -468 -970 l 2,41,42
 -493 -995 -493 -995 -524.5 -1013 c 128,-1,43
 -556 -1031 -556 -1031 -582 -1031 c 0,44,45
 -650 -1031 -650 -1031 -691 -986.5 c 128,-1,46
 -732 -942 -732 -942 -732 -875 c 0,47,48
 -732 -779 -732 -779 -670 -729 c 0,49,50
 -621 -689 -621 -689 -551 -689 c 2,51,-1
 -221 -689 l 2,52,53
 -193 -689 -193 -689 -164.5 -639 c 128,-1,54
 -136 -589 -136 -589 -136 -516 c 0,55,56
 -136 -465 -136 -465 -158.5 -434.5 c 128,-1,57
 -181 -404 -181 -404 -204 -404 c 0,58,59
 -230 -404 -230 -404 -265 -426 c 0,60,61
 -289 -445 -289 -445 -297 -480 c 1,62,-1
 -316 -659 l 1,63,-1
 -373 -659 l 1,64,-1
 -352 -477 l 1,65,66
 -369 -441 -369 -441 -406 -420 c 1,67,-1
 -444 -404 l 2,68,69
 -458 -401 -458 -401 -464 -400 c 128,-1,70
 -470 -399 -470 -399 -484 -399 c 0,71,72
 -538 -399 -538 -399 -576 -430 c 0,73,74
 -617 -465 -617 -465 -617 -521 c 0,75,76
 -617 -545 -617 -545 -615 -552 c 0,77,78
 -615 -561 -615 -561 -606 -576 c 0,79,80
 -600 -591 -600 -591 -577 -610 c 1,81,-1
 -581 -589 l 1,82,-1
 -583 -565 l 2,83,84
 -583 -518 -583 -518 -560 -485 c 0,85,86
 -533 -447 -533 -447 -487 -447 c 0,87,88
 -446 -447 -446 -447 -416 -498 c 1,89,-1
 -404 -551 l 1,90,91
 -410 -608 -410 -608 -445 -643 c 0,92,93
 -474 -669 -474 -669 -527 -669 c 0,94,95
 -585 -669 -585 -669 -616 -638 c 0,96,97
 -656 -601 -656 -601 -656 -519 c 0,98,99
 -656 -443 -656 -443 -607 -394 c 0,100,101
 -563 -355 -563 -355 -487 -355 c 0,102,103
 -414 -355 -414 -355 -371 -377 c 0,104,105
 -346 -392 -346 -392 -321 -424 c 1,106,107
 -277 -361 -277 -361 -204 -361 c 0,108,109
 -142 -361 -142 -361 -102.5 -410.5 c 128,-1,110
 -63 -460 -63 -460 -63 -528 c 0,0,1
-454 -550 m 0,111,112
 -454 -532 -454 -532 -456 -526 c 2,113,-1
 -466 -507 l 2,114,115
 -475 -492 -475 -492 -492 -489 c 0,116,117
 -509 -489 -509 -489 -532 -512 c 1,118,119
 -546 -540 -546 -540 -546 -563 c 256,120,121
 -546 -586 -546 -586 -536.5 -600 c 128,-1,122
 -527 -614 -527 -614 -507 -614 c 0,123,124
 -494 -614 -494 -614 -472 -600 c 1,125,126
 -454 -582 -454 -582 -454 -550 c 0,111,112
EndSplineSet
LCarets2: 1 0
Ligature2: "'blwf' Below Base Forms lookup 5-1" u1134D u1131C
EndChar

StartChar: uniE31D
Encoding: 58141 58141 102
Width: 10
Flags: W
LayerCount: 2
Fore
SplineSet
-563 -477 m 1,0,-1
 -615 -477 l 1,1,-1
 -626 -569 l 1,2,-1
 -577 -569 l 1,3,-1
 -563 -477 l 1,0,-1
-314 -572 m 0,4,5
 -288 -605 -288 -605 -253 -605 c 0,6,7
 -236 -605 -236 -605 -215.5 -597 c 128,-1,8
 -195 -589 -195 -589 -167 -572 c 0,9,10
 -148 -562 -148 -562 -132 -540 c 2,11,-1
 -102 -493 l 2,12,13
 -97 -486 -97 -486 -91 -461 c 2,14,-1
 -87 -413 l 2,15,16
 -87 -384 -87 -384 -96 -358.5 c 128,-1,17
 -105 -333 -105 -333 -132 -315 c 0,18,19
 -137 -312 -137 -312 -149 -307 c 128,-1,20
 -161 -302 -161 -302 -173 -302 c 1,21,-1
 -188 -296 l 1,22,-1
 -196 -281 l 1,23,-1
 -192 -274 l 1,24,-1
 -188 -266 l 2,25,26
 -180 -258 -180 -258 -164 -256 c 0,27,28
 -101 -256 -101 -256 -63 -294 c 1,29,30
 -32 -331 -32 -331 -32 -379 c 2,31,-1
 -32 -392 l 2,32,33
 -32 -400 -32 -400 -34 -416 c 128,-1,34
 -36 -432 -36 -432 -42 -446 c 1,35,36
 -46 -478 -46 -478 -47 -484.5 c 128,-1,37
 -48 -491 -48 -491 -52 -506 c 0,38,39
 -67 -566 -67 -566 -91 -580 c 1,40,41
 -97 -589 -97 -589 -121.5 -610.5 c 128,-1,42
 -146 -632 -146 -632 -167 -641 c 1,43,-1
 -201 -648 l 1,44,-1
 -243 -651 l 2,45,46
 -298 -651 -298 -651 -330 -635 c 0,47,48
 -371 -616 -371 -616 -379 -569 c 1,49,-1
 -388 -537 l 2,50,51
 -397 -501 -397 -501 -397 -475 c 1,52,-1
 -458 -468 l 1,53,-1
 -477 -465 l 1,54,-1
 -494 -464 l 1,55,-1
 -511 -465 l 2,56,57
 -528 -465 -528 -465 -529 -470 c 2,58,-1
 -543 -616 l 1,59,-1
 -615 -617 l 1,60,-1
 -673 -616 l 1,61,-1
 -646 -432 l 1,62,-1
 -577 -432 l 1,63,-1
 -563 -318 l 1,64,-1
 -682 -318 l 1,65,-1
 -737 -643 l 1,66,-1
 -803 -643 l 1,67,-1
 -740 -259 l 1,68,-1
 -408 -259 l 1,69,-1
 -415 -317 l 1,70,-1
 -501 -318 l 1,71,-1
 -520 -428 l 1,72,-1
 -394 -428 l 1,73,-1
 -372 -374 l 2,74,75
 -370 -372 -370 -372 -369 -371 c 0,76,77
 -364 -366 -364 -366 -361 -357.5 c 128,-1,78
 -358 -349 -358 -349 -343 -348 c 2,79,-1
 -324 -350 l 2,80,81
 -314 -353 -314 -353 -313 -367 c 1,82,-1
 -319 -387 l 1,83,-1
 -318 -396 l 1,84,-1
 -326 -427 l 2,85,86
 -335 -468 -335 -468 -335 -497 c 0,87,88
 -335 -524 -335 -524 -330 -539 c 0,89,90
 -327 -558 -327 -558 -314 -572 c 0,4,5
EndSplineSet
LCarets2: 1 0
Ligature2: "'blwf' Below Base Forms lookup 5-1" u1134D u1131D
EndChar

StartChar: uniE31E
Encoding: 58142 58142 103
Width: 10
Flags: W
LayerCount: 2
Fore
SplineSet
-592 -460 m 2,0,1
 -595 -433 -595 -433 -616 -412 c 0,2,3
 -635 -390 -635 -390 -661 -390 c 0,4,5
 -672 -390 -672 -390 -683 -397 c 0,6,7
 -691 -400 -691 -400 -702 -412 c 1,8,-1
 -708 -424 l 2,9,10
 -714 -438 -714 -438 -714 -454 c 2,11,-1
 -712 -480 l 2,12,13
 -709 -496 -709 -496 -690 -518 c 128,-1,14
 -671 -540 -671 -540 -645 -540 c 0,15,16
 -636 -540 -636 -540 -628 -536 c 0,17,18
 -611 -530 -611 -530 -601 -512.5 c 128,-1,19
 -591 -495 -591 -495 -591 -474 c 2,20,-1
 -592 -460 l 2,0,1
-309 -470 m 1,21,-1
 -369 -470 l 2,22,23
 -386 -470 -386 -470 -399 -473 c 128,-1,24
 -412 -476 -412 -476 -424 -484 c 0,25,26
 -436 -498 -436 -498 -436 -523 c 0,27,28
 -436 -536 -436 -536 -423 -553 c 1,29,30
 -406 -563 -406 -563 -384 -563 c 0,31,32
 -368 -563 -368 -563 -360 -558 c 0,33,34
 -351 -555 -351 -555 -342 -542 c 0,35,36
 -327 -524 -327 -524 -309 -470 c 1,21,-1
-445 -442 m 1,37,-1
 -413 -431 l 1,38,-1
 -395 -429 l 1,39,-1
 -372 -429 l 1,40,-1
 -297 -429 l 1,41,-1
 -276 -323 l 1,42,-1
 -369 -324 l 2,43,44
 -390 -324 -390 -324 -412 -352 c 1,45,-1
 -420 -368 l 1,46,-1
 -433 -396 l 1,47,-1
 -445 -442 l 1,37,-1
-758 -406 m 2,48,49
 -758 -376 -758 -376 -734 -343 c 2,50,-1
 -711 -315 l 2,51,52
 -679 -275 -679 -275 -610 -275 c 0,53,54
 -547 -275 -547 -275 -514 -292 c 0,55,56
 -505 -295 -505 -295 -495 -314 c 2,57,-1
 -470 -363 l 1,58,-1
 -455 -325 l 2,59,60
 -446 -300 -446 -300 -435 -291 c 0,61,62
 -411 -275 -411 -275 -393 -275 c 2,63,-1
 -67 -275 l 1,64,-1
 -80 -323 l 1,65,-1
 -213 -323 l 1,66,-1
 -234 -429 l 1,67,68
 -172 -429 -172 -429 -132 -463 c 0,69,70
 -88 -501 -88 -501 -88 -573 c 1,71,-1
 -91 -610 l 1,72,-1
 -91 -620 l 2,73,74
 -91 -628 -91 -628 -99 -648 c 0,75,76
 -126 -745 -126 -745 -211 -806 c 0,77,78
 -318 -880 -318 -880 -502 -880 c 0,79,80
 -674 -880 -674 -880 -765 -774 c 0,81,82
 -844 -677 -844 -677 -844 -531 c 0,83,84
 -844 -497 -844 -497 -834 -460 c 2,85,-1
 -822 -414 l 1,86,-1
 -790 -442 l 1,87,-1
 -797 -488 l 1,88,-1
 -800 -536 l 1,89,90
 -800 -659 -800 -659 -732 -736 c 0,91,92
 -659 -818 -659 -818 -528 -818 c 0,93,94
 -449 -818 -449 -818 -386 -804.5 c 128,-1,95
 -323 -791 -323 -791 -276 -762 c 0,96,97
 -187 -710 -187 -710 -166 -602 c 1,98,-1
 -164 -577 l 1,99,-1
 -163 -557 l 2,100,101
 -163 -519 -163 -519 -179 -500 c 0,102,103
 -199 -476 -199 -476 -248 -476 c 1,104,-1
 -267 -524 l 1,105,-1
 -288 -561 l 2,106,107
 -308 -593 -308 -593 -314.5 -596.5 c 128,-1,108
 -321 -600 -321 -600 -342 -605 c 2,109,-1
 -376 -608 l 1,110,-1
 -437 -605 l 1,111,-1
 -458 -602 l 1,112,-1
 -476 -595 l 1,113,114
 -488 -586 -488 -586 -491 -566 c 2,115,-1
 -495 -514 l 1,116,-1
 -491 -479 l 1,117,-1
 -487 -433 l 1,118,-1
 -488 -418 l 2,119,120
 -492 -395 -492 -395 -500 -375 c 0,121,122
 -508 -359 -508 -359 -516 -350 c 2,123,-1
 -538 -329 l 1,124,-1
 -555 -317 l 1,125,-1
 -583 -311 l 1,126,-1
 -621 -309 l 1,127,128
 -652 -314 -652 -314 -676 -332 c 0,129,130
 -695 -347 -695 -347 -704 -363 c 1,131,-1
 -634 -355 l 1,132,133
 -625 -346 -625 -346 -597.5 -372 c 128,-1,134
 -570 -398 -570 -398 -564 -412 c 2,135,-1
 -553 -449 l 1,136,-1
 -548 -480 l 2,137,138
 -548 -503 -548 -503 -558.5 -528.5 c 128,-1,139
 -569 -554 -569 -554 -593 -569 c 0,140,141
 -612 -580 -612 -580 -644 -580 c 2,142,-1
 -676 -578 l 2,143,144
 -692 -578 -692 -578 -713.5 -561 c 128,-1,145
 -735 -544 -735 -544 -746 -515 c 1,146,-1
 -756 -467 l 1,147,-1
 -758 -406 l 2,48,49
EndSplineSet
LCarets2: 1 0
Ligature2: "'blwf' Below Base Forms lookup 5-1" u1134D u1131E
EndChar

StartChar: u1135F
Encoding: 70495 70495 104
Width: 826
Flags: W
LayerCount: 2
Fore
SplineSet
11 394 m 1,0,-1
 62 394 l 1,1,-1
 65 354 l 2,2,3
 65 328 65 328 74 283 c 1,4,-1
 87 241 l 2,5,6
 92 225 92 225 132 167 c 0,7,8
 161 130 161 130 188 109 c 0,9,10
 233 73 233 73 304 51 c 0,11,12
 372 34 372 34 407 34 c 2,13,-1
 427 35 l 1,14,-1
 456 39 l 1,15,-1
 514 57 l 2,16,17
 586 81 586 81 617 106 c 0,18,19
 635 120 635 120 666 174 c 0,20,21
 684 206 684 206 691.5 221.5 c 128,-1,22
 699 237 699 237 710 265 c 1,23,-1
 722 326 l 1,24,-1
 731 403 l 1,25,-1
 773 403 l 1,26,-1
 770 364 l 1,27,-1
 764 325 l 1,28,-1
 756 281 l 2,29,30
 751 250 751 250 743 233 c 0,31,32
 729 190 729 190 700 146 c 0,33,34
 675 108 675 108 647 82 c 0,35,36
 608 44 608 44 523 16 c 0,37,38
 451 -8 451 -8 404 -8 c 0,39,40
 359 -8 359 -8 290 13 c 128,-1,41
 221 34 221 34 161 79 c 0,42,43
 134 102 134 102 98 151.5 c 128,-1,44
 62 201 62 201 47 236 c 1,45,-1
 25 323 l 1,46,-1
 11 394 l 1,0,-1
404 289 m 0,47,48
 433 289 433 289 472 316 c 1,49,50
 500 344 500 344 500 382 c 0,51,52
 500 421 500 421 476 448 c 128,-1,53
 452 475 452 475 413 475 c 0,54,55
 373 475 373 475 346.5 450.5 c 128,-1,56
 320 426 320 426 320 388 c 0,57,58
 320 349 320 349 344 319 c 128,-1,59
 368 289 368 289 404 289 c 0,47,48
407 439 m 0,60,61
 419 439 419 439 445 421 c 1,62,63
 461 402 461 402 461 379 c 0,64,65
 461 365 461 365 446 338 c 1,66,67
 430 322 430 322 407 322 c 0,68,69
 386 322 386 322 371 340 c 128,-1,70
 356 358 356 358 356 385 c 0,71,72
 356 404 356 404 370.5 421.5 c 128,-1,73
 385 439 385 439 407 439 c 0,60,61
125 397 m 1,74,-1
 161 400 l 1,75,76
 161 339 161 339 190 290 c 0,77,78
 211 254 211 254 263 202 c 0,79,80
 287 181 287 181 332 156 c 1,81,82
 369 142 369 142 413 142 c 0,83,84
 467 142 467 142 504 160.5 c 128,-1,85
 541 179 541 179 575 219 c 0,86,87
 593 243 593 243 610 299 c 1,88,-1
 620 400 l 1,89,-1
 659 403 l 1,90,91
 659 308 659 308 652 286 c 0,92,93
 640 229 640 229 600 183 c 128,-1,94
 560 137 560 137 516 120 c 128,-1,95
 472 103 472 103 407 103 c 0,96,97
 358 103 358 103 326 116 c 0,98,99
 306 123 306 123 288 132.5 c 128,-1,100
 270 142 270 142 247 160 c 0,101,102
 206 191 206 191 167 255 c 0,103,104
 125 327 125 327 125 397 c 1,74,-1
EndSplineSet
EndChar

StartChar: uniE211
Encoding: 57873 57873 105
Width: 264
Flags: W
LayerCount: 2
Fore
SplineSet
312 377 m 1,0,-1
 135 -10 l 1,1,-1
 86 -10 l 1,2,-1
 264 374 l 1,3,-1
 285 429 l 1,4,-1
 299 476 l 1,5,-1
 303 500 l 1,6,-1
 304 519 l 2,7,8
 304 553 304 553 288 573 c 0,9,10
 258 617 258 617 160 617 c 0,11,12
 104 617 104 617 60.5 569 c 128,-1,13
 17 521 17 521 -9 425 c 1,14,-1
 -15 389 l 1,15,-1
 -20 338 l 1,16,-1
 -23 234 l 2,17,18
 -23 183 -23 183 -13.5 126 c 128,-1,19
 -4 69 -4 69 14 -6 c 1,20,-1
 -35 -6 l 1,21,22
 -59 47 -59 47 -75.5 103.5 c 128,-1,23
 -92 160 -92 160 -103 228 c 0,24,25
 -109 272 -109 272 -109 313 c 0,26,27
 -109 370 -109 370 -97 427 c 0,28,29
 -71 543 -71 543 -5.5 611.5 c 128,-1,30
 60 680 60 680 147 680 c 0,31,32
 278 680 278 680 329 617 c 0,33,34
 351 586 351 586 351 537 c 0,35,36
 351 513 351 513 345 480 c 2,37,-1
 341 465 l 1,38,-1
 339 453 l 1,39,-1
 334 440 l 1,40,-1
 312 377 l 1,0,-1
EndSplineSet
EndChar

StartChar: uniE210
Encoding: 57872 57872 106
Width: 151
Flags: W
LayerCount: 2
Fore
SplineSet
243 533 m 1,0,1
 222 483 222 483 177 445 c 1,2,-1
 139 423 l 1,3,-1
 121 419 l 1,4,-1
 104 416 l 1,5,6
 54 416 54 416 33 436 c 0,7,8
 18 450 18 450 18 476 c 2,9,-1
 21 500 l 1,10,-1
 25 520 l 1,11,-1
 35 544 l 1,12,-1
 42 561 l 1,13,-1
 58 584 l 1,14,15
 36 565 36 565 -8 511 c 1,16,-1
 -35 466 l 1,17,-1
 -60 416 l 1,18,-1
 -66 399 l 1,19,-1
 -71 378 l 1,20,-1
 -78 345 l 1,21,-1
 -82 304 l 1,22,-1
 -84 255 l 1,23,-1
 -81 212 l 2,24,25
 -70 90 -70 90 -13 -12 c 1,26,-1
 -71 -4 l 1,27,28
 -120 48 -120 48 -141 159 c 1,29,-1
 -146 205 l 1,30,-1
 -148 254 l 1,31,-1
 -148 282 l 2,32,33
 -148 303 -148 303 -146 309 c 2,34,-1
 -145 329 l 1,35,-1
 -142 346 l 1,36,-1
 -137 363 l 1,37,-1
 -130 392 l 1,38,-1
 -120 422 l 1,39,40
 -65 549 -65 549 14 614 c 0,41,42
 80 668 80 668 139 668 c 0,43,44
 186 668 186 668 225 644 c 1,45,46
 252 621 252 621 252 581 c 2,47,-1
 252 569 l 1,48,-1
 250 556 l 1,49,-1
 247 545 l 1,50,-1
 243 533 l 1,0,1
154 607 m 0,51,52
 112 607 112 607 79 537 c 1,53,-1
 74 518 l 1,54,-1
 72 503 l 2,55,56
 72 490 72 490 80.5 478.5 c 128,-1,57
 89 467 89 467 118 467 c 0,58,59
 134 467 134 467 154 490 c 128,-1,60
 174 513 174 513 183 546 c 1,61,-1
 185 567 l 2,62,63
 185 580 185 580 180 593.5 c 128,-1,64
 175 607 175 607 154 607 c 0,51,52
EndSplineSet
EndChar

StartChar: uniE20A
Encoding: 57866 57866 107
Width: 150
Flags: W
LayerCount: 2
Fore
SplineSet
-162 -432 m 0,0,1
 -84 -411 -84 -411 -21 -362.5 c 128,-1,2
 42 -314 42 -314 42 -282 c 2,3,-1
 43 88 l 1,4,-1
 -42 88 l 1,5,-1
 -42 141 l 1,6,-1
 198 144 l 1,7,-1
 198 84 l 1,8,-1
 113 88 l 1,9,-1
 114 -294 l 1,10,-1
 115 -313 l 2,11,12
 115 -331 115 -331 100 -352 c 0,13,14
 79 -381 79 -381 18 -426 c 1,15,-1
 -100 -473 l 2,16,17
 -170 -498 -170 -498 -258 -498 c 2,18,-1
 -309 -499 l 1,19,-1
 -360 -502 l 2,20,21
 -378 -502 -378 -502 -387 -501 c 128,-1,22
 -396 -500 -396 -500 -415 -494 c 0,23,24
 -448 -487 -448 -487 -510 -462 c 1,25,-1
 -373 -457 l 2,26,27
 -315 -457 -315 -457 -260.5 -450.5 c 128,-1,28
 -206 -444 -206 -444 -162 -432 c 0,0,1
EndSplineSet
EndChar

StartChar: uniE31F
Encoding: 58143 58143 108
Width: 10
Flags: W
LayerCount: 2
Fore
SplineSet
-49 -595 m 1,0,-1
 -87 -643 l 1,1,-1
 -521 -643 l 1,2,-1
 -564 -860 l 1,3,-1
 -632 -860 l 1,4,-1
 -591 -643 l 1,5,-1
 -1041 -643 l 1,6,-1
 -963 -271 l 1,7,-1
 -900 -271 l 1,8,-1
 -969 -595 l 1,9,-1
 -84 -595 l 1,10,-1
 -49 -595 l 1,0,-1
EndSplineSet
LCarets2: 1 0
Ligature2: "'blwf' Below Base Forms lookup 5-1" u1134D u1131F
EndChar

StartChar: uniE320
Encoding: 58144 58144 109
Width: 10
Flags: W
LayerCount: 2
Fore
SplineSet
-59 -420 m 256,0,1
 -59 -501 -59 -501 -113.5 -561.5 c 128,-1,2
 -168 -622 -168 -622 -250 -622 c 256,3,4
 -332 -622 -332 -622 -392.5 -566.5 c 128,-1,5
 -453 -511 -453 -511 -453 -431 c 0,6,7
 -453 -350 -453 -350 -398 -289 c 128,-1,8
 -343 -228 -343 -228 -261 -228 c 256,9,10
 -179 -228 -179 -228 -119 -283.5 c 128,-1,11
 -59 -339 -59 -339 -59 -420 c 256,0,1
-118 -409 m 2,12,13
 -125 -360 -125 -360 -164 -328 c 128,-1,14
 -203 -296 -203 -296 -252 -296 c 1,15,-1
 -272 -298 l 2,16,17
 -322 -306 -322 -306 -353.5 -344 c 128,-1,18
 -385 -382 -385 -382 -385 -432 c 1,19,-1
 -383 -452 l 2,20,21
 -375 -500 -375 -500 -337 -532.5 c 128,-1,22
 -299 -565 -299 -565 -251 -565 c 1,23,-1
 -229 -563 l 2,24,25
 -181 -555 -181 -555 -148.5 -517 c 128,-1,26
 -116 -479 -116 -479 -116 -431 c 1,27,-1
 -118 -409 l 2,12,13
EndSplineSet
LCarets2: 1 0
Substitution2: "Second stack to third stack-1" uniE520
Ligature2: "'blwf' Below Base Forms lookup 5-1" u1134D u11320
EndChar

